<?xml version="1.0" standalone="no"?>
<!DOCTYPE svg PUBLIC "-//W3C//DTD SVG 1.1//EN" "http://www.w3.org/Graphics/SVG/1.1/DTD/svg11.dtd" >
<svg>
<metadata>
Created by FontForge 20090914 at Wed Jan 29 15:58:02 2014
 By www-data
Copyright 1998 by (URW)++ Design &#38; Development GmbH
</metadata>
<defs>
<font id="CorporateA-Bold" horiz-adv-x="1024" >
  <font-face 
    font-family="CorpoA"
    font-weight="700"
    font-stretch="normal"
    units-per-em="2048"
    panose-1="0 0 0 0 0 0 0 0 0 0"
    ascent="1638"
    descent="-410"
    x-height="966.999"
    cap-height="1372"
    bbox="-373 -532.999 1988 1812"
    underline-thickness="113"
    underline-position="-184"
    unicode-range="U+0020-U+F002"
  />
<missing-glyph horiz-adv-x="512" 
d="M51 0v1365h410v-1365h-410zM410 51v1263h-308v-1263h308z" />
    <glyph glyph-name=".notdef" horiz-adv-x="512" 
d="M51 0v1365h410v-1365h-410zM410 51v1263h-308v-1263h308z" />
    <glyph glyph-name="space" unicode=" " horiz-adv-x="512" 
 />
    <glyph glyph-name="exclam" unicode="!" horiz-adv-x="581" 
d="M220 458l-74 904h289l-74 -904h-141zM293 301c42.667 0 80 -15.668 112 -47.001c31.333 -31.333 47 -69.333 47 -114c0 -45.333 -15.667 -83.666 -47 -114.999c-32 -31.333 -70 -47 -114 -47c-44.667 0 -83 15.667 -115 47c-31.333 32 -47 70 -47 114
c0 46 15.667 84.333 47 115c32.667 31.333 71.667 47 117 47z" />
    <glyph glyph-name="quotedbl" unicode="&#x22;" horiz-adv-x="740" 
d="M280 818h-139l-32 547h203zM599 818h-139l-32 547h204z" />
    <glyph glyph-name="numbersign" unicode="#" horiz-adv-x="1231" 
d="M1124 567l-24 -151h-225l-66 -416h-174l66 416h-260l-66 -416h-173l66 416h-227l24 151h227l40 257h-226l23 151h227l62 390h174l-62 -390h260l62 390h174l-62 -390h225l-24 -151h-225l-41 -257h225zM766 824h-260l-41 -257h260z" />
    <glyph glyph-name="dollar" unicode="$" horiz-adv-x="1107" 
d="M521 51l0.00195312 529.002l-38 14c-122.667 47.333 -203.667 82.666 -243 105.999c-49.333 30 -87.5 71.167 -114.5 123.5s-40.5 111.5 -40.5 177.5c0 160.667 78 274.667 234 342c57.333 25.333 124.666 40.333 201.999 45v170h68v-171
c114 -6.66699 212.333 -46.334 295 -119.001l62 131h43v-423h-65c-20 108 -58 190 -114 246s-129.667 86 -221 90v-467c111.333 -38.667 194 -72.667 248 -102c137.333 -75.333 206 -188 206 -338c0 -100 -28.667 -186.333 -86 -259
c-82.667 -104.667 -205.334 -161 -368.001 -169v-169h-68v172c-109.333 9.33301 -216 54 -320 134l-84 -157h-43v492h65c16.667 -144 72.667 -251.333 168 -322c64.667 -46 136 -71.333 214 -76zM589.002 53.002c53.333 7.33301 96.666 23.667 129.999 49
c61.333 46 92 114.333 92 205c0 80.667 -30.667 142.667 -92 186c-27.333 18.667 -70.666 39 -129.999 61v-501zM521.002 1306c-42 -8 -77.332 -21.999 -105.999 -41.999c-62.667 -42.667 -94 -104.667 -94 -186c0 -76.667 32.333 -132.334 97 -167.001
c25.333 -12.667 59.666 -26.667 102.999 -42v437z" />
    <glyph glyph-name="percent" unicode="%" horiz-adv-x="1369" 
d="M369 1376c84.667 0 154.998 -31.998 210.998 -95.998c54 -62 81 -138.667 81 -230c0 -89.333 -27 -166 -81 -230c-57.333 -68 -130 -102 -218 -102c-95.333 0 -171.666 36 -228.999 108c-48 59.333 -72 131.666 -72 216.999c0 89.333 26 164.666 78 225.999
c60.667 71.333 137.334 107 230.001 107zM360.998 1313c-41.333 0 -71.833 -21.834 -91.5 -65.501s-29.5 -111.5 -29.5 -203.5c0 -82 8.33301 -145.333 25 -190c18 -48.667 51 -73 99 -73s80.333 26 97 78c14 44.667 21 107.334 21 188.001c0 84.667 -8 148.667 -24 192
c-18 49.333 -50.333 74 -97 74zM234.998 0.000976562l792 1365h107l-793 -1365h-106zM1015 647.001c84.667 0 155 -31.998 211 -95.998c54 -61.333 81 -138 81 -230c0 -89.333 -27 -166 -81 -230c-57.333 -68 -130 -102 -218 -102c-94.667 0 -171 36 -229 108
c-48 59.333 -72 131.666 -72 216.999c0 89.333 26 164.666 78 225.999c60 71.333 136.667 107 230 107zM1007 585.003c-80.667 0 -121 -89.334 -121 -268.001c0 -82.667 8.33301 -146.667 25 -192c18 -48.667 50.667 -73 98 -73c48.667 0 81.334 26 98.001 78
c14 44.667 21 107.667 21 189c0 84.667 -7.66699 148.334 -23 191.001c-18.667 50 -51.334 75 -98.001 75z" />
    <glyph glyph-name="ampersand" unicode="&#x26;" horiz-adv-x="1283" 
d="M642 720l311.997 -415.002c28 37.333 50.167 75.5 66.5 114.5s24.5 73.833 24.5 104.5c0 26.667 -13.333 44 -40 52c-14 4 -37 6.66699 -69 8v75c72.667 -5.33301 124.667 -8 156 -8c32 0 84 2.66699 156 8v-75c-42 -2.66699 -70.667 -8.66699 -86 -18
c-11.333 -7.33301 -19.666 -19.666 -24.999 -36.999c-1.33301 -3.33301 -5.66602 -21 -12.999 -53c-22 -94 -58.667 -175 -110 -243l61 -82c32.667 -43.333 59.667 -70.666 81 -81.999c20 -10 50 -16 90 -18v-58c-65.333 5.33301 -118.333 8 -159 8
s-93.667 -2.66699 -159 -8l-71 92c-47.333 -31.333 -85.666 -53 -114.999 -65c-66.667 -28.667 -146 -43 -238 -43c-132.667 0 -241.667 33.333 -327 100c-84 66 -126 158 -126 276c0 118.667 43.667 217.334 131 296.001c33.333 30 83.666 68.333 150.999 115
c-35.333 50 -60 85.667 -74 107c-36.667 58 -55 117 -55 177c0 83.333 34 152.666 102 207.999c70.667 57.333 154 86 250 86c89.333 0 162 -27 218 -81s84 -122.667 84 -206c0 -80.667 -29.667 -153.667 -89 -219c-31.333 -35.333 -73.666 -74 -126.999 -116z
M515.997 879.998c126.667 90 190 173.333 190 250c0 38.667 -11.333 70.667 -34 96c-25.333 27.333 -59 41 -101 41c-46 0 -85 -16 -117 -48c-31.333 -30.667 -47 -69.667 -47 -117c0 -40 15.667 -84.667 47 -134c14 -22.667 34.667 -52 62 -88zM470.997 591.998
c-120 -80 -180 -171 -180 -273c0 -79.333 28 -141 84 -185c46 -37.333 107 -56 183 -56c78 0 159 24.667 243 74z" />
    <glyph glyph-name="quotesingle" unicode="'" horiz-adv-x="421" 
d="M280 818h-139l-32 547h204z" />
    <glyph glyph-name="parenleft" unicode="(" horiz-adv-x="697" 
d="M516 1399l69 -0.000976562c-60.667 -102 -105.667 -204 -135 -306c-52 -185.333 -78 -388.666 -78 -609.999c0 -220.667 26 -423.667 78 -609c29.333 -103.333 74.333 -205.333 135 -306h-69c-248.667 222 -373 527 -373 915c0 384 124.333 689.333 373 916z" />
    <glyph glyph-name="parenright" unicode=")" horiz-adv-x="697" 
d="M181 -432l-69 0.000976562c60.667 101.333 105.334 203.333 134.001 306c52.667 184.667 79 387.667 79 609c0 228.667 -26.333 432 -79 610c-30.667 105.333 -75.334 207.333 -134.001 306h69c84.667 -78 153.667 -160.667 207 -248
c110.667 -184.667 166 -407.334 166 -668.001c0 -387.333 -124.333 -692.333 -373 -915z" />
    <glyph glyph-name="asterisk" unicode="*" horiz-adv-x="1107" 
d="M502 1086l-16 245h136l-16 -245l228 91l42 -129l-238 -61l157 -189l-110 -80l-131 208l-131 -208l-110 80l157 189l-238 61l42 129z" />
    <glyph glyph-name="plus" unicode="+" horiz-adv-x="1108" 
d="M95 604v170h370v366h177v-366h371v-170h-371v-367h-177v367h-370z" />
    <glyph glyph-name="comma" unicode="," horiz-adv-x="538" 
d="M155 -465l-103.999 0.000976562c107.333 134.667 174.666 287.667 201.999 459c-36.667 1.33301 -67 10.666 -91 27.999c-37.333 27.333 -56 67.666 -56 120.999c0 48.667 16.333 88 49 118c30 28 68.333 42 115 42c50 0 90 -16.667 120 -50
c30 -32.667 45 -80.667 45 -144c0 -181.333 -93.333 -372.666 -280 -573.999z" />
    <glyph glyph-name="hyphen" unicode="-" horiz-adv-x="545" 
d="M0 469v107h545v-107h-545z" />
    <glyph glyph-name="period" unicode="." horiz-adv-x="537" 
d="M271 300c42.667 0 79.999 -15.667 111.999 -47c31.333 -31.333 47 -69.333 47 -114s-15.667 -82.667 -47 -114c-32 -31.333 -70 -47 -114 -47s-82 15.667 -114 47c-31.333 32 -47 70 -47 114c0 45.333 15.667 83.333 47 114c32.667 31.333 71.334 47 116.001 47z" />
    <glyph glyph-name="slash" unicode="/" horiz-adv-x="911" 
d="M-183 -398l902 1763h172l-902 -1763h-172z" />
    <glyph glyph-name="zero" unicode="0" horiz-adv-x="1107" 
d="M562 1354c64 0 124.331 -14.333 180.998 -43s103 -67.667 139 -117c44.667 -62.667 79.334 -140.167 104.001 -232.5s37 -190.833 37 -295.5c0 -204 -42.333 -373 -127 -507c-75.333 -120.667 -188.666 -181 -339.999 -181c-154.667 0 -271 62 -349 186
c-82 130 -123 295.667 -123 497c0 215.333 41.667 386.333 125 513c40.667 61.333 94.667 108 162 140c58 26.667 121.667 40 191 40zM553.998 1289c-140 0 -210.001 -210.334 -210.001 -631.001c0 -192 17 -346 51 -462c29.333 -102 82.333 -153 159 -153
c78.667 0 132.334 54 161.001 162c32 118.667 48 271.334 48 458.001c0 215.333 -17.333 375.333 -52 480c-32.667 97.333 -85 146 -157 146z" />
    <glyph glyph-name="one" unicode="1" horiz-adv-x="1107" 
d="M706 1388l0.00195312 -1176c0.666992 -47.333 5.66699 -79.666 15 -96.999c12 -22 40 -35.667 84 -41c21.333 -2.66699 46 -4.33398 74 -5.00098v-76c-115.333 10 -217 15 -305 15c-88.667 0 -190.334 -5 -305.001 -15v76c59.333 2 100 7.33301 122 16
c25.333 10.667 40.666 30.334 45.999 59.001c3.33301 14.667 5 37.334 5 68.001v881h-228v72c90 7.33301 172.667 29.333 248 66c80 42.667 137.333 95 172 157h72z" />
    <glyph glyph-name="two" unicode="2" horiz-adv-x="1107" 
d="M982 226l-37.998 -225.999h-821v199l206 209c231.333 246.667 347 437 347 571c0 58.667 -19 106.667 -57 144c-39.333 38 -90 57 -152 57c-80.667 0 -143.334 -29.333 -188.001 -88c-23.333 -31.333 -42 -79 -56 -143h-95c7.33301 59.333 15.666 105 24.999 137
c26.667 96.667 81.334 167.667 164.001 213c67.333 36.667 145.666 55 234.999 55c107.333 0 196 -26.667 266 -80c83.333 -63.333 125 -147.333 125 -252c0 -86 -32.667 -175 -98 -267c-68 -96.667 -169 -210.334 -303 -341.001l-196 -188h636z" />
    <glyph glyph-name="three" unicode="3" horiz-adv-x="1108" 
d="M94 378l90.001 0.00195312c10 -55.333 26 -99 48 -131c46 -65.333 120 -98 222 -98c82 0 148 21.667 198 65c52 45.333 78 108.666 78 189.999c0 117.333 -51 192 -153 224c-44.667 14 -109.667 21 -195 21h-41v85h41c91.333 0 154.666 10.667 189.999 32
c66 39.333 99 104.333 99 195c0 70 -20 125.667 -60 167c-38 38.667 -86.667 58 -146 58c-79.333 0 -141.333 -29.667 -186 -89c-20.667 -27.333 -38.334 -68.666 -53.001 -123.999h-89c25.333 254 162 381 410 381c120.667 0 216 -32.667 286 -98
c65.333 -61.333 98 -140.666 98 -237.999c0 -148 -80 -250.667 -240 -308c76.667 -18 136 -42 178 -72c80.667 -56.667 121 -141.334 121 -254.001c0 -120 -46.667 -218.667 -140 -296c-88 -73.333 -198 -110 -330 -110c-85.333 0 -160.666 17.167 -225.999 51.5
s-115 83.166 -149 146.499c-29.333 53.333 -46.333 120.666 -51 201.999z" />
    <glyph glyph-name="four" unicode="4" horiz-adv-x="1107" 
d="M558 -14v334h-531l505 1054h290v-867h227v-187h-227v-334h-264zM568 507v756l-354 -756h354z" />
    <glyph glyph-name="five" unicode="5" horiz-adv-x="1107" 
d="M896 1121l-589.998 -0.000976562l-58 -352c94.667 88.667 206.334 133 335.001 133c122.667 0 222 -38.667 298 -116c77.333 -79.333 116 -183.333 116 -312s-38.333 -240 -115 -334c-88.667 -108 -208 -162 -358 -162c-162 0 -280 61.667 -354 185
c-34.667 56.667 -54.334 126.334 -59.001 209.001h92c25.333 -146.667 110.666 -220 255.999 -220c91.333 0 159.666 31 204.999 93c44 59.333 66 133.666 66 222.999c0 88.667 -23.333 158.334 -70 209.001c-48 52 -109.333 78 -184 78c-97.333 0 -182 -49 -254 -147
l-87 13l117 711h682z" />
    <glyph glyph-name="six" unicode="6" horiz-adv-x="1107" 
d="M734 1390l116.998 0.000976562c-76 -69.333 -151.667 -151.333 -227 -246c-76.667 -98.667 -133 -187.334 -169 -266.001c60.667 28 120.334 42 179.001 42c102.667 0 188 -37.667 256 -113c82.667 -92 124 -206.333 124 -343c0 -134 -44 -248 -132 -342
c-89.333 -96 -199.666 -144 -330.999 -144c-140.667 0 -255.334 53.333 -344.001 160c-76 92 -114 204 -114 336c0 212 112 430.333 336 655c92.667 93.333 194.334 180.333 305.001 261zM554.998 826.001c-34.667 0 -65.834 -9.83301 -93.501 -29.5
s-48.5 -46.5 -62.5 -80.5c-26 -66.667 -39 -158.667 -39 -276c0 -118.667 12.667 -212.667 38 -282c26.667 -75.333 78 -113 154 -113c76.667 0 129.334 38.667 158.001 116c24.667 64.667 37 152 37 262c0 131.333 -13.667 231.333 -41 300
c-28 68.667 -78.333 103 -151 103z" />
    <glyph glyph-name="seven" unicode="7" horiz-adv-x="1107" 
d="M192 0l580 1120h-684v212h921l-596 -1332h-221z" />
    <glyph glyph-name="eight" unicode="8" horiz-adv-x="1107" 
d="M765 701c59.333 -27.333 104.998 -57.334 136.998 -90.001c62.667 -64 94 -147 94 -249c0 -113.333 -37.667 -204.666 -113 -273.999c-79.333 -73.333 -186.666 -110 -321.999 -110c-138.667 0 -250.667 38.667 -336 116c-76 68.667 -114 157.334 -114 266.001
c0 92.667 25.667 170 77 232c32 39.333 82 75.666 150 108.999c-53.333 26 -93.666 53.333 -120.999 82c-54.667 58.667 -82 132.334 -82 221.001c0 99.333 33.667 180 101 242c78 72 185.667 108 323 108c122 0 218.333 -29 289 -87c78.667 -65.333 118 -154 118 -266
c0 -80 -23.667 -148.333 -71 -205c-28.667 -34.667 -72 -66.334 -130 -95.001zM555.998 659.999c-64.667 0 -113 -30.667 -145 -92c-27.333 -52 -41 -122.667 -41 -212c0 -208.667 62.333 -313 187 -313c120 0 180 103 180 309c0 205.333 -60.333 308 -181 308z
M551.998 1289c-104.667 0 -157 -95 -157 -285c0 -184.667 53.667 -277 161 -277c100 0 150 86.333 150 259c0 92 -10.333 164.333 -31 217c-22 57.333 -63 86 -123 86z" />
    <glyph glyph-name="nine" unicode="9" horiz-adv-x="1108" 
d="M377 -59l-117.001 0.000976562c76.667 70 154.334 155.667 233.001 257c71.333 93.333 124.666 178.666 159.999 255.999c-60 -28 -119.667 -42 -179 -42c-101.333 0 -185.666 37.667 -252.999 113c-82.667 92 -124 206.333 -124 343c0 134 43.667 248 131 342
c88.667 96 198.667 144 330 144c139.333 0 253 -53 341 -159c76 -92 114 -204.333 114 -337c0 -294 -212 -599.667 -636 -917zM552.999 1287c-73.333 0 -124.335 -38.667 -153.002 -116c-24 -64.667 -36 -153 -36 -265c0 -126 13.667 -225 41 -297
c26.667 -68.667 75.334 -103 146.001 -103c76.667 0 129.334 36.667 158.001 110c25.333 66.667 38 156.667 38 270c0 124.667 -12.667 220.667 -38 288c-27.333 75.333 -79.333 113 -156 113z" />
    <glyph glyph-name="colon" unicode=":" horiz-adv-x="537" 
d="M271 300c42.667 0 79.999 -15.667 111.999 -47c31.333 -31.333 47 -69.333 47 -114s-15.667 -82.667 -47 -114c-32 -31.333 -70 -47 -114 -47s-82 15.667 -114 47c-31.333 32 -47 70 -47 114c0 45.333 15.667 83.333 47 114c32.667 31.333 71.334 47 116.001 47z
M270.999 937c43.333 0 80.667 -15.667 112 -47s47 -69.333 47 -114s-15.667 -82.667 -47 -114c-32 -31.333 -70 -47 -114 -47c-44.667 0 -82.667 15.667 -114 47c-31.333 32 -47 70 -47 114c0 45.333 15.667 83.333 47 114c32 31.333 70.667 47 116 47z" />
    <glyph glyph-name="semicolon" unicode=";" horiz-adv-x="538" 
d="M272 937c43.333 0 80.666 -15.667 111.999 -47s47 -69.333 47 -114s-15.667 -82.667 -47 -114s-69.333 -47 -114 -47c-44 0 -82 15.667 -114 47c-31.333 31.333 -47 69.333 -47 114c0 45.333 15.667 83.333 47 114c32.667 31.333 71.334 47 116.001 47zM155 -465
l-103.999 0.000976562c107.333 134.667 174.666 287.667 201.999 459c-36.667 1.33301 -67 10.666 -91 27.999c-37.333 27.333 -56 67.666 -56 120.999c0 48.667 16.333 88 49 118c30 28 68.333 42 115 42c50 0 90 -16.667 120 -50c30 -32.667 45 -80.667 45 -144
c0 -181.333 -93.333 -372.666 -280 -573.999z" />
    <glyph glyph-name="less" unicode="&#x3c;" 
d="M939 1272v-98l-589 -379l589 -396v-261l-854 576v15z" />
    <glyph glyph-name="equal" unicode="=" horiz-adv-x="1108" 
d="M95 757v158h918v-158h-918zM95 463v158h918v-158h-918z" />
    <glyph glyph-name="greater" unicode="&#x3e;" 
d="M85 138v98l589 380l-589 396v260l854 -576v-14z" />
    <glyph glyph-name="question" unicode="?" horiz-adv-x="875" 
d="M414 452l-90.0029 0.00195312c-1.33301 34 -2 59 -2 75c0 60.667 7.66699 112 23 154s57.333 102.333 126 181c38 43.333 63 78 75 104c14.667 30.667 22 61.667 22 93c0 55.333 -20.667 97.666 -62 126.999c-30 21.333 -67.333 32 -112 32
c-77.333 0 -137.666 -28 -180.999 -84c-24 -31.333 -40.333 -79.666 -49 -144.999h-81c0.666992 115.333 26.334 203.666 77.001 264.999c72 86 176.333 129 313 129c98.667 0 178.334 -26 239.001 -78c70.667 -60.667 106 -143 106 -247c0 -86 -31 -162 -93 -228
c-24.667 -26.667 -81 -70.334 -169 -131.001c-94 -62 -141.333 -144.333 -142 -247zM389.997 301.002c42.667 0 80 -15.668 112 -47.001c31.333 -31.333 47 -69.333 47 -114c0 -45.333 -15.667 -83.666 -47 -114.999c-32 -31.333 -70.333 -47 -115 -47
c-44 0 -82 15.667 -114 47c-31.333 32 -47 70 -47 114c0 46 15.667 84.333 47 115c32.667 31.333 71.667 47 117 47z" />
    <glyph glyph-name="at" unicode="@" horiz-adv-x="1484" 
d="M1278 357l125.002 -0.00195312c-32.667 -58.667 -63 -104.667 -91 -138s-64.667 -66.666 -110 -99.999c-124.667 -93.333 -262 -140 -412 -140c-154.667 0 -295 41.667 -421 125c-106.667 70.667 -186 164 -238 280c-40.667 91.333 -61 188 -61 290
c0 144.667 38.667 277 116 397c70.667 108 165 190 283 246c97.333 46 201 69 311 69c181.333 0 336 -58 464 -174c113.333 -102 170 -232.333 170 -391c0 -147.333 -45.667 -271.333 -137 -372c-56.667 -62.667 -120 -109 -190 -139c-40 -17.333 -78.333 -26 -115 -26
c-56 0 -96.667 20.667 -122 62c-13.333 21.333 -23.333 55.333 -30 102c-34.667 -47.333 -62.334 -79.666 -83.001 -96.999c-44 -38 -92.333 -57 -145 -57c-76.667 0 -141.334 30 -194.001 90c-45.333 51.333 -68 115 -68 191c0 124.667 47.667 233 143 325
c84 81.333 175.333 122 274 122c88 0 143.333 -47 166 -141l33 123h184l-148 -546c-6 -23.333 -9 -42.333 -9 -57c0 -34.667 15 -52 45 -52c26 0 55.5 13 88.5 39s64.833 61 95.5 105c69.333 101.333 104 207.333 104 318c0 139.333 -57 254.666 -171 345.999
c-97.333 78 -213.666 117 -348.999 117c-160.667 0 -295.334 -48.667 -404.001 -146c-61.333 -54.667 -109 -121.667 -143 -201s-51 -162.666 -51 -249.999c0 -150 46 -277.667 138 -383c50.667 -58 113.667 -104.667 189 -140c90.667 -42.667 188 -64 292 -64
c188 0 345 89 471 267zM769.002 962.998c-31.333 0 -63 -15.6709 -95 -47.0039s-61.667 -75.666 -89 -132.999c-46.667 -99.333 -70 -193.666 -70 -282.999c0 -40.667 9.33301 -75 28 -103c19.333 -29.333 45.333 -44 78 -44c68.667 0 130.667 60.667 186 182
c23.333 50.667 41.333 107.334 54 170.001c9.33301 46 14 85.667 14 119c0 36.667 -7.33301 67.334 -22 92.001c-18.667 31.333 -46.667 47 -84 47z" />
    <glyph glyph-name="A" unicode="A" horiz-adv-x="1391" 
d="M830 370l-448.004 -0.000976562l-55 -145c-15.333 -42 -23 -72.333 -23 -91c0 -30.667 17.333 -49.334 52 -56.001c16.667 -4 47.334 -7 92.001 -9v-76c-90.667 6.66699 -162 10 -214 10c-51.333 0 -122.666 -3.33301 -213.999 -10v76c34.667 2 60.667 5 78 9
c44.667 10 81.334 39.333 110.001 88c18.667 31.333 36 67.666 52 108.999l454 1145l450 -1206c24 -63.333 52 -103.666 84 -120.999c27.333 -13.333 68 -21.333 122 -24v-76c-106.667 10 -209.667 15 -309 15s-202.666 -5 -309.999 -15v76
c51.333 2.66699 85 5.33398 101 8.00098c30.667 6.66699 46 22.667 46 48c0 8.66699 -5 34.334 -15 77.001zM414.996 453.999h389l-179 537z" />
    <glyph glyph-name="B" unicode="B" horiz-adv-x="1243" 
d="M857 735c57.333 -8 105.998 -23.666 145.998 -46.999c46 -26.667 82.667 -63.667 110 -111c32 -54 48 -115 48 -183c0 -111.333 -38.667 -203.666 -116 -276.999c-83.333 -78 -226.666 -117 -429.999 -117h-561v76c60 1.33301 101 6.66602 123 15.999
c24 10 39 29.667 45 59c3.33301 15.333 5 38 5 68v927c0 47.333 -5 79.666 -15 96.999c-12 22.667 -40 36.667 -84 42c-23.333 2.66699 -48 4 -74 4v76h601c70.667 0 128.834 -5 174.501 -15s86.834 -26.667 123.501 -50c45.333 -28.667 80.666 -66.834 105.999 -114.501
s38 -99.5 38 -155.5c0 -147.333 -80 -245.666 -240 -294.999zM489.998 751.001h107.999c84.667 0 143.334 21 176.001 63c34.667 44.667 52 112.667 52 204c0 98 -17.333 168.667 -52 212c-30 38.667 -82.333 58 -157 58h-127v-537zM489.997 674.001l0.000976562 -507
c0 -32.667 6.33301 -54.667 19 -66c14.667 -12 39 -18 73 -18h75c75.333 0 130 20 164 60c46 53.333 69 133 69 239s-21.333 183.667 -64 233c-34.667 39.333 -98.334 59 -191.001 59h-145z" />
    <glyph glyph-name="C" unicode="C" horiz-adv-x="1312" 
d="M1123 487l69.001 -0.000976562c-3.33301 -116.667 -29.333 -214.334 -78 -293.001s-115.334 -138 -200.001 -178c-68 -32.667 -143.667 -49 -227 -49c-88.667 0 -170.667 18.5 -246 55.5s-139 90.167 -191 159.5c-93.333 124 -140 283.667 -140 479
c0 191.333 37.667 351.666 113 480.999c48 82.667 114 146.334 198 191.001c81.333 43.333 173.333 65 276 65c108 0 200.333 -26 277 -78c24.667 -16.667 52 -40.334 82 -71.001l68 149h44v-469h-65c-20 88.667 -46.333 160.667 -79 216
c-30.667 51.333 -73.667 92 -129 122c-48.667 26.667 -100.667 40 -156 40c-132 0 -224.333 -62 -277 -186c-47.333 -113.333 -71 -254.666 -71 -423.999c0 -167.333 24 -302.666 72 -405.999c54 -116 150 -174 288 -174c64.667 0 124 13.833 178 41.5
s97.667 66.834 131 117.501c36 54.667 57 125 63 211z" />
    <glyph glyph-name="D" unicode="D" horiz-adv-x="1347" 
d="M226 219v927.003c0 47.333 -5 79.666 -15 96.999c-12 22.667 -40 36.667 -84 42c-23.333 2.66699 -48 4 -74 4v76h580c96 0 177.667 -11.5 245 -34.5s127.333 -59.5 180 -109.5c62.667 -60 111.667 -133.667 147 -221c40 -98.667 60 -202.334 60 -311.001
c0 -149.333 -35 -284.333 -105 -405c-76 -130.667 -187.667 -216 -335 -256c-69.333 -18.667 -155 -28 -257 -28h-515v76c60 1.33301 101 6.66602 123 15.999c24 10 39 29.667 45 59c3.33301 15.333 5 38 5 68zM496 1288l0.000976562 -1119c0 -40 8 -65.333 24 -76
c15.333 -10.667 42.666 -16 81.999 -16c137.333 0 233 38 287 114c70 98.667 105 270 105 514c0 205.333 -33 357.333 -99 456c-56 84.667 -148 127 -276 127h-123z" />
    <glyph glyph-name="E" unicode="E" horiz-adv-x="1193" 
d="M1110 379l-66 -379h-990v76c60 1.33301 101 6.66602 123 15.999c24 10 39 29.667 45 59c3.33301 15.333 5 38 5 68v927c0 47.333 -5 79.666 -15 96.999c-12 22.667 -40 36.667 -84 42c-23.333 2.66699 -48 4 -74 4v76h976l58 -360h-65
c-19.333 89.333 -42.666 153.333 -69.999 192c-24.667 36 -54.667 60.667 -90 74c-30 11.333 -69 17 -117 17h-249v-540h229c37.333 0.666992 63 6.66699 77 18c20 16.667 33 46.334 39 89.001c2 15.333 4 36.333 6 63h76v-418h-76c-2 54.667 -7.33301 93 -16 115
s-22.334 37.333 -41.001 46c-15.333 6.66699 -36.666 10 -63.999 10h-230v-486c0 -42 7.33301 -70.333 22 -85c17.333 -15.333 49.333 -23 96 -23h107c76 0.666992 133.333 15.667 172 45c39.333 28.667 77.333 81.334 114 158.001c13.333 29.333 25.666 62.333 36.999 99
h65z" />
    <glyph glyph-name="F" unicode="F" horiz-adv-x="1138" 
d="M498 671l-0.000976562 -459.001c0.666992 -47.333 5.66699 -79.666 15 -96.999c12 -22 40 -35.667 84 -41c21.333 -2.66699 46 -4.33398 74 -5.00098v-76c-107.333 10 -210 15 -308 15s-200.667 -5 -308 -15v76c59.333 2 100.333 7.33301 123 16
c24 10.667 39 30.334 45 59.001c3.33301 15.333 5 38 5 68v934c0 47.333 -5 79.666 -15 96.999c-12 22.667 -40 36.667 -84 42c-23.333 2.66699 -48 4 -74 4v76h976l58 -360h-65c-19.333 89.333 -42.666 153.333 -69.999 192c-24.667 36 -54.667 60.667 -90 74
c-30 11.333 -69 17 -117 17h-249v-540h229c37.333 0.666992 63 6.66699 77 18c20 16.667 33 46.334 39 89.001c2 15.333 4 36.333 6 63h76v-418h-76c-2 54.667 -7.33301 93 -16 115s-22.334 37.333 -41.001 46c-15.333 6.66699 -36.666 10 -63.999 10h-230z" />
    <glyph glyph-name="G" unicode="G" horiz-adv-x="1384" 
d="M1188 1399l0.00488281 -469.998h-65c-20 83.333 -44.667 151.666 -74 204.999c-32 58 -75.667 103.167 -131 135.5s-117 48.5 -185 48.5c-246 0 -369 -207 -369 -621c0 -182 20.333 -330.333 61 -445c49.333 -140 149.666 -210 300.999 -210
c61.333 0 135.666 17.333 222.999 52v357c0 33.333 -3 56.333 -9 69c-14 27.333 -60.667 42.666 -140 45.999v75c94 -8 183.667 -12 269 -12c86 0 176.333 4 271 12v-75c-48.667 -2.66699 -83.334 -10.667 -104.001 -24c-15.333 -10 -24.333 -24.333 -27 -43
c-1.33301 -5.33301 -2 -23 -2 -53v-297c-156.667 -114.667 -326.334 -172 -509.001 -172c-194.667 0 -346.334 64.333 -455.001 193c-106.667 126 -160 297.333 -160 514c0 220.667 55.333 392.667 166 516c112.667 125.333 261.667 188 447 188
c108.667 0 204 -24.333 286 -73c26.667 -16 56.667 -38 90 -66l72 150h44z" />
    <glyph glyph-name="H" unicode="H" horiz-adv-x="1463" 
d="M490 750l483.002 -0.00488281v403c0 47.333 -5 79.666 -15 96.999c-12 22 -40 35.667 -84 41c-22.667 2.66699 -47.334 4.33398 -74.001 5.00098v76c116 -10 220 -15 312 -15c91.333 0 190 5 296 15v-76c-58.667 -1.33301 -99.334 -6.66602 -122.001 -15.999
c-24.667 -10 -40 -29.667 -46 -59c-3.33301 -15.333 -5 -38 -5 -68v-941c0 -47.333 5 -79.666 15 -96.999c12 -22 40 -35.667 84 -41c22 -2.66699 46.667 -4.33398 74 -5.00098v-76c-107.333 10 -206 15 -296 15s-194 -5 -312 -15v76c59.333 2 100.333 7.33301 123 16
c24.667 10.667 39.667 30.334 45 59.001c3.33301 14.667 5 37.334 5 68.001v461h-483v-461c0 -47.333 5 -79.666 15 -96.999c12 -22 40 -35.667 84 -41c21.333 -2.66699 46 -4.33398 74 -5.00098v-76c-118 10 -222.333 15 -313 15c-90 0 -188.667 -5 -296 -15v76
c59.333 2 100.333 7.33301 123 16c24 10.667 39 30.334 45 59.001c3.33301 15.333 5 38 5 68v941c0 47.333 -5 79.666 -15 96.999c-12 22 -40 35.667 -84 41c-23.333 2.66699 -48 4.33398 -74 5.00098v76c106 -10 204.667 -15 296 -15c92 0 196.333 5 313 15v-76
c-58.667 -1.33301 -99.667 -6.66602 -123 -15.999c-24.667 -10 -39.667 -29.667 -45 -59c-3.33301 -13.333 -5 -36 -5 -68v-403z" />
    <glyph glyph-name="I" unicode="I" horiz-adv-x="724" 
d="M227 212l-0.00195312 940.999c0 47.333 -5 79.666 -15 96.999c-12 22 -40 35.667 -84 41c-23.333 2.66699 -48 4.33398 -74 5.00098v76c116.667 -10 219.334 -15 308.001 -15s191.334 5 308.001 15v-76c-58.667 -1.33301 -99.667 -6.66602 -123 -15.999
c-24.667 -10 -39.667 -29.667 -45 -59c-3.33301 -14.667 -5 -37.334 -5 -68.001v-941c0.666992 -47.333 5.66699 -79.666 15 -96.999c12 -22 40 -35.667 84 -41c21.333 -2.66699 46 -4.33398 74 -5.00098v-76c-118 10 -220.667 15 -308 15s-190 -5 -308 -15v76
c59.333 2 100.333 7.33301 123 16c24 10.667 39 30.334 45 59.001c3.33301 15.333 5 38 5 68z" />
    <glyph glyph-name="J" unicode="J" horiz-adv-x="724" 
d="M-23 -144l-0.000976562 89.9971c28 -4.66699 53.333 -7 76 -7c70 0 118 19.333 144 58c24 36 36 100.667 36 194v962c0 48 -5 80.333 -15 97c-12 22 -40 35.667 -84 41c-22.667 2.66699 -47.334 4.33398 -74.001 5.00098v76c116.667 -10 219.334 -15 308.001 -15
s191.334 5 308.001 15v-76c-58.667 -1.33301 -99.667 -6.66602 -123 -15.999c-24.667 -10 -39.667 -29.667 -45 -59c-3.33301 -15.333 -5 -38 -5 -68v-866c0 -105.333 -11 -183.666 -33 -234.999c-57.333 -136 -187 -204 -389 -204c-33.333 0 -68 2.66699 -104 8z" />
    <glyph glyph-name="K" unicode="K" horiz-adv-x="1425" 
d="M489 684l452.999 496.998c24 26.667 36 48.334 36 65.001c0 22.667 -15.667 36.667 -47 42c-17.333 3.33301 -45.333 6 -84 8v76c86.667 -5.33301 162 -8 226 -8s139.333 2.66699 226 8v-76c-43.333 -2.66699 -78.666 -8.66699 -105.999 -18
c-49.333 -16.667 -98.333 -50.334 -147 -101.001l-268 -285l393 -665c42.667 -70.667 81 -115 115 -133c26 -14.667 65.333 -23 118 -25v-76c-116 10.667 -220 16 -312 16s-195.667 -5.33301 -311 -16v76c32.667 2 57 4.33301 73 7c38.667 5.33301 58 21.333 58 48
c0 12.667 -9 35.667 -27 69l-279 517l-117 -125v-373c0 -47.333 5 -79.666 15 -96.999c12 -22 40 -35.667 84 -41c16.667 -2 36.334 -3.66699 59.001 -5v-76c-89.333 10 -183 15 -281 15c-100.667 0 -204.667 -5 -312 -15v76c59.333 2 100.333 7.33301 123 16
c24 10.667 39 30.334 45 59.001c3.33301 15.333 5 38 5 68v941c0 47.333 -5 79.666 -15 96.999c-12 22 -40 35.667 -84 41c-23.333 2.66699 -48 4.33398 -74 5.00098v76c116 -10 220.333 -15 313 -15c90.667 0 189 5 295 15v-76
c-58.667 -1.33301 -99.334 -6.66602 -122.001 -15.999c-24.667 -10 -40 -29.667 -46 -59c-3.33301 -14.667 -5 -37.334 -5 -68.001v-469z" />
    <glyph glyph-name="L" unicode="L" horiz-adv-x="1130" 
d="M1110 379l-66.001 -379h-990v76c60 1.33301 101 6.66602 123 15.999c24 10 39 29.667 45 59c3.33301 15.333 5 38 5 68v934c0 47.333 -5 79.666 -15 96.999c-12 22 -40 35.667 -84 41c-23.333 2.66699 -48 4.33398 -74 5.00098v76c116.667 -10 219.334 -15 308.001 -15
s191.334 5 308.001 15v-76c-58.667 -1.33301 -99.667 -6.66602 -123 -15.999c-24.667 -10 -39.667 -29.667 -45 -59c-3.33301 -14.667 -5 -37.334 -5 -68.001v-967c0 -43.333 7 -71.666 21 -84.999c16.667 -15.333 49 -23 97 -23h107c76 0.666992 133.333 15.667 172 45
c39.333 28.667 77.333 81 114 157c13.333 29.333 25.666 62.333 36.999 99h65z" />
    <glyph glyph-name="M" unicode="M" horiz-adv-x="1809" 
d="M324 1207l-20.0039 -993.997c0.666992 -34 1.66699 -57 3 -69c8 -38 36.667 -61 86 -69c20.667 -2.66699 48.667 -4.66699 84 -6v-76c-78.667 5.33301 -146.334 8 -203.001 8c-55.333 0 -129.666 -2.66699 -222.999 -8v76c59.333 2 100 7.33301 122 16
c24.667 10 39.667 29.667 45 59c2.66699 11.333 4.66699 34.333 6 69l20 938c0.666992 32.667 -1.66602 58.167 -6.99902 76.5s-14.333 32.166 -27 41.499c-22 15.333 -68.333 23.666 -139 24.999v78c76.667 -6.66699 152.667 -10 228 -10c80 0 160.667 3.33301 242 10
l370 -898l374 898c78 -6.66699 155.667 -10 233 -10c72.667 0 146 3.33301 220 10v-76c-60.667 -2.66699 -101.667 -8.66699 -123 -18c-23.333 -10 -38.666 -29 -45.999 -57c-1.33301 -8.66699 -2.66602 -28 -3.99902 -58v-10l17 -940
c1.33301 -48 6.66602 -80.667 15.999 -98c12 -22 39.667 -35.667 83 -41c21.333 -2.66699 46 -4.33398 74 -5.00098v-76c-117.333 10 -219.666 15 -306.999 15s-190.333 -5 -309 -15v76c77.333 2 126 12.667 146 32c16.667 17.333 25.334 43.666 26.001 78.999
c0.666992 20 1 31 1 33l-17 983l-373 -909c-27.333 -70 -56 -152.333 -86 -247h-43c-22 66.667 -47.667 138.334 -77 215.001l-23 60z" />
    <glyph glyph-name="N" unicode="N" horiz-adv-x="1416" 
d="M1195 -35h-47c-44.667 75.333 -109 170.666 -193 285.999l-49 66l-601 808v-913c0 -47.333 5 -79.666 15 -96.999c12 -22 40 -35.667 84 -41c22 -2.66699 46.667 -4.33398 74 -5.00098v-76c-80.667 5.33301 -151.667 8 -213 8c-60.667 0 -131 -2.66699 -211 -8v76
c59.333 2 100.333 7.33301 123 16c24.667 10.667 39.667 30.334 45 59.001c3.33301 14.667 5 37.334 5 68.001v1005c-28 25.333 -53 43.666 -75 54.999c-26.667 13.333 -60 21.333 -100 24v76c74 -4.66699 139.667 -7 197 -7s123.333 2.33301 198 7l670 -891v672
c-0.666992 48 -5.66699 80.333 -15 97c-16 28.667 -68.667 44 -158 46v76c78 -4.66699 149 -7 213 -7s134.333 2.33301 211 7v-76c-58.667 -1.33301 -99.334 -6.66602 -122.001 -15.999c-25.333 -10 -40.666 -29.667 -45.999 -59c-3.33301 -14.667 -5 -37.334 -5 -68.001
v-1188z" />
    <glyph glyph-name="O" unicode="O" horiz-adv-x="1368" 
d="M693 1398c119.333 0 228.333 -33.3311 327 -99.998c177.333 -119.333 266 -324.333 266 -615c0 -204.667 -47 -370.334 -141 -497.001c-52.667 -70.667 -118.667 -124.834 -198 -162.501s-167.666 -56.5 -264.999 -56.5c-96.667 0 -184.834 19 -264.501 57
s-144.834 92 -195.501 162c-92.667 128.667 -139 292.667 -139 492c0 212.667 49.667 383 149 511c54.667 70.667 124.334 124 209.001 160c77.333 32.667 161.333 49 252 49zM689 1333c-78.667 0 -145.999 -35 -201.999 -105c-82 -102 -123 -279.667 -123 -533
c0 -170 17.667 -315.333 53 -436c20.667 -70.667 55.334 -127.334 104.001 -170.001c43.333 -38 97.666 -57 162.999 -57c93.333 0 166.666 40.333 219.999 121c67.333 102.667 101 281.334 101 536.001c0 184 -18.333 329.667 -55 437c-46.667 138 -133.667 207 -261 207z
" />
    <glyph glyph-name="P" unicode="P" horiz-adv-x="1207" 
d="M497 581v-368.999c0.666992 -47.333 5.66699 -79.666 15 -96.999c12 -22 40 -35.667 84 -41c21.333 -2.66699 46 -4.33398 74 -5.00098v-76c-118 10 -220.667 15 -308 15s-190 -5 -308 -15v76c59.333 2 100.333 7.33301 123 16c24 10.667 39 30.334 45 59.001
c3.33301 15.333 5 38 5 68v934c0 47.333 -5 79.666 -15 96.999c-12 22.667 -40 36.667 -84 42c-23.333 2.66699 -48 4 -74 4v76h599c78.667 0 142.334 -5 191.001 -15s93 -27.333 133 -52c53.333 -32.667 95.666 -79 126.999 -139c30 -56.667 45 -117.334 45 -182.001
c0 -90 -27.333 -171 -82 -243c-78.667 -102 -206.667 -153 -384 -153h-186zM497 658.001h89c100 0 172.667 24.333 218 73c50 53.333 75 133 75 239c0 108 -23.667 189.333 -71 244c-44 49.333 -116 74 -216 74h-95v-630z" />
    <glyph glyph-name="Q" unicode="Q" horiz-adv-x="1348" 
d="M1447 63l-0.000976562 -86.002h-137c-74.667 0.666992 -134.667 12.334 -180 35.001c-27.333 14.667 -63 40.334 -107 77.001c-101.333 -81.333 -219 -122 -353 -122c-93.333 0 -179.333 19.167 -258 57.5s-142.667 92.166 -192 161.499
c-91.333 128.667 -137 293.334 -137 494.001c0 211.333 48.667 380.666 146 507.999c53.333 69.333 122 123 206 161c74 32.667 153.667 49 239 49c123.333 0 233.333 -33 330 -99c99.333 -68 170.333 -166.333 213 -295c32 -96 48 -202.667 48 -320
c0 -147.333 -27.333 -280.333 -82 -399c66.667 -103.333 111 -164 133 -182c32.667 -25.333 76.334 -38.666 131.001 -39.999zM678.999 1333c-79.333 0 -146.667 -34.998 -202 -104.998c-82 -102 -123 -279.667 -123 -533c0 -170 17.667 -315.333 53 -436
c20.667 -70.667 55.334 -127.334 104.001 -170.001c42.667 -38 96.667 -57 162 -57c94 0 167.333 40.333 220 121c67.333 102.667 101 281.667 101 537c0 183.333 -18.333 328.666 -55 435.999c-46.667 138 -133.334 207 -260.001 207z" />
    <glyph glyph-name="R" unicode="R" horiz-adv-x="1314" 
d="M490 616v-403.999c0 -47.333 5 -79.666 15 -96.999c12 -22 40 -35.667 84 -41c21.333 -2.66699 46 -4.33398 74 -5.00098v-76c-108 10 -207 15 -297 15s-194 -5 -312 -15v76c59.333 2 100.333 7.33301 123 16c24 10.667 39 30.334 45 59.001c3.33301 15.333 5 38 5 68
v934c0 47.333 -5 79.666 -15 96.999c-12 22.667 -40 36.667 -84 42c-23.333 2.66699 -48 4 -74 4v76h602c78.667 0 142.167 -5.16699 190.5 -15.5s92.5 -27.833 132.5 -52.5c52 -33.333 93.333 -80 124 -140c26 -52 39 -107 39 -165c0 -83.333 -25.667 -155.333 -77 -216
c-48.667 -58.667 -132 -102 -250 -130c40 -13.333 73.333 -30.333 100 -51c27.333 -20 59 -68 95 -144l112 -242c32.667 -70.667 63.667 -112.334 93 -125.001c21.333 -9.33301 47.333 -14.333 78 -15v-76c-68 4 -125.333 6 -172 6c-46 0 -103 -2 -171 -6
c-19.333 30.667 -40 72 -62 124l-144 332c-32.667 73.333 -60.334 118 -83.001 134c-31.333 22 -71.666 33 -120.999 33h-50zM497 693.001l106.001 -0.000976562c89.333 0 154.666 21.667 195.999 65c48.667 52 73 128.333 73 229c0 94.667 -20.333 169.334 -61 224.001
c-38.667 51.333 -103 77 -193 77h-121v-595z" />
    <glyph glyph-name="S" unicode="S" horiz-adv-x="1134" 
d="M115 447l71 -0.000976562c14 -94 39 -169.667 75 -227c33.333 -52.667 79.666 -93.667 138.999 -123c47.333 -24 96 -36 146 -36c80 0 145.667 25.667 197 77c43.333 44 65 96 65 156c0 76 -35 141 -105 195c-33.333 25.333 -97.333 64 -192 116
c-142.667 78.667 -234.667 139.334 -276 182.001c-65.333 66.667 -98 147.334 -98 242.001c0 117.333 45.667 208 137 272c82 57.333 181 86 297 86c89.333 0 166.333 -20.333 231 -61c21.333 -13.333 45.333 -32 72 -56l69 131h44v-422h-71c-13.333 80 -36.333 146 -69 198
c-56 88.667 -135.667 133 -239 133c-72 0 -129.667 -21.333 -173 -64c-41.333 -40.667 -62 -91 -62 -151c0 -54.667 22.667 -100.667 68 -138c22.667 -18.667 66.667 -45.667 132 -81c121.333 -66.667 210.333 -117.667 267 -153c66.667 -42 115 -85.333 145 -130
c38.667 -58 58 -126.333 58 -205c0 -118.667 -41.333 -217.334 -124 -296.001c-79.333 -76.667 -182.333 -115 -309 -115c-105.333 0 -201 25.667 -287 77c-23.333 14 -50.666 33 -81.999 57l-82 -156h-44v492z" />
    <glyph glyph-name="T" unicode="T" horiz-adv-x="1196" 
d="M733 1288l-0.000976562 -1076c0 -47.333 5 -79.666 15 -96.999c12 -22 40 -35.667 84 -41c21.333 -2.66699 46 -4.33398 74 -5.00098v-76c-107.333 10 -210 15 -308 15s-200.667 -5 -308 -15v76c59.333 2 100.333 7.33301 123 16c24.667 10.667 39.667 30.334 45 59.001
c3.33301 14.667 5 37.334 5 68.001v1076h-61c-94.667 0 -166.667 -33.333 -216 -100c-32 -44.667 -57.667 -111.334 -77 -200.001h-71l65 377h991l65 -377h-70c-23.333 102 -53.666 174.333 -90.999 217c-47.333 54.667 -114.333 82.334 -201 83.001h-64z" />
    <glyph glyph-name="U" unicode="U" horiz-adv-x="1416" 
d="M1201 1153l-0.00195312 -666.002c0 -100 -10.333 -176.667 -31 -230c-36.667 -96.667 -98.334 -168.667 -185.001 -216c-76.667 -42.667 -169 -64 -277 -64c-169.333 0 -299.666 51.667 -390.999 155c-48.667 56 -79 121 -91 195c-6.66699 42.667 -10 89.334 -10 140.001
v686c0 47.333 -5 79.666 -15 96.999c-12 22 -40 35.667 -84 41c-23.333 2.66699 -48 4.33398 -74 5.00098v76c116.667 -10 219.334 -15 308.001 -15s191.334 5 308.001 15v-76c-58.667 -1.33301 -99.667 -6.66602 -123 -15.999c-24.667 -10 -39.667 -29.667 -45 -59
c-3.33301 -14.667 -5 -37.334 -5 -68.001v-737c0 -98.667 18.667 -173 56 -223c48.667 -64.667 128.667 -97 240 -97c66.667 0 126.334 12.833 179.001 38.5s91.667 61.167 117 106.5c30 54 45 142.333 45 265v647c-0.666992 47.333 -5.66699 79.666 -15 96.999
c-12 22 -40 35.667 -84 41c-23.333 2.66699 -48 4.33398 -74 5.00098v76c78 -4.66699 149 -7 213 -7c63.333 0 133.666 2.33301 210.999 7v-76c-58.667 -1.33301 -99.667 -6.66602 -123 -15.999c-24.667 -10 -39.667 -29.667 -45 -59c-3.33301 -13.333 -5 -36 -5 -68z" />
    <glyph glyph-name="V" unicode="V" horiz-adv-x="1358" 
d="M701 -32l-55.999 0.000976562c-16 52 -50.667 145.667 -104 281l-336 874c-32.667 82 -62.334 130.667 -89.001 146c-23.333 14 -55.333 23 -96 27v76c101.333 -10 200.333 -15 297 -15s195.667 5 297 15v-76c-35.333 -2 -63 -5 -83 -9c-40 -8 -60 -26.667 -60 -56
c0 -16.667 9 -49.334 27 -98.001l276 -750l283 752c19.333 50.667 29 84.334 29 101.001c0 25.333 -15.333 42 -46 50c-17.333 4.66699 -47 8 -89 10v76c72.667 -5.33301 136.667 -8 192 -8s120 2.66699 194 8v-76c-40.667 -4.66699 -75 -15.334 -103 -32.001
c-34 -22 -61.667 -60.333 -83 -115l-355 -914c-25.333 -63.333 -57 -152.333 -95 -267z" />
    <glyph glyph-name="W" unicode="W" horiz-adv-x="1886" 
d="M606 -32l-50.999 -0.00195312c-12 62.667 -29 134.667 -51 216l-281 940c-22.667 72.667 -45.334 117.334 -68.001 134.001c-26.667 20.667 -65.667 33.334 -117 38.001v76c99.333 -10 196 -15 290 -15c94.667 0 191.334 5 290.001 15v-76
c-39.333 -4 -65.666 -7.33301 -78.999 -10c-38.667 -8.66699 -58 -29.667 -58 -63c0 -17.333 6 -46.666 18 -87.999l189 -646l338 929h47l319 -935l198 640c14 44.667 21 79 21 103c0 31.333 -15 51.333 -45 60c-15.333 4.66699 -43.333 8 -84 10v76
c73.333 -5.33301 137 -8 191 -8c53.333 0 117 2.66699 191 8v-76c-56.667 -5.33301 -95.334 -16.333 -116.001 -33c-26.667 -22.667 -49.334 -63.334 -68.001 -122.001l-290 -932c-17.333 -56.667 -37.666 -137 -60.999 -241h-51c-14.667 69.333 -33.334 137 -56.001 203
l-274 802l-272 -756c-26 -73.333 -49.333 -156.333 -70 -249z" />
    <glyph glyph-name="X" unicode="X" horiz-adv-x="1357" 
d="M31 -7l0.000976562 76.0039c52 4 96 15 132 33c48.667 23.333 91.667 61.333 129 114l283 406l-284 525c-24.667 45.333 -45 75.666 -61 90.999c-34 34 -85.333 53.333 -154 58v76c102 -10 204 -15 306 -15c102.667 0 205 5 307 15v-76c-38 -2 -65.333 -4.66699 -82 -8
c-35.333 -6 -53 -22.667 -53 -50c0 -16.667 7.66699 -39.334 23 -68.001l165 -307l184 262c40 57.333 60 96.666 60 117.999c0 23.333 -14.667 38.333 -44 45c-14.667 3.33301 -41.334 6 -80.001 8v76c77.333 -5.33301 147.666 -8 210.999 -8s133.666 2.66699 210.999 8v-76
c-46 -2.66699 -84 -10 -114 -22c-39.333 -16.667 -78.333 -52.334 -117 -107.001l-267 -381l279 -522c38.667 -70.667 68.334 -116 89.001 -136c32.667 -32.667 77 -51.667 133 -57c1.33301 0 14 -0.666992 38 -2v-76c-111.333 10 -216.666 15 -315.999 15
c-98.667 0 -204 -5 -316 -15v76c42 2.66699 70.333 5.33398 85 8.00098c30.667 6 46 22.667 46 50c0 21.333 -11 52 -33 92l-176 326l-228 -329c-28.667 -42 -43 -72.333 -43 -91c0 -26 15.333 -42 46 -48c14 -2.66699 38.333 -5.33398 73 -8.00098v-76
c-83.333 5.33301 -155.333 8 -216 8s-132.667 -2.66699 -216 -8z" />
    <glyph glyph-name="Y" unicode="Y" horiz-adv-x="1281" 
d="M506 588l-267.999 537.997c-33.333 66 -65.333 111 -96 135c-27.333 18.667 -64.333 30.334 -111 35.001v76c99.333 -10 198.666 -15 297.999 -15c98.667 0 198 5 298 15v-76c-32.667 -1.33301 -57.667 -3.66602 -75 -6.99902c-40 -7.33301 -60 -25.333 -60 -54
c0 -18 9.33301 -45.333 28 -82l225 -450l219 435c22.667 45.333 34 79.333 34 102c0 24.667 -15.667 40.667 -47 48c-16 3.33301 -42.667 6 -80 8v76c74.667 -5.33301 139.334 -8 194.001 -8c55.333 0 120.333 2.66699 195 8v-76
c-46.667 -4.66699 -82.334 -13.334 -107.001 -26.001c-29.333 -15.333 -57.333 -49.333 -84 -102l-293 -580v-376c0.666992 -47.333 5.66699 -79.666 15 -96.999c12 -22 40 -35.667 84 -41c21.333 -2.66699 46 -4.33398 74 -5.00098v-76c-119.333 10 -222.333 15 -309 15
s-189 -5 -307 -15v76c59.333 2 100.333 7.33301 123 16c24.667 10.667 39.667 30.334 45 59.001c3.33301 14.667 5 37.334 5 68.001v376z" />
    <glyph glyph-name="Z" unicode="Z" horiz-adv-x="1177" 
d="M49 0l695.001 1288h-199c-67.333 0 -120 -8.66699 -158 -26c-76 -32 -138.333 -116.333 -187 -253h-71l61 356h893l-694 -1288h313c72 0.666992 125.667 10.334 161 29.001c54 29.333 102.333 87 145 173c17.333 35.333 33.666 77 48.999 125h71l-69 -404h-1010z" />
    <glyph glyph-name="bracketleft" unicode="[" horiz-adv-x="697" 
d="M639 1304h-223v-1641h223v-61h-419v1763h419v-61z" />
    <glyph glyph-name="backslash" unicode="\" horiz-adv-x="911" 
d="M1094 -398h-172l-902 1763h172z" />
    <glyph glyph-name="bracketright" unicode="]" horiz-adv-x="697" 
d="M57 -337h223v1641h-223v61h419v-1763h-419v61z" />
    <glyph glyph-name="asciicircum" unicode="^" 
d="M1079 579h-98l-380 589l-395 -589h-261l576 855h15z" />
    <glyph glyph-name="underscore" unicode="_" 
d="M35 -183h954v-113h-954v113z" />
    <glyph glyph-name="grave" unicode="`" 
d="M639 1123h-90l-425 286h393z" />
    <glyph glyph-name="a" unicode="a" horiz-adv-x="1020" 
d="M989 61l0.00292969 -58.9971c-56.667 -14.667 -107.334 -22 -152.001 -22c-68.667 0 -120.334 19.667 -155.001 59c-24 27.333 -39.667 68.666 -47 123.999c-62.667 -123.333 -156.334 -185 -281.001 -185c-82 0 -150.333 22.333 -205 67
c-60.667 49.333 -91 115.333 -91 198c0 189.333 182 308.666 546 357.999v138c0 60.667 -8.33301 103.334 -25 128.001c-26 38.667 -67.667 58 -125 58c-36 0 -68.333 -8.66699 -97 -26c-28 -16.667 -42 -37.334 -42 -62.001c0 -8 1 -17 3 -27c5.33301 -30 8 -51 8 -63
c0 -71.333 -35.667 -107 -107 -107c-64 0 -96 31.667 -96 95c0 68 33.333 126.333 100 175c71.333 52.667 160.333 79 267 79c146 0 251.333 -44.333 316 -133c27.333 -38.667 44.666 -95.334 51.999 -170.001c3.33301 -32.667 5 -79.667 5 -141v-354
c0 -46.667 3 -80 9 -100c8 -26.667 28.333 -40 61 -40c14.667 0 33.334 3.33301 56.001 10zM604.003 544.003c-78 -15.333 -137 -33.999 -177 -55.999c-73.333 -40.667 -110 -110.334 -110 -209.001c0 -58 11.667 -103.667 35 -137c24 -35.333 58.333 -53 103 -53
c32.667 0 61 9.5 85 28.5s40.667 45.5 50 79.5c9.33301 30.667 14 81 14 151v196z" />
    <glyph glyph-name="b" unicode="b" horiz-adv-x="1120" 
d="M166 -23l0.00195312 1154c0 40.667 -1.5 69.5 -4.5 86.5s-8.5 29.5 -16.5 37.5c-16 15.333 -57.333 22.666 -124 21.999v54c129.333 8.66699 262.666 32.667 399.999 72v-508c28.667 28 53.667 48 75 60c40.667 22.667 89 34 145 34c121.333 0 219 -45.667 293 -137
c80 -98.667 120 -221 120 -367c0 -145.333 -42 -267.333 -126 -366c-80.667 -94.667 -184 -142 -310 -142c-130.667 0 -218.334 59 -263.001 177l-136 -177h-53zM606.002 932.001c-48 0 -88 -22 -120 -66c-44.667 -62.667 -67 -188.667 -67 -378
c0 -136.667 11.667 -245.667 35 -327c24.667 -84.667 73.334 -127 146.001 -127c80 0 132.333 48.333 157 145c22 85.333 33 192 33 320c0 133.333 -11.667 236.333 -35 309c-26.667 82.667 -76.334 124 -149.001 124z" />
    <glyph glyph-name="c" unicode="c" horiz-adv-x="953" 
d="M870 1012v-382.999h-62c-10 68.667 -24.667 124 -44 166s-46.166 75 -80.499 99s-72.166 36 -113.499 36c-150 0 -225 -150 -225 -450c0 -284 73.333 -426 220 -426c80 0 142.667 38 188 114c22 38 37 86 45 144h86c-11.333 -76.667 -32 -138.334 -62 -185.001
c-30.667 -48.667 -72.834 -86.5 -126.501 -113.5s-113.167 -40.5 -178.5 -40.5c-143.333 0 -256.333 56.333 -339 169c-65.333 89.333 -98 201.333 -98 336c0 145.333 38.667 266 116 362c85.333 104.667 196 157 332 157c93.333 0 172.666 -31.333 237.999 -94l63 109h41z
" />
    <glyph glyph-name="d" unicode="d" horiz-adv-x="1122" 
d="M1114 91l0.00195312 -53.999c-83.333 -9.33301 -139 -17 -167 -23c-41.333 -8 -100.333 -23.333 -177 -46c-18 52 -29.667 94.667 -35 128c-20.667 -32.667 -40.667 -58 -60 -76c-46.667 -43.333 -107.334 -65 -182.001 -65c-122.667 0 -223.334 46.667 -302.001 140
c-83.333 98 -125 221 -125 369c0 144 40.667 265.333 122 364c75.333 92 172 138 290 138c56.667 0 105.334 -11.333 146.001 -34c21.333 -12 46.333 -32.333 75 -61v260c-0.666992 68.667 -7.66699 110 -21 124c-16 15.333 -57 22.666 -123 21.999v54c136 10 270 34 402 72
v-1179c1.33301 -60 9.66602 -96.667 24.999 -110c17.333 -15.333 61.333 -23 132 -23zM508.002 909.001c-69.333 0 -117 -41.332 -143 -123.999c-23.333 -74.667 -35 -179.667 -35 -315c0 -130.667 10.667 -235 32 -313c12.667 -45.333 33 -80.833 61 -106.5
s60.667 -38.5 98 -38.5c32.667 0 62 11.333 88 34s44.667 53.667 56 93c24.667 83.333 37 191.666 37 324.999c0 135.333 -12 241 -36 317c-27.333 85.333 -80 128 -158 128z" />
    <glyph glyph-name="e" unicode="e" horiz-adv-x="983" 
d="M837 305h80c-14.667 -85.333 -46 -155.333 -94 -210c-71.333 -81.333 -172 -122 -302 -122c-140 0 -251.667 48.333 -335 145c-80 92.667 -120 214.667 -120 366c0 159.333 42 285.333 126 378c81.333 89.333 186 134 314 134c95.333 0 178.333 -27.333 249 -82
c80 -61.333 130 -161.333 150 -300c6 -38 10 -81.667 12 -131h-586v-35c0 -107.333 14.667 -197 44 -269c34 -83.333 102.333 -125 205 -125c90 0 158.667 37.667 206 113c24.667 39.333 41.667 85.333 51 138zM655 558c-2 84 -8.33203 155 -18.999 213
c-20.667 112.667 -65.334 169 -134.001 169c-76 0 -126.667 -65.333 -152 -196c-9.33301 -48.667 -15 -110.667 -17 -186h322z" />
    <glyph glyph-name="f" unicode="f" horiz-adv-x="670" 
d="M444 967l233 0.000976562v-79h-233v-712c0 -55.333 9 -90 27 -104c16.667 -11.333 56.667 -18.333 120 -21v-58c-112 8.66699 -204 13 -276 13s-164 -4.33301 -276 -13v58c64 2.66699 104 9.66699 120 21c18 14 27 48.667 27 104v712h-146v76
c60.667 0.666992 101.667 6.33398 123 17.001c17.333 9.33301 29.333 27.666 36 54.999c2 9.33301 4.66699 30.666 8 63.999c7.33301 66 16 112.333 26 139c20 56 57 99 111 129c48 26.667 103.333 40 166 40c77.333 0 141 -18.667 191 -56c42 -31.333 63 -74.333 63 -129
c0 -63.333 -31.333 -95 -94 -95c-63.333 0 -95 23 -95 69c0 10 2.33301 28 7 54c2.66699 14 4 26.667 4 38c0 16.667 -4.66699 30.667 -14 42c-10 13.333 -23.333 20 -40 20c-58.667 0 -88 -63 -88 -189v-195z" />
    <glyph glyph-name="g" unicode="g" horiz-adv-x="1031" 
d="M702 933h278.001v-104h-176c36.667 -50.667 55 -110.667 55 -180c0 -126 -55 -217.667 -165 -275c-35.333 -18.667 -81 -32.334 -137 -41.001c-13.333 -2 -49 -5.66699 -107 -11c-56 -6 -96.667 -12.667 -122 -20c-36 -10 -54 -29.333 -54 -58s16 -46 48 -52
c16 -3.33301 67.667 -8 155 -14c134 -8.66699 229.333 -20 286 -34c64 -15.333 114.333 -46 151 -92c34 -42.667 51 -92.667 51 -150c0 -97.333 -45 -176 -135 -236c-92 -60.667 -208.333 -91 -349 -91c-124.667 0 -228 22.333 -310 67
c-78.667 42.667 -118 106.334 -118 191.001c0 90.667 49 155.334 147 194.001c-26.667 17.333 -46.334 32.666 -59.001 45.999c-27.333 30 -41 66 -41 108c0 84.667 65.667 146.667 197 186c-132 60 -198 157.333 -198 292c0 96 29.667 173.333 89 232
c66 65.333 162.667 98 290 98c86 0 160.667 -18.667 224 -56zM479.001 933c-98 0 -147.001 -92.668 -147.001 -278.001c0 -174.667 50 -262 150 -262c96 0 144 92.667 144 278c0 74.667 -9.66699 135.334 -29 182.001c-21.333 53.333 -60.666 80 -117.999 80zM381 -30.001
c-82.667 0 -142 -11.333 -178 -34c-34 -20.667 -51 -53 -51 -97c0 -50.667 23 -90.667 69 -120c69.333 -43.333 155.666 -65 258.999 -65c82.667 0 152.334 14 209.001 42c51.333 26 77 66 77 120c0 64.667 -41.667 107.667 -125 129c-63.333 16.667 -150 25 -260 25z" />
    <glyph glyph-name="h" unicode="h" horiz-adv-x="1205" 
d="M444 1403l0.000976562 -532.999c64.667 79.333 153.334 119 266.001 119c118 0 204.333 -41 259 -123c34 -50 51 -123 51 -219v-471c0 -55.333 9 -90 27 -104c16 -11.333 56 -18.333 120 -21v-58c-92 8 -176.333 12 -253 12c-80 0 -163.333 -4 -250 -12v55
c45.333 1.33301 73.666 11 84.999 29c8.66699 12.667 13 41.667 13 87v516c0 64 -8 109 -24 135c-26 43.333 -68.333 65 -127 65c-61.333 0 -107.666 -23.333 -138.999 -70c-18.667 -28.667 -28 -73.667 -28 -135v-511c0 -45.333 4.33301 -74.333 13 -87
c11.333 -18 39.666 -27.667 84.999 -29v-55c-87.333 8 -171.333 12 -252 12c-76 0 -160 -4 -252 -12v58c64 2.66699 104 9.66699 120 21c18 14 27 48.667 27 104v955c0 40.667 -1.5 69.5 -4.5 86.5s-8.5 29.5 -16.5 37.5c-16 15.333 -57 22.666 -123 21.999v54
c133.333 9.33301 267.666 33.333 402.999 72z" />
    <glyph glyph-name="i" unicode="i" horiz-adv-x="652" 
d="M457 1006l0.000976562 -830c0 -55.333 9 -90 27 -104c16 -11.333 56 -18.333 120 -21v-58c-112 8.66699 -204.333 13 -277 13c-71.333 0 -163.333 -4.33301 -276 -13v58c64 2.66699 104 9.66699 120 21c18 14 27 48.667 27 104v559c0 40.667 -1.5 69.5 -4.5 86.5
s-8.5 29.5 -16.5 37.5c-16 14.667 -57 22 -123 22v53c137.333 10.667 271.666 34.667 402.999 72zM318.001 1414c39.333 0 72.999 -15.333 100.999 -46s42 -68 42 -112c0 -44.667 -13.667 -82 -41 -112s-61.333 -45 -102 -45s-75 15.333 -103 46s-42 68 -42 112
c0 44.667 13.667 82 41 112c26.667 30 61.334 45 104.001 45z" />
    <glyph glyph-name="j" unicode="j" horiz-adv-x="629" 
d="M450 1006l-0.000976562 -969.001c0 -117.333 -15.333 -204.666 -46 -261.999c-66 -123.333 -196 -185 -390 -185c-11.333 0 -24.333 0.666992 -39 2v82c7.33301 -0.666992 13 -1 17 -1c59.333 0 105 12.667 137 38c28.667 22 47.334 56 56.001 102
c4.66699 26 7 65.333 7 118v804c-0.666992 68.667 -8 110 -22 124c-15.333 14.667 -56.333 22 -123 22v53c136.667 10.667 271 34.667 403 72zM310.999 1414c40 0 73.668 -15.333 101.001 -46c28 -30.667 42 -68 42 -112c0 -44.667 -13.667 -82 -41 -112
c-26.667 -30 -60.334 -45 -101.001 -45s-75 15.333 -103 46s-42 68 -42 112s13.667 81.333 41 112c26.667 30 61 45 103 45z" />
    <glyph glyph-name="k" unicode="k" horiz-adv-x="1172" 
d="M436 481l254.996 290c33.333 38.667 50 69 50 91c0 24.667 -18.667 40 -56 46c-19.333 3.33301 -42.666 6 -69.999 8v58c74.667 -8 149.334 -12 224.001 -12c76.667 0 164 4 262 12v-58c-52.667 -6 -92.667 -15.333 -120 -28c-33.333 -15.333 -70 -44.666 -110 -87.999
l-159 -176l264 -428c36.667 -60 66.334 -98.333 89.001 -115c24 -16.667 57.333 -26.667 100 -30v-58c-78.667 4.66699 -139 7 -181 7c-44 0 -99.333 -2.33301 -166 -7l-263 485l-124 -133v-169c0 -55.333 9 -90 27 -104c16 -11.333 56 -18.333 120 -21v-58
c-103.333 8.66699 -194 13 -272 13s-167.333 -4.33301 -268 -13v58c64 2.66699 104 9.66699 120 21c18 14 27 48.667 27 104v955c0 40.667 -1.5 69.5 -4.5 86.5s-8.5 29.5 -16.5 37.5c-16 15.333 -57 22.666 -123 21.999v54c150.667 15.333 282.334 39.333 395.001 72v-922z
" />
    <glyph glyph-name="l" unicode="l" horiz-adv-x="630" 
d="M445 1403l0.000976562 -1227c0 -55.333 9 -90 27 -104c16 -11.333 56 -18.333 120 -21v-58c-112 8.66699 -204.333 13 -277 13c-71.333 0 -163.333 -4.33301 -276 -13v58c64 2.66699 104 9.66699 120 21c18 14 27 48.667 27 104v955c0 40.667 -1.5 69.5 -4.5 86.5
s-8.5 29.5 -16.5 37.5c-16 15.333 -57 22.666 -123 21.999v54c133.333 9.33301 267.666 33.333 402.999 72z" />
    <glyph glyph-name="m" unicode="m" horiz-adv-x="1740" 
d="M387 992c21.333 -52.667 34.3301 -108.002 38.9971 -166.002c30.667 44 60.334 77.333 89.001 100c53.333 42 116 63 188 63c122.667 0 210.334 -53.667 263.001 -161c27.333 43.333 54.333 76 81 98c50.667 42 117.667 63 201 63c201.333 0 302 -102 302 -306v-507
c0 -55.333 9.33301 -90 28 -104c16.667 -10.667 58 -17.667 124 -21v-58c-93.333 8 -179 12 -257 12c-82 0 -167 -4 -255 -12v55c47.333 1.33301 77 11 89 29c8.66699 13.333 13 42.333 13 87v525c0 63.333 -8 107.333 -24 132c-22.667 36 -60 54 -112 54
c-60.667 0 -103.667 -23 -129 -69c-14 -24.667 -21 -64 -21 -118v-524c0 -45.333 4.33301 -74.333 13 -87c12 -18 41.667 -27.667 89 -29v-55c-89.333 7.33301 -166.333 11 -231 11c-65.333 0 -142.666 -3.66699 -231.999 -11v55c47.333 1.33301 77 11 89 29
c8.66699 14 13 43 13 87v529c0 64.667 -8.33301 109 -25 133c-24 32.667 -60 49 -108 49c-59.333 0 -103 -22 -131 -66c-14.667 -24 -22 -65.333 -22 -124v-521c0 -45.333 4.33301 -74.333 13 -87c12.667 -18 43.334 -27.667 92.001 -29v-55
c-89.333 8 -174.666 12 -255.999 12c-78 0 -164 -4 -258 -12v58c65.333 2.66699 106.333 9.66699 123 21c18 14 27 48.667 27 104v556c-0.666992 40 -1.33398 66.333 -2.00098 79c-2 20.667 -7.83301 35.834 -17.5 45.501s-24.834 15.834 -45.501 18.501
c-20 2 -49.333 3 -88 3v54c141.333 14 254 34 338 60z" />
    <glyph glyph-name="n" unicode="n" horiz-adv-x="1218" 
d="M382 992c22.667 -50.667 36.0029 -108.002 40.0029 -172.002c29.333 45.333 59.666 80 90.999 104c58 43.333 128 65 210 65c118.667 0 205.334 -41 260.001 -123c34 -50.667 51 -123.667 51 -219v-471c0 -55.333 9 -90 27 -104c16 -11.333 56 -18.333 120 -21v-58
c-92 8 -176.333 12 -253 12c-80 0 -163.333 -4 -250 -12v55c45.333 1.33301 73.666 11 84.999 29c8 12.667 12.333 41.667 13 87v516c0 64 -8 109.333 -24 136c-26.667 42.667 -69.334 64 -128.001 64c-61.333 0 -107.666 -23.333 -138.999 -70
c-18.667 -28.667 -28 -73.667 -28 -135v-511c0 -45.333 4.33301 -74.333 13 -87c11.333 -18 39.666 -27.667 84.999 -29v-55c-87.333 8 -171 12 -251 12c-76 0 -160 -4 -252 -12v58c63.333 3.33301 103.333 10.333 120 21c18 13.333 27 48 27 104v556
c-0.666992 40 -1.33398 66.333 -2.00098 79c-2 20.667 -7.66699 35.834 -17 45.501s-24.333 15.834 -45 18.501c-19.333 2 -48 3 -86 3v54c134.667 13.333 245.667 33.333 333 60z" />
    <glyph glyph-name="o" unicode="o" horiz-adv-x="1027" 
d="M528 996c133.333 0 242 -54.667 326 -164c71.333 -92.667 107 -207.334 107 -344.001c0 -136 -39 -253 -117 -351c-88 -109.333 -198 -164 -330 -164c-133.333 0 -243 51 -329 153c-79.333 94.667 -119 212.334 -119 353.001s39.667 259 119 355
c88.667 108 203 162 343 162zM514 939c-122.667 0 -184 -152.667 -184 -458c0 -125.333 10.667 -229 32 -311c24.667 -93.333 74.667 -140 150 -140c80.667 0 133 50.667 157 152c18.667 77.333 28 172.666 28 285.999c0 146.667 -11.333 259.334 -34 338.001
c-26 88.667 -75.667 133 -149 133z" />
    <glyph glyph-name="p" unicode="p" horiz-adv-x="1129" 
d="M359 990c16 -46 27.668 -93.332 35.001 -141.999c26 37.333 49.667 65 71 83c46 38.667 103.333 58 172 58c117.333 0 217.333 -47 300 -141c84 -96.667 126 -218.667 126 -366c0 -146 -40 -268.333 -120 -367c-74 -91.333 -171.333 -137 -292 -137
c-56.667 0 -105.334 11.333 -146.001 34c-22 12 -47 32 -75 60v-296c-0.666992 -54 8.33301 -88.333 27 -103c16 -11.333 56 -18.333 120 -21v-58c-114 8.66699 -206 13 -276 13s-162 -4.33301 -276 -13v58c63.333 2.66699 103.333 9.66699 120 21
c18 13.333 27 47.666 27 102.999v957c0 40 -1.5 68.667 -4.5 86s-8.5 30 -16.5 38c-12.667 12.667 -39 20 -79 22c-12 0 -28.667 0.333008 -50 1v54c106 7.33301 218.333 26 337 56zM608.001 932.001c-44 0 -81.333 -20.666 -112 -61.999c-45.333 -61.333 -68 -192 -68 -392
c0 -132 12 -237 36 -315c12.667 -40 32.5 -71.333 59.5 -94s58.5 -34 94.5 -34c71.333 0 120 41.333 146 124c23.333 75.333 35 175.666 35 300.999c0 137.333 -11 246.333 -33 327c-26 96.667 -78.667 145 -158 145z" />
    <glyph glyph-name="q" unicode="q" horiz-adv-x="1122" 
d="M699 72c-28 -28 -53.002 -48 -75.002 -60c-40.667 -22.667 -89.334 -34 -146.001 -34c-120.667 0 -218 45.667 -292 137c-80 98.667 -120 221 -120 367c0 147.333 42 269.333 126 366c82 94 183 141 303 141c73.333 0 133.333 -21.667 180 -65
c19.333 -18 39.333 -43.333 60 -76c8.66699 53.333 20.334 100.666 35.001 141.999c72.667 -18 129.334 -30.667 170.001 -38c28 -4.66699 81.333 -10.667 160 -18v-54c-37.333 -0.666992 -65 -2 -83 -4c-37.333 -5.33301 -58.333 -26 -63 -62
c-2 -15.333 -3.33301 -42.333 -4 -81v-957c0 -55.333 9 -89.666 27 -102.999c16.667 -11.333 56.667 -18.333 120 -21v-58c-102 8.66699 -190.333 13 -265 13c-73.333 0 -166.666 -4.33301 -279.999 -13v58c63.333 2.66699 103.333 9.66699 120 21c18 14 27 48.333 27 103
v296zM517.998 932c-50.667 0 -92.333 -25.333 -125 -76c-42 -65.333 -63 -197 -63 -395c0 -126 11.667 -226.667 35 -302c26 -82.667 74.667 -124 146 -124c36 0 67.667 11.333 95 34s47.333 54 60 94c24 78.667 36 182.334 36 311.001
c0 143.333 -11.667 253.666 -35 330.999c-26 84.667 -75.667 127 -149 127z" />
    <glyph glyph-name="r" unicode="r" horiz-adv-x="882" 
d="M379 993c17.333 -56 27.668 -113.667 31.001 -173c69.333 118 152.333 177 249 177c63.333 0 113.666 -20.667 150.999 -62c32.667 -36.667 49 -81.667 49 -135c0 -34 -9.33301 -60.333 -28 -79s-44.667 -28 -78 -28c-28 0 -51 6 -69 18c-20 13.333 -30 31.333 -30 54
c0 7.33301 1.33301 18.666 4 33.999c3.33301 20 5 36 5 48c0 33.333 -17.667 50 -53 50c-57.333 0 -100.666 -31.667 -129.999 -95c-15.333 -33.333 -23 -84.333 -23 -153v-473c-0.666992 -54.667 8.33301 -89.334 27 -104.001c16 -11.333 56 -18.333 120 -21v-58
c-112.667 8.66699 -204.667 13 -276 13c-72 0 -164 -4.33301 -276 -13v58c63.333 3.33301 103.333 10.333 120 21c18 13.333 27 48 27 104v568c-0.666992 40 -1.33398 66.333 -2.00098 79c-2 20.667 -7.66699 35.834 -17 45.501s-24.333 15.834 -45 18.501
c-19.333 2 -48 3 -86 3v54c124.667 6 234.667 22.333 330 49z" />
    <glyph glyph-name="s" unicode="s" horiz-adv-x="924" 
d="M122 -35l0.000976562 370.003h60c7.33301 -54.667 19.666 -101.334 36.999 -140.001c19.333 -44 47.666 -78.833 84.999 -104.5s78.333 -38.5 123 -38.5c50 0 92.333 15.667 127 47c34 30.667 51 67 51 109c0 42.667 -21.333 79.667 -64 111
c-24.667 17.333 -73.667 46.333 -147 87c-115.333 63.333 -187 111 -215 143c-39.333 44.667 -59 99.667 -59 165c0 84.667 32.333 151.667 97 201c66 49.333 147 74 243 74c85.333 0 162 -27 230 -81l50 108h39v-340h-60c-7.33301 53.333 -18.666 96.666 -33.999 129.999
c-33.333 72 -93 108 -179 108c-50 0 -92.667 -14.667 -128 -44c-32 -26.667 -48 -58.334 -48 -95.001c0 -32.667 15.333 -61.667 46 -87c16 -13.333 50.333 -33.333 103 -60c87.333 -44 151 -79 191 -105c49.333 -31.333 84 -59 104 -83c34 -39.333 51 -91.333 51 -156
c0 -87.333 -31.667 -160.333 -95 -219c-63.333 -58 -147.333 -87 -252 -87c-78.667 0 -146.667 19.333 -204 58c-16 10 -35 24.667 -57 44l-56 -115h-39z" />
    <glyph glyph-name="t" unicode="t" horiz-adv-x="690" 
d="M667 144l0.000976562 -83c-30.667 -19.333 -56.667 -34 -78 -44c-48.667 -23.333 -102 -35 -160 -35c-89.333 0 -156.5 23.833 -201.5 71.5s-67.5 118.834 -67.5 213.501v26l14 595h-120v76c79.333 2 145.333 30.667 198 86c51.333 55.333 87 128.666 107 219.999h79
l-5 -303h206v-79h-207l-4 -606c-0.666992 -48 1.66602 -88.667 6.99902 -122c4.66699 -27.333 17.667 -48.333 39 -63c14.667 -10.667 32.667 -16 54 -16c44 0 90.333 21 139 63z" />
    <glyph glyph-name="u" unicode="u" horiz-adv-x="1206" 
d="M428 1006l0.00292969 -704.001c0 -74.667 9.33301 -126 28 -154c27.333 -40.667 67.333 -61 120 -61c67.333 0 116 29 146 87c14.667 28.667 22 73.334 22 134.001v427c-0.666992 70 -7.33398 111.667 -20.001 125c-14 14 -55.333 21 -124 21v53
c137.333 10.667 271.666 34.667 402.999 72v-811c0 -39.333 6.66699 -65 20 -77c13.333 -11.333 36 -18 68 -20c32 -1.33301 53.667 -2.33301 65 -3v-57c-136.667 -14 -252.667 -37.333 -348 -70c-13.333 57.333 -22 118.666 -26 183.999
c-28.667 -49.333 -59 -85.666 -91 -108.999c-54.667 -40 -123 -60 -205 -60c-113.333 0 -199.333 39.333 -258 118c-38.667 51.333 -58 124.333 -58 219v415c-0.666992 70 -7.33398 111.667 -20.001 125c-14 14 -55.667 21 -125 21v53c136.667 10.667 271 34.667 403 72z
" />
    <glyph glyph-name="v" unicode="v" horiz-adv-x="1055" 
d="M548 -32l-48.998 -0.00195312c-18 49.333 -46.667 119.333 -86 210l-266 646c-16.667 38.667 -34.667 63.667 -54 75c-16.667 8.66699 -44.334 14.334 -83.001 17.001v58c114 -8.66699 201.667 -13 263 -13c62 0 149.667 4.33301 263 13v-58
c-30 -2 -50.667 -3.66699 -62 -5c-30.667 -2.66699 -46 -14.667 -46 -36c0 -8.66699 5.66699 -29.667 17 -63l166 -485l194 483c13.333 32.667 20 54.334 20 65.001c0 18.667 -15 30.667 -45 36c-12.667 2 -32.667 3.66699 -60 5v58c76 -5.33301 130.333 -8 163 -8
s86.667 2.66699 162 8v-58c-40 -4 -68.333 -10 -85 -18c-26.667 -14.667 -48.334 -41.667 -65.001 -81l-250 -610c-2 -5.33301 -9 -21 -21 -47c-32.667 -72.667 -58 -136.667 -76 -192z" />
    <glyph glyph-name="w" unicode="w" horiz-adv-x="1540" 
d="M794 651l-226.999 -548.001c-18.667 -46 -33.334 -91 -44.001 -135h-51c-7.33301 24 -21 65 -41 123l-261 696c-20.667 54.667 -41.667 89.667 -63 105c-19.333 12.667 -50.333 20.667 -93 24v58c116 -7.33301 201 -11 255 -11c54.667 0 139.667 3.66699 255 11v-58
c-30.667 -2.66699 -52.334 -5.66699 -65.001 -9c-27.333 -7.33301 -41 -20.666 -41 -39.999c0 -10 7.66699 -36.333 23 -79l158 -433l256 645h55l232 -646l158 443c11.333 31.333 17 54 17 68c0 24 -14.333 38.667 -43 44c-14 3.33301 -35 5.66602 -63 6.99902v58
c77.333 -5.33301 130.333 -8 159 -8c30 0 82.667 2.66699 158 8v-58c-45.333 -6.66699 -78.666 -19.667 -99.999 -39c-19.333 -18 -38 -51 -56 -99l-260 -689c-14 -38 -26.667 -78.333 -38 -121h-49c-11.333 40.667 -24.333 81.334 -39 122.001z" />
    <glyph glyph-name="x" unicode="x" horiz-adv-x="1105" 
d="M438 443l-223.996 373.998c-20.667 34 -42.667 58.667 -66 74c-25.333 14.667 -58.333 23 -99 25v58c103.333 -8 193 -12 269 -12s159.667 4 251 12v-58c-20.667 -2 -37.667 -4.33301 -51 -7c-27.333 -5.33301 -41 -16.666 -41 -33.999c0 -14.667 8.66699 -36.667 26 -66
l98 -166l144 176c20 24.667 30 44 30 58c0 17.333 -11.667 28.333 -35 33c-13.333 2.66699 -32 4.66699 -56 6v58c69.333 -5.33301 123.666 -8 162.999 -8s93.666 2.66699 162.999 8v-58c-68.667 -10 -124.667 -41.667 -168 -95l-200 -241l236 -395
c31.333 -51.333 62.666 -86.666 93.999 -105.999c25.333 -15.333 59 -24.666 101 -27.999v-58c-106 8 -197.333 12 -274 12c-77.333 0 -165.333 -4 -264 -12v58c28.667 0.666992 50 2.66699 64 6c22.667 5.33301 34 18 34 38c0 15.333 -8.66699 37.666 -26 66.999l-129 216
l-175 -216c-26 -32.667 -39 -56.667 -39 -72c0 -16.667 10.333 -27.667 31 -33c8.66699 -2 26.667 -4 54 -6v-58c-66 5.33301 -118.667 8 -158 8s-92.333 -2.66699 -159 -8v58c43.333 6 78.666 19 105.999 39c29.333 22 65 59.333 107 112z" />
    <glyph glyph-name="y" unicode="y" horiz-adv-x="1095" 
d="M508 26l-304.001 753c-21.333 51.333 -43.666 86.666 -66.999 105.999c-20.667 16 -54 26.333 -100 31v58c96 -7.33301 182.667 -11 260 -11c78 0 164.667 3.66699 260 11v-58c-26.667 -2 -47.334 -4 -62.001 -6c-30.667 -5.33301 -46 -18 -46 -38
c0 -7.33301 5.66699 -28 17 -62l174 -482l192 466c16.667 39.333 25 65 25 77c0 22 -15 35.333 -45 40c-16.667 2.66699 -38.334 4.33398 -65.001 5.00098v58c64.667 -5.33301 118.334 -8 161.001 -8c43.333 0 98.333 2.66699 165 8v-58c-40.667 -4 -72 -15.667 -94 -35
c-22.667 -20 -46 -58.333 -70 -115l-400 -931c-47.333 -110.667 -107.333 -182.667 -180 -216c-39.333 -18.667 -91.333 -28 -156 -28c-13.333 0 -30.666 1 -51.999 3v116c18 -3.33301 35.333 -5 52 -5c56.667 0 102.667 9 138 27c49.333 26 89 70.333 119 133z" />
    <glyph glyph-name="z" unicode="z" horiz-adv-x="948" 
d="M54 0l499.999 900.998h-130c-58.667 -0.666992 -102 -9 -130 -25c-45.333 -25.333 -91 -96.666 -137 -213.999h-62l52 305h736l-503 -901h150c61.333 0.666992 107.333 10.334 138 29.001c32.667 20 68 70.333 106 151c12.667 28 24.334 58.333 35.001 91h63l-60 -337
h-758z" />
    <glyph glyph-name="braceleft" unicode="{" horiz-adv-x="697" 
d="M617 -432l-65.0029 -0.000976562c-102.667 -2.66699 -177.667 17.666 -225 60.999c-30 29.333 -48.333 66.666 -55 111.999c-4.66699 26.667 -7 56 -7 88v486c0 60.667 -13.333 105 -40 133c-17.333 18 -47.666 37.667 -90.999 59c44.667 22.667 75.334 42.667 92.001 60
c26 27.333 39 71.333 39 132v439c0 62 7 108.333 21 139c37.333 86.667 126 127.334 266 122.001h65c-108 -25.333 -160 -98 -156 -218v-438c-0.666992 -78.667 -15 -134.667 -43 -168c-17.333 -21.333 -50.333 -44 -99 -68c54.667 -27.333 90.334 -53.666 107.001 -78.999
c23.333 -34.667 35 -87 35 -157v-486c-4 -119.333 48 -191.666 156 -216.999z" />
    <glyph glyph-name="bar" unicode="|" 
d="M439 1365h147v-1706h-147v1706z" />
    <glyph glyph-name="braceright" unicode="}" horiz-adv-x="697" 
d="M81 1399h65c102 2.66699 177 -17.666 225 -60.999c40.667 -40.667 61.334 -107.334 62.001 -200.001v-439c0.666992 -59.333 13 -102.666 37 -129.999c18 -19.333 49.333 -40 94 -62c-45.333 -22.667 -76.666 -43.334 -93.999 -62.001
c-24.667 -27.333 -37 -70.666 -37 -129.999v-486c0 -60.667 -7 -107 -21 -139c-36.667 -86 -125.334 -126.667 -266.001 -122h-65c108 25.333 160 97.666 156 216.999v486c0.666992 78.667 15 134.667 43 168c17.333 20.667 50.333 43.334 99 68.001
c-54.667 27.333 -90.334 53.666 -107.001 78.999c-23.333 34.667 -35 87 -35 157v438c4 120 -48 192.667 -156 218z" />
    <glyph glyph-name="asciitilde" unicode="~" horiz-adv-x="1365" 
d="M1067 751l34.999 -22c-27.333 -52 -63.666 -98 -108.999 -138c-54 -47.333 -109.667 -71 -167 -71c-30 0 -88.667 15 -176 45c-79.333 26.667 -138 40 -176 40c-46 0 -85 -15.333 -117 -46c-10 -9.33301 -29.333 -30.333 -58 -63l-35 23c80 140 172.667 210 278 210
c36 0 95 -14.333 177 -43c74.667 -26 128.667 -39 162 -39c67.333 0 129.333 34.667 186 104z" />
    <glyph glyph-name="Euro" horiz-adv-x="1107" 
d="M422 830l514.999 -0.000976562l-41 -90h-479c-1.33301 -47.333 -1.66602 -82 -0.999023 -104h433l-41 -90h-388c3.33301 -82 18 -160 44 -234c24 -67.333 52 -116.666 84 -147.999c43.333 -42.667 102 -64 176 -64c132.667 0 245.334 62 338.001 186v-163
c-98.667 -99.333 -222.334 -149 -371.001 -149c-234 0 -395.667 107 -485 321c-32 75.333 -51 159 -57 251h-174l55 90h115c0 28.667 1 63.334 3 104.001h-160l55 90h114c18 125.333 54.667 230.666 110 315.999c106 164 248.333 246 427 246
c114.667 0 206.667 -36.333 276 -109l44 104h52v-403h-63c-14.667 72 -32 128.333 -52 169c-48.667 96 -121 144 -217 144c-124 0 -213.667 -80 -269 -240c-24 -69.333 -38.333 -145 -43 -227z" />
    <glyph glyph-name="uni00A0" unicode="&#xa0;" horiz-adv-x="512" 
 />
    <glyph glyph-name="exclamdown" unicode="&#xa1;" horiz-adv-x="581" 
d="M361 510l74 -905h-289l74 905h141zM292 989c43.333 0 80.998 -15.668 112.998 -47.001c31.333 -31.333 47 -69.666 47 -114.999c0 -44.667 -15.667 -82.667 -47 -114s-69.333 -47 -114 -47c-45.333 0 -83.666 15.667 -114.999 47c-31.333 32 -47 70 -47 114
c0 46 15.667 84.333 47 115c32.667 31.333 71.334 47 116.001 47z" />
    <glyph glyph-name="cent" unicode="&#xa2;" horiz-adv-x="1107" 
d="M663 1119l0.00195312 -858c46 6 87.333 30 124 72c37.333 44.667 60.666 104.334 69.999 179.001h84c-22.667 -186 -115.334 -295.333 -278.001 -328v-176h-68v169c-114 -0.666992 -210.667 34.666 -290 105.999c-106.667 96 -160 227.667 -160 395
c0 112 25.667 210.333 77 295c86 141.333 210.333 213 373 215v169h68v-175c61.333 -11.333 115 -40 161 -86l64 107h39v-378h-60c-22.667 180 -90.667 278 -204 294zM595.002 1119c-56.667 -11.333 -99.333 -40.335 -128 -87.002c-38.667 -62.667 -58 -177 -58 -343
c0 -185.333 25 -307.666 75 -366.999c27.333 -33.333 64.333 -53.666 111 -60.999v858z" />
    <glyph glyph-name="sterling" unicode="&#xa3;" horiz-adv-x="1107" 
d="M457 742l284.001 0.000976562v-83h-295l-18 -126c-26 -176 -87.667 -316 -185 -420c114.667 40.667 203 61 265 61c32 0 81.667 -6 149 -18c59.333 -10 102.666 -15 129.999 -15c58.667 0 106.334 24.333 143.001 73c20.667 28 40 78 58 150h69
c-7.33301 -113.333 -30.333 -196.333 -69 -249c-28.667 -41.333 -64 -70.833 -106 -88.5s-98 -26.5 -168 -26.5h-660c40.667 56 69.667 121.667 87 197c9.33301 25.333 24 118.666 44 279.999l21 182h-152v83h161l17 130c20.667 153.333 70.667 275 150 365
c90 100.667 206 151 348 151c191.333 0 295 -111 311 -333h-92c-5.33301 52 -14 94.667 -26 128c-26.667 76 -80.667 114 -162 114c-94.667 0 -167 -46.333 -217 -139c-28.667 -52.667 -51.334 -144 -68.001 -274z" />
    <glyph glyph-name="currency" unicode="&#xa4;" horiz-adv-x="1365" 
d="M92 201l197.001 199.001c-66 87.333 -99 183.666 -99 288.999c0 98.667 33.333 194 100 286l-202 201l103 102l200 -199c95.333 66.667 193 100 293 100c99.333 0 195.666 -33 288.999 -99l199 197l102 -102l-198 -197c67.333 -96 101 -193 101 -291
c0 -96.667 -32.667 -192 -98 -286l199 -199l-101 -103l-199 199c-92 -66.667 -189.333 -100 -292 -100c-96.667 0 -194.667 33.333 -294 100l-199 -199zM680.001 1013c-86.667 0 -161.999 -32.001 -225.999 -96.001c-62.667 -62.667 -94 -139 -94 -229
c0 -89.333 31.667 -165.666 95 -228.999s139.333 -95 228 -95c89.333 0 166 31.667 230 95c62.667 63.333 94 139.333 94 228c0 92 -31.333 169 -94 231c-64.667 63.333 -142.334 95 -233.001 95z" />
    <glyph glyph-name="yen" unicode="&#xa5;" horiz-adv-x="1107" 
d="M373 667l-57 150h-236v79h206l-87 230c-26.667 70 -50.667 114.333 -72 133c-22 19.333 -58 31.666 -108 36.999v76c94 -10 187.333 -15 280 -15c93.333 0 187.333 5 282 15v-76c-31.333 -1.33301 -55.666 -4 -72.999 -8c-40 -7.33301 -60 -25 -60 -53
c0 -10.667 7.66699 -38 23 -82l164 -450l171 435c20 50 30 84.333 30 103c0 22 -13.667 37 -41 45c-14 4 -42 7.33301 -84 10v76c75.333 -5.33301 138.666 -8 189.999 -8c52 0 115.667 2.66699 191 8v-76c-44 -4 -78.667 -12 -104 -24
c-34 -16.667 -61.667 -51.334 -83 -104.001l-109 -272h199v-79h-231l-60 -150h291v-79h-322v-376c0 -47.333 5 -79.666 15 -96.999c12 -22 40 -35.667 84 -41c21.333 -2.66699 46 -4.33398 74 -5.00098v-76c-118 10 -220.667 15 -308 15s-190 -5 -308 -15v76
c59.333 2 100.333 7.33301 123 16c24.667 10.667 39.667 30.334 45 59.001c3.33301 14.667 5 37.334 5 68.001v376h-323v79h293z" />
    <glyph glyph-name="brokenbar" unicode="&#xa6;" 
d="M439 1365h147v-700h-147v700zM439 314h147v-655h-147v655z" />
    <glyph glyph-name="section" unicode="&#xa7;" horiz-adv-x="1107" 
d="M139 77l85.0049 -0.00585938c6 -60.667 20 -111.334 42 -152.001c52 -97.333 136 -146 252 -146c61.333 0 111.333 15.333 150 46c46 36 69 85 69 147c0 42 -12 77 -36 105c-16.667 20.667 -45.334 42.334 -86.001 65.001l-294 166
c-64.667 36.667 -110.667 76.334 -138 119.001c-32.667 50.667 -49 107 -49 169c0 76 24 137 72 183c22.667 22 57.667 44 105 66c-38.667 27.333 -67.334 53 -86.001 77c-34 44.667 -51 96.334 -51 155.001c0 94.667 37.667 171 113 229c70.667 54.667 158 82 262 82
c72.667 0 138.5 -14.167 197.5 -42.5s104.167 -67.5 135.5 -117.5c34 -55.333 51.667 -127.333 53 -216h-79c-4.66699 60.667 -17.334 111.334 -38.001 152.001c-42 82 -111 123 -207 123c-58.667 0 -106.667 -16.667 -144 -50c-38 -34 -57 -76.333 -57 -127
c0 -43.333 16 -79.666 48 -108.999c17.333 -16 44.666 -34 81.999 -54l239 -130c67.333 -36 114.666 -73 141.999 -111c34.667 -47.333 52 -101.666 52 -162.999c0 -69.333 -21 -129.666 -63 -180.999c-24.667 -30.667 -62.334 -60.667 -113.001 -90
c110 -66 165 -149 165 -249c0 -98 -39 -178.667 -117 -242c-74 -60.667 -169.333 -91 -286 -91c-171.333 0 -293.666 61 -366.999 183c-34 56 -51.667 124 -53 204zM379.005 803.994c-78 -30.667 -117 -76.998 -117 -138.998c0 -36.667 11.333 -67.334 34 -92.001
c20.667 -22.667 54 -47.334 100 -74.001l339 -194c77.333 43.333 116 92.666 116 147.999c0 36.667 -12.333 67 -37 91c-21.333 20.667 -50.333 41.334 -87 62.001z" />
    <glyph glyph-name="dieresis" unicode="&#xa8;" 
d="M303 1416c36 0 67.333 -14.332 94 -42.999c26.667 -28 40 -62.333 40 -103c0 -40 -13.333 -74.333 -40 -103s-58.667 -43 -96 -43s-69.333 14.333 -96 43s-40 63 -40 103c0 41.333 13.333 75.666 40 102.999c27.333 28.667 60 43 98 43zM724 1416
c36.667 0 68.332 -14.333 94.999 -43c26.667 -28 40 -62.333 40 -103c0 -40 -13.333 -74.333 -40 -103s-59 -43 -97 -43c-37.333 0 -69.333 14.333 -96 43s-40 63 -40 103s13.333 74.333 40 103s59.334 43 98.001 43z" />
    <glyph glyph-name="copyright" unicode="&#xa9;" horiz-adv-x="1593" 
d="M805 1388c126.667 0 246.667 -34.665 360 -103.998s200 -163 260 -281c51.333 -100.667 77 -207.334 77 -320.001c0 -94 -17.833 -184.167 -53.5 -270.5s-86.834 -162.5 -153.501 -228.5c-66 -66.667 -142.167 -117.834 -228.5 -153.501s-176.5 -53.5 -270.5 -53.5
c-93.333 0 -183.166 17.833 -269.499 53.5s-162.5 86.834 -228.5 153.501c-66 66 -117 142.167 -153 228.5s-54 175.833 -54 268.5c0 133.333 34.667 257 104 371c67.333 111.333 161 197.666 281 258.999c100 51.333 209.667 77 329 77zM789 1311
c-80 0 -158.167 -16.168 -234.5 -48.501s-143.833 -77.5 -202.5 -135.5s-104 -125.833 -136 -203.5s-48 -158.167 -48 -241.5c0 -173.333 61.333 -321.333 184 -444s270.667 -184 444 -184c174 0 322.333 61.333 445 184s184 270.334 184 443.001
c0 84 -16.167 165.167 -48.5 243.5s-77.5 145.833 -135.5 202.5c-126 122.667 -276.667 184 -452 184zM1070 571.001l52.002 -0.00195312c-2 -71.333 -18.333 -131.666 -49 -180.999c-58 -91.333 -148.667 -137 -272 -137c-56 0 -109 11 -159 33s-91.333 52.667 -124 92
c-62 74 -93 175 -93 303c0 112.667 25.333 205.667 76 279c70 101.333 172.333 152 307 152c89.333 0 163.666 -28.333 222.999 -85l41 85h35v-288h-49c-12 54.667 -28.333 98.334 -49 131.001c-38.667 62.667 -98.334 94 -179.001 94c-148 0 -222 -115.333 -222 -346
c0 -108.667 16 -193 48 -253c35.333 -65.333 96.333 -98 183 -98c87.333 0 151.333 30.667 192 92c22.667 32.667 35.667 75 39 127z" />
    <glyph glyph-name="ordfeminine" unicode="&#xaa;" horiz-adv-x="738" 
d="M678 821l-0.000976562 -49.001c-39.333 -10 -73.666 -15 -102.999 -15c-76.667 0 -121 34 -133 102c-37.333 -69.333 -96.333 -104 -177 -104c-54 0 -99 14.333 -135 43c-40 31.333 -60 74 -60 128c0 120 116.667 196.333 350 229v81c0 36.667 -5 62.334 -15 77.001
c-14.667 22.667 -39.667 34 -75 34c-22 0 -42 -5 -60 -15c-16 -9.33301 -24 -20.666 -24 -33.999c0 -4.66699 0.666992 -10 2 -16c3.33301 -17.333 5 -31 5 -41c0 -48 -24.667 -72 -74 -72c-44.667 0 -67 21.333 -67 64c0 45.333 22 83.666 66 114.999
c46.667 33.333 104.667 50 174 50c96 0 165 -28.667 207 -86c25.333 -34 38 -99.667 38 -197v-221c0 -28 1.66699 -48 5 -60c4.66699 -14 16 -21 34 -21c10 0 24 2.66699 42 8zM419.999 1107c-44 -8 -79 -19 -105 -33c-45.333 -24 -68 -65.667 -68 -125
c0 -76 27.667 -114 83 -114c42 0 69.333 21.333 82 64c5.33301 18.667 8 49.667 8 93v115zM56.999 653.999h634v-80h-634v80z" />
    <glyph glyph-name="guillemotleft" unicode="&#xab;" horiz-adv-x="924" 
d="M385 967h66l-151 -478l151 -489h-66l-300 489zM743 967h66l-151 -478l151 -489h-66l-300 489z" />
    <glyph glyph-name="logicalnot" unicode="&#xac;" 
d="M709 0v440h-641v106h888v-546h-247z" />
    <glyph glyph-name="uni00AD" unicode="&#xad;" horiz-adv-x="545" 
d="M0 469v107h545v-107h-545z" />
    <glyph glyph-name="registered" unicode="&#xae;" horiz-adv-x="1593" 
d="M805 1388c126.667 0 246.667 -34.665 360 -103.998s200 -163 260 -281c51.333 -100.667 77 -207.334 77 -320.001c0 -94 -17.833 -184.167 -53.5 -270.5s-86.834 -162.5 -153.501 -228.5c-66 -66.667 -142.167 -117.834 -228.5 -153.501s-176.5 -53.5 -270.5 -53.5
c-93.333 0 -183.166 17.833 -269.499 53.5s-162.5 86.834 -228.5 153.501c-66 66 -117 142.167 -153 228.5s-54 175.833 -54 268.5c0 133.333 34.667 257 104 371c67.333 111.333 161 197.666 281 258.999c100 51.333 209.667 77 329 77zM789 1311
c-80 0 -158.167 -16.168 -234.5 -48.501s-143.833 -77.5 -202.5 -135.5s-104 -125.833 -136 -203.5s-48 -158.167 -48 -241.5c0 -173.333 61.333 -321.333 184 -444s270.667 -184 444 -184c174 0 322.333 61.333 445 184s184 270.334 184 443.001
c0 84 -16.167 165.167 -48.5 243.5s-77.5 145.833 -135.5 202.5c-126 122.667 -276.667 184 -452 184zM704 639.001l0.00195312 -235c0 -28 2.66699 -46.333 8 -55c10 -15.333 43 -24 99 -26v-54c-67.333 6 -130 9 -188 9c-58.667 0 -124.667 -3 -198 -9v54
c40 2 66.333 5.33301 79 10c14 5.33301 22.333 16 25 32c2 8.66699 3 21.667 3 39v554c0 27.333 -2.66699 45.666 -8 54.999c-9.33301 16 -42.333 24.333 -99 25v54h377c89.333 0 157 -13.667 203 -41c32 -19.333 57.333 -45.666 76 -78.999s28 -68.333 28 -105
c0 -48.667 -16 -93 -48 -133c-16 -18.667 -38 -33.334 -66 -44.001c-46 -18 -71 -28 -75 -30c26.667 -12 45 -23.333 55 -34c16.667 -17.333 33.667 -43.666 51 -78.999l70 -143c19.333 -40.667 37.666 -64.667 54.999 -72c12 -5.33301 29 -8.33301 51 -9v-54
c-51.333 2.66699 -88.333 4 -111 4c-22 0 -58.333 -1 -109 -3c-12.667 18.667 -26 43.667 -40 75l-89 198c-20.667 43.333 -37.334 69 -50.001 77c-18.667 12.667 -43 19 -73 19h-26zM708.002 694.001h62c54.667 0 94 12.333 118 37c30 30 45 74.333 45 133
c0 115.333 -51.333 173 -154 173h-71v-343z" />
    <glyph glyph-name="macron" unicode="&#xaf;" 
d="M160 1181v125h705v-125h-705z" />
    <glyph glyph-name="degree" unicode="&#xb0;" 
d="M515 1398c80 0 149.335 -28.332 208.002 -84.999c58 -56 87 -124.667 87 -206c0 -80 -28.667 -148.333 -86 -205c-58.667 -58 -129.334 -87 -212.001 -87s-153 28.667 -211 86s-87 126 -87 206c0 81.333 29 149.666 87 204.999c59.333 57.333 130.666 86 213.999 86z
M510.002 1285c-48.667 0 -90.999 -17.668 -126.999 -53.001c-35.333 -34 -53 -75.667 -53 -125c0 -50 17.667 -92 53 -126c36 -35.333 79 -53 129 -53s93 17.667 129 53c35.333 34.667 53 76.334 53 125.001c0 50.667 -17.667 93 -53 127
c-36.667 34.667 -80.334 52 -131.001 52z" />
    <glyph glyph-name="plusminus" unicode="&#xb1;" horiz-adv-x="1108" 
d="M95 604v170h370v366h177v-366h371v-170h-371v-318h-177v318h-370zM95 7v165h918v-165h-918z" />
    <glyph glyph-name="uni00B2" unicode="&#xb2;" horiz-adv-x="721" 
d="M632 676l-24.998 -144.997h-519v126c109.333 105.333 183.666 182.333 222.999 231c79.333 95.333 119 171.666 119 228.999c0 33.333 -11.333 60.666 -34 81.999s-52.667 32 -90 32c-48 0 -85.333 -16.667 -112 -50c-14 -18.667 -25.333 -47.667 -34 -87h-70
c10.667 81.333 30.667 138.333 60 171c48 53.333 117.667 80 209 80c67.333 0 123.666 -16 168.999 -48c52.667 -38 79 -89.333 79 -154c0 -70.667 -47.667 -156.667 -143 -258c-41.333 -44.667 -114 -114.334 -218 -209.001h386z" />
    <glyph glyph-name="uni00B3" unicode="&#xb3;" horiz-adv-x="721" 
d="M71 766l65.001 -0.00195312c16 -90.667 70 -136 162 -136c50 0 90 12.667 120 38c31.333 26 47 62.333 47 109c0 68 -30.667 111.333 -92 130c-26.667 8 -66 12 -118 12h-30v59h30c55.333 0 94 6 116 18c39.333 22.667 59 60 59 112c0 40 -12 71.667 -36 95
c-22.667 22 -51.667 33 -87 33c-74 0 -122.333 -42 -145 -126h-64c16 156.667 102.333 235 259 235c76 0 136.333 -19.667 181 -59c41.333 -37.333 62 -85.666 62 -144.999c0 -85.333 -45.667 -145.666 -137 -180.999c115.333 -28 173 -92.667 173 -194
c0 -74 -29.333 -134 -88 -180c-56.667 -44 -126 -66 -208 -66c-112.667 0 -191.334 39.667 -236.001 119c-18.667 32.667 -29.667 75 -33 127z" />
    <glyph glyph-name="acute" unicode="&#xb4;" 
d="M422 1123l122 286h393l-425 -286h-90z" />
    <glyph glyph-name="uni00B5" unicode="&#xb5;" horiz-adv-x="940" 
d="M972 107l-0.00292969 -35.002l-205 -93c-2.66699 -1.33301 -6 -2 -10 -2c-12.667 0 -26.167 4.16699 -40.5 12.5s-24.833 18.5 -31.5 30.5c-9.33301 15.333 -21.666 54.333 -36.999 117c-52 -51.333 -90 -86.333 -114 -105c-56 -42 -115.333 -63 -178 -63
c-79.333 0 -140 29.333 -182 88c-14 20 -28 50 -42 90c0 -76 2 -129.667 6 -161c3.33301 -20 15 -77 35 -171c10 -48 15 -84 15 -108c0 -22.667 -7 -43.667 -21 -63c-18 -25.333 -43.667 -38 -77 -38c-39.333 0 -67.666 16 -84.999 48
c-9.33301 16.667 -14 34.334 -14 53.001c0 31.333 5.33301 75 16 131c39.333 226.667 59.333 461 60 703v396h196v-588c0 -77.333 5.33301 -132.666 16 -165.999c22.667 -71.333 69.667 -107 141 -107c48.667 0 95 17.667 139 53c20.667 17.333 46.334 47.333 77.001 90v718
h194v-685c0 -61.333 4.33301 -102.333 13 -123c11.333 -26 34.333 -39 69 -39c17.333 0 37.333 5.66699 60 17z" />
    <glyph glyph-name="paragraph" unicode="&#xb6;" horiz-adv-x="1107" 
d="M1054 -219l0.000976562 -75.999c-156.667 10.667 -300.667 16 -432 16c-132 0 -276.333 -5.33301 -433 -16v76c59.333 1.33301 100.333 6.66602 123 15.999c24.667 10 39.667 29.667 45 59c3.33301 14.667 5 37.334 5 68.001v688c-75.333 11.333 -139 34.666 -191 69.999
c-99.333 66.667 -149 173 -149 319c0 148.667 55.333 252.667 166 312c66 34.667 172 52 318 52h548v-76c-58.667 -0.666992 -99.334 -6 -122.001 -16c-24.667 -10 -40 -29.333 -46 -58c-3.33301 -14.667 -5 -37.667 -5 -69v-1222
c0.666992 -47.333 5.66699 -79.666 15 -96.999c12 -22 40 -35.667 84 -41c22 -2.66699 46.667 -4.33398 74 -5.00098zM707.001 -54.999l-0.000976562 1195c0 56.667 -3.33301 92.667 -10 108c-10 23.333 -34 35 -72 35c-39.333 0 -65 -11.667 -77 -35
c-8 -16 -12 -50.667 -12 -104v-1200c0 -54 4 -89.333 12 -106c11.333 -24 36 -36 74 -36c38.667 0 63.334 11.667 74.001 35c7.33301 16 11 52 11 108z" />
    <glyph glyph-name="periodcentered" unicode="&#xb7;" horiz-adv-x="537" 
d="M271 662c42.667 0 79.999 -15.667 111.999 -47c31.333 -31.333 47 -69.333 47 -114s-15.667 -82.667 -47 -114c-32 -31.333 -70 -47 -114 -47s-82 15.667 -114 47c-31.333 32 -47 70 -47 114c0 45.333 15.667 83.333 47 114c32.667 31.333 71.334 47 116.001 47z" />
    <glyph glyph-name="cedilla" unicode="&#xb8;" 
d="M504 0h95.001l-63 -106c117.333 -2 176 -48.333 176 -139c0 -48.667 -18.333 -88 -55 -118c-33.333 -27.333 -77 -41 -131 -41c-46.667 0 -103.667 12 -171 36v70c48 -14 86 -21 114 -21c25.333 0 45.666 7.66699 60.999 23c14 14 21 32.333 21 55
c0 54.667 -40.667 82 -122 82c-4 0 -10.667 -0.333008 -20 -1z" />
    <glyph glyph-name="uni00B9" unicode="&#xb9;" horiz-adv-x="721" 
d="M459 1365l-0.000976562 -702c0.666992 -40 10 -63.667 28 -71c14.667 -6 41 -9 79 -9v-55c-72 6 -136.667 9 -194 9s-121.666 -3 -192.999 -9v55c38 0 64.333 3 79 9c18.667 7.33301 28 31 28 71v518h-141v52c63.333 5.33301 116.833 19 160.5 41s77.5 52.333 101.5 91
h52z" />
    <glyph glyph-name="ordmasculine" unicode="&#xba;" horiz-adv-x="738" 
d="M379 1398c86.667 0 157.333 -34.334 212 -103.001c46.667 -58.667 70 -131 70 -217c0 -85.333 -25.333 -158.666 -76 -219.999c-57.333 -68.667 -129.333 -103 -216 -103s-158 32.333 -214 97c-52 59.333 -78 133 -78 221s26 162.333 78 223c58 68 132.667 102 224 102z
M369.999 1352c-74.667 0 -111.999 -92.332 -111.999 -276.999c0 -76.667 6.66699 -140.334 20 -191.001c14.667 -54.667 45 -82 91 -82c47.333 0 78.666 30 93.999 90c11.333 46.667 17 104.667 17 174c0 90.667 -7 160 -21 208c-16 52 -45.667 78 -89 78zM52 654h634v-80
h-634v80z" />
    <glyph glyph-name="guillemotright" unicode="&#xbb;" horiz-adv-x="924" 
d="M540 967l300 -478l-300 -489h-66l151 489l-151 478h66zM182 967l300 -478l-300 -489h-66l151 489l-151 478h66z" />
    <glyph glyph-name="onequarter" unicode="&#xbc;" horiz-adv-x="1575" 
d="M459 1365l-0.000976562 -702c0.666992 -40 10 -63.667 28 -71c14.667 -6 41 -9 79 -9v-55c-72 6 -136.667 9 -194 9s-121.666 -3 -192.999 -9v55c38 0 64.333 3 79 9c18.667 7.33301 28 31 28 71v518h-141v52c63.333 5.33301 116.833 19 160.5 41s77.5 52.333 101.5 91
h52zM347.999 0l773 1332h106l-773 -1332h-106zM1223 -8v198h-333l319 636h189v-514h141v-122h-141v-198h-175zM1230 312v419l-206 -419h206z" />
    <glyph glyph-name="onehalf" unicode="&#xbd;" horiz-adv-x="1575" 
d="M459 1365l-0.000976562 -702c0.666992 -40 10 -63.667 28 -71c14.667 -6 41 -9 79 -9v-55c-72 6 -136.667 9 -194 9s-121.666 -3 -192.999 -9v55c38 0 64.333 3 79 9c18.667 7.33301 28 31 28 71v518h-141v52c63.333 5.33301 116.833 19 160.5 41s77.5 52.333 101.5 91
h52zM347.999 0l773 1332h106l-773 -1332h-106zM1486 145l-24.998 -144.999h-519v126c110 106 184.333 182.667 223 230c79.333 96 119 172.667 119 230c0 33.333 -11.333 60.666 -34 81.999s-52.667 32 -90 32c-48 0 -85 -16.667 -111 -50
c-14.667 -18.667 -26.667 -47.667 -36 -87h-69c10.667 81.333 30.667 138.333 60 171c48 53.333 117.667 80 209 80c67.333 0 123.666 -16 168.999 -48c52.667 -38 79 -89.333 79 -154c0 -52.667 -20.667 -106.667 -62 -162c-48.667 -66 -148.334 -167.667 -299.001 -305
h386z" />
    <glyph glyph-name="threequarters" unicode="&#xbe;" horiz-adv-x="1575" 
d="M71 766l65.001 -0.00195312c16 -90.667 70 -136 162 -136c50 0 90 12.667 120 38c31.333 26 47 62.333 47 109c0 68 -30.667 111.333 -92 130c-26.667 8 -66 12 -118 12h-30v59h30c55.333 0 94 6 116 18c39.333 22.667 59 60 59 112c0 40 -12 71.667 -36 95
c-22.667 22 -51.667 33 -87 33c-74 0 -122.333 -42 -145 -126h-64c16 156.667 102.333 235 259 235c76 0 136.333 -19.667 181 -59c41.333 -37.333 62 -85.666 62 -144.999c0 -85.333 -45.667 -145.666 -137 -180.999c115.333 -28 173 -92.667 173 -194
c0 -74 -29.333 -134 -88 -180c-56.667 -44 -126 -66 -208 -66c-112.667 0 -191.334 39.667 -236.001 119c-18.667 32.667 -29.667 75 -33 127zM348.001 -0.00195312l773 1332h106l-773 -1332h-106zM1223 -8.00195v198h-333l319 636h189v-514h141v-122h-141v-198h-175z
M1230 311.998v419l-206 -419h206z" />
    <glyph glyph-name="questiondown" unicode="&#xbf;" horiz-adv-x="875" 
d="M461 516l90.0029 -0.000976562c2 -32 3 -58.333 3 -79c0 -58 -7.66699 -108.333 -23 -151c-15.333 -41.333 -57.333 -101.666 -126 -180.999c-38.667 -44 -63.667 -78.667 -75 -104c-14.667 -30.667 -22 -61.667 -22 -93c0 -56 20.667 -99 62 -129
c29.333 -20.667 66.666 -31 111.999 -31c77.333 0 137.666 28.333 180.999 85c24 31.333 40.333 79.666 49 144.999h81c-0.666992 -116 -26.334 -204.333 -77.001 -265c-72.667 -86.667 -177.334 -130 -314.001 -130c-98 0 -177.333 26 -238 78
c-70.667 60.667 -106 143 -106 247c0 86.667 30.667 163 92 229c24.667 26.667 81.334 70.334 170.001 131.001c94.667 62 141.667 144.667 141 248zM489.003 988.999c43.333 0 80.999 -15.668 112.999 -47.001c31.333 -31.333 47 -69.666 47 -114.999
c0 -44 -15.667 -82 -47 -114c-32 -31.333 -70.333 -47 -115 -47s-82.667 15.667 -114 47c-31.333 32 -47 70 -47 114c0 46 15.667 84.333 47 115c32.667 31.333 71.334 47 116.001 47z" />
    <glyph glyph-name="Agrave" unicode="&#xc0;" horiz-adv-x="1391" 
d="M830 370l-448.004 -0.000976562l-55 -145c-15.333 -42 -23 -72.333 -23 -91c0 -30.667 17.333 -49.334 52 -56.001c16.667 -4 47.334 -7 92.001 -9v-76c-90.667 6.66699 -162 10 -214 10c-51.333 0 -122.666 -3.33301 -213.999 -10v76c34.667 2 60.667 5 78 9
c44.667 10 81.334 39.333 110.001 88c18.667 31.333 36 67.666 52 108.999l454 1145l450 -1206c24 -63.333 52 -103.666 84 -120.999c27.333 -13.333 68 -21.333 122 -24v-76c-106.667 10 -209.667 15 -309 15s-202.666 -5 -309.999 -15v76
c51.333 2.66699 85 5.33398 101 8.00098c30.667 6.66699 46 22.667 46 48c0 8.66699 -5 34.334 -15 77.001zM414.996 453.999h389l-179 537zM827.996 1480h-102l-503 268h426z" />
    <glyph glyph-name="Aacute" unicode="&#xc1;" horiz-adv-x="1391" 
d="M830 370l-448.004 -0.000976562l-55 -145c-15.333 -42 -23 -72.333 -23 -91c0 -30.667 17.333 -49.334 52 -56.001c16.667 -4 47.334 -7 92.001 -9v-76c-90.667 6.66699 -162 10 -214 10c-51.333 0 -122.666 -3.33301 -213.999 -10v76c34.667 2 60.667 5 78 9
c44.667 10 81.334 39.333 110.001 88c18.667 31.333 36 67.666 52 108.999l454 1145l450 -1206c24 -63.333 52 -103.666 84 -120.999c27.333 -13.333 68 -21.333 122 -24v-76c-106.667 10 -209.667 15 -309 15s-202.666 -5 -309.999 -15v76
c51.333 2.66699 85 5.33398 101 8.00098c30.667 6.66699 46 22.667 46 48c0 8.66699 -5 34.334 -15 77.001zM414.996 453.999h389l-179 537zM622.996 1480l179 268h426l-503 -268h-102z" />
    <glyph glyph-name="Acircumflex" unicode="&#xc2;" horiz-adv-x="1391" 
d="M830 370l-448.004 -0.000976562l-55 -145c-15.333 -42 -23 -72.333 -23 -91c0 -30.667 17.333 -49.334 52 -56.001c16.667 -4 47.334 -7 92.001 -9v-76c-90.667 6.66699 -162 10 -214 10c-51.333 0 -122.666 -3.33301 -213.999 -10v76c34.667 2 60.667 5 78 9
c44.667 10 81.334 39.333 110.001 88c18.667 31.333 36 67.666 52 108.999l454 1145l450 -1206c24 -63.333 52 -103.666 84 -120.999c27.333 -13.333 68 -21.333 122 -24v-76c-106.667 10 -209.667 15 -309 15s-202.666 -5 -309.999 -15v76
c51.333 2.66699 85 5.33398 101 8.00098c30.667 6.66699 46 22.667 46 48c0 8.66699 -5 34.334 -15 77.001zM414.996 453.999h389l-179 537zM336.996 1456l379 324l378 -324h-96l-282 127l-282 -127h-97z" />
    <glyph glyph-name="Atilde" unicode="&#xc3;" horiz-adv-x="1391" 
d="M830 370l-448.004 -0.000976562l-55 -145c-15.333 -42 -23 -72.333 -23 -91c0 -30.667 17.333 -49.334 52 -56.001c16.667 -4 47.334 -7 92.001 -9v-76c-90.667 6.66699 -162 10 -214 10c-51.333 0 -122.666 -3.33301 -213.999 -10v76c34.667 2 60.667 5 78 9
c44.667 10 81.334 39.333 110.001 88c18.667 31.333 36 67.666 52 108.999l454 1145l450 -1206c24 -63.333 52 -103.666 84 -120.999c27.333 -13.333 68 -21.333 122 -24v-76c-106.667 10 -209.667 15 -309 15s-202.666 -5 -309.999 -15v76
c51.333 2.66699 85 5.33398 101 8.00098c30.667 6.66699 46 22.667 46 48c0 8.66699 -5 34.334 -15 77.001zM414.996 453.999h389l-179 537zM430.996 1497l-65 18.999c28 70.667 52 119 72 145c40 50.667 89 76 147 76c42.667 0 94.334 -15.333 155.001 -46
c65.333 -33.333 111.666 -50 138.999 -50c35.333 0 65 13 89 39c11.333 12 26.666 32.333 45.999 61l66 -15c-26 -79.333 -56.667 -138.333 -92 -177c-36 -40 -82.667 -60 -140 -60c-29.333 0 -60 6.66699 -92 20c-16 6.66699 -48.333 22.334 -97 47.001
c-41.333 20.667 -75.666 31 -102.999 31c-48 0 -89.667 -30 -125 -90z" />
    <glyph glyph-name="Adieresis" unicode="&#xc4;" horiz-adv-x="1391" 
d="M830 370l-448.004 -0.000976562l-55 -145c-15.333 -42 -23 -72.333 -23 -91c0 -30.667 17.333 -49.334 52 -56.001c16.667 -4 47.334 -7 92.001 -9v-76c-90.667 6.66699 -162 10 -214 10c-51.333 0 -122.666 -3.33301 -213.999 -10v76c34.667 2 60.667 5 78 9
c44.667 10 81.334 39.333 110.001 88c18.667 31.333 36 67.666 52 108.999l454 1145l450 -1206c24 -63.333 52 -103.666 84 -120.999c27.333 -13.333 68 -21.333 122 -24v-76c-106.667 10 -209.667 15 -309 15s-202.666 -5 -309.999 -15v76
c51.333 2.66699 85 5.33398 101 8.00098c30.667 6.66699 46 22.667 46 48c0 8.66699 -5 34.334 -15 77.001zM414.996 453.999h389l-179 537zM527.996 1760c38.667 0 72.333 -14.333 101 -43c28.667 -28 43 -62.333 43 -103c0 -40 -14.333 -74.333 -43 -103s-63 -43 -103 -43
s-74.333 14.333 -103 43s-43 63 -43 103c0 40.667 14.333 75 43 103c29.333 28.667 64.333 43 105 43zM906.995 1760c39.333 0 73 -14.333 101 -43c28.667 -28 43 -62.333 43 -103c0 -40 -14.333 -74.333 -43 -103c-28 -28.667 -62.333 -43 -103 -43
c-40 0 -74.333 14.333 -103 43s-43 63 -43 103c0 40.667 14.333 75 43 103c29.333 28.667 64.333 43 105 43z" />
    <glyph glyph-name="Aring" unicode="&#xc5;" horiz-adv-x="1391" 
d="M830 370l-448.004 -0.000976562l-55 -145c-15.333 -42 -23 -72.333 -23 -91c0 -30.667 17.333 -49.334 52 -56.001c16.667 -4 47.334 -7 92.001 -9v-76c-90.667 6.66699 -162 10 -214 10c-51.333 0 -122.666 -3.33301 -213.999 -10v76c34.667 2 60.667 5 78 9
c44.667 10 81.334 39.333 110.001 88c18.667 31.333 36 67.666 52 108.999l454 1145l450 -1206c24 -63.333 52 -103.666 84 -120.999c27.333 -13.333 68 -21.333 122 -24v-76c-106.667 10 -209.667 15 -309 15s-202.666 -5 -309.999 -15v76
c51.333 2.66699 85 5.33398 101 8.00098c30.667 6.66699 46 22.667 46 48c0 8.66699 -5 34.334 -15 77.001zM414.996 453.999h389l-179 537zM716.996 1812c48.667 0 91 -18 127 -54c35.333 -35.333 53 -78.333 53 -129s-17.667 -93.667 -53 -129
c-36 -36 -79.333 -54 -130 -54s-93.667 18 -129 54c-36 35.333 -54 78.333 -54 129c0 51.333 18 94.333 54 129c36.667 36 80.667 54 132 54zM712.996 1723c-26 0 -47.999 -9.33301 -65.999 -28c-18.667 -18 -28 -40 -28 -66c0 -26.667 9.33301 -49 28 -67
c18.667 -18.667 41 -28 67 -28s48.333 9.33301 67 28c18.667 18 28 40 28 66c0 26.667 -9.33301 49 -28 67c-18.667 18.667 -41.334 28 -68.001 28z" />
    <glyph glyph-name="AE" unicode="&#xc6;" horiz-adv-x="1916" 
d="M1754 1365l57.999 -360.001h-65c-20 90 -43.333 154 -70 192c-24.667 36 -54.667 60.667 -90 74c-30 11.333 -69 17 -117 17h-249v-540h229c37.333 0.666992 63 6.66699 77 18c20 16.667 33 46.334 39 89.001c2 15.333 4 36.333 6 63h76v-418h-76
c-2 56 -7.33301 94.333 -16 115c-8.66699 22 -22.334 37.333 -41.001 46c-15.333 6.66699 -36.666 10 -63.999 10h-230v-486c0 -44 7 -72.667 21 -86c16 -14.667 48.333 -22 97 -22h107c76 0.666992 133.333 15.667 172 45c40 29.333 78 82 114 158
c13.333 29.333 25.666 62.333 36.999 99h65l-66 -379h-990v76c59.333 1.33301 100.333 6.66602 123 15.999c24.667 10 39.667 29.667 45 59c3.33301 14.667 5 37.334 5 68.001v212h-496l-127 -226c-18.667 -33.333 -28 -60.666 -28 -81.999
c0 -24.667 14.333 -40.334 43 -47.001c15.333 -3.33301 44.333 -5.66602 87 -6.99902v-76c-79.333 5.33301 -147.666 8 -204.999 8s-125.666 -2.66699 -204.999 -8v76c51.333 2 91 11.667 119 29c33.333 21.333 72 69.666 116 144.999l645 1122h854zM501.999 513.999h449
v789z" />
    <glyph glyph-name="Ccedilla" unicode="&#xc7;" horiz-adv-x="1312" 
d="M725 -32l-44.999 -76.0029c120.667 -1.33301 181 -49 181 -143c0 -50 -18.667 -90.333 -56 -121c-35.333 -28.667 -80.333 -43 -135 -43c-46 0 -104.667 12 -176 36v73c48.667 -14 88 -21 118 -21c26 0 46.667 7.66699 62 23c14.667 14.667 22 33.667 22 57
c0 55.333 -43 83 -129 83h-17l79 134c-119.333 12.667 -221.666 57.334 -306.999 134.001c-141.333 126.667 -212 312.667 -212 558c0 190.667 37.667 350.667 113 480c48 82.667 113.667 146.334 197 191.001c82 43.333 174.333 65 277 65c108 0 200.333 -26 277 -78
c24.667 -16.667 51.667 -40.334 81 -71.001l69 149h44v-469h-65c-20 88.667 -46.333 160.667 -79 216c-30.667 51.333 -73.667 92 -129 122c-48.667 26.667 -100.667 40 -156 40c-132 0 -224.333 -62 -277 -186c-47.333 -113.333 -71 -254.666 -71 -423.999
c0 -167.333 24 -302.666 72 -405.999c54 -116 150 -174 288 -174c64 0 123.167 14 177.5 42s98.166 67 131.499 117c36 54.667 57 125 63 211h69c-2 -177.333 -64 -315.333 -186 -414c-78.667 -62 -172.334 -97 -281.001 -105z" />
    <glyph glyph-name="Egrave" unicode="&#xc8;" horiz-adv-x="1193" 
d="M1110 379l-66 -379h-990v76c60 1.33301 101 6.66602 123 15.999c24 10 39 29.667 45 59c3.33301 15.333 5 38 5 68v927c0 47.333 -5 79.666 -15 96.999c-12 22.667 -40 36.667 -84 42c-23.333 2.66699 -48 4 -74 4v76h976l58 -360h-65
c-19.333 89.333 -42.666 153.333 -69.999 192c-24.667 36 -54.667 60.667 -90 74c-30 11.333 -69 17 -117 17h-249v-540h229c37.333 0.666992 63 6.66699 77 18c20 16.667 33 46.334 39 89.001c2 15.333 4 36.333 6 63h76v-418h-76c-2 54.667 -7.33301 93 -16 115
s-22.334 37.333 -41.001 46c-15.333 6.66699 -36.666 10 -63.999 10h-230v-486c0 -42 7.33301 -70.333 22 -85c17.333 -15.333 49.333 -23 96 -23h107c76 0.666992 133.333 15.667 172 45c39.333 28.667 77.333 81.334 114 158.001c13.333 29.333 25.666 62.333 36.999 99
h65zM785 1480h-102l-503 268h426z" />
    <glyph glyph-name="Eacute" unicode="&#xc9;" horiz-adv-x="1193" 
d="M1110 379l-66 -379h-990v76c60 1.33301 101 6.66602 123 15.999c24 10 39 29.667 45 59c3.33301 15.333 5 38 5 68v927c0 47.333 -5 79.666 -15 96.999c-12 22.667 -40 36.667 -84 42c-23.333 2.66699 -48 4 -74 4v76h976l58 -360h-65
c-19.333 89.333 -42.666 153.333 -69.999 192c-24.667 36 -54.667 60.667 -90 74c-30 11.333 -69 17 -117 17h-249v-540h229c37.333 0.666992 63 6.66699 77 18c20 16.667 33 46.334 39 89.001c2 15.333 4 36.333 6 63h76v-418h-76c-2 54.667 -7.33301 93 -16 115
s-22.334 37.333 -41.001 46c-15.333 6.66699 -36.666 10 -63.999 10h-230v-486c0 -42 7.33301 -70.333 22 -85c17.333 -15.333 49.333 -23 96 -23h107c76 0.666992 133.333 15.667 172 45c39.333 28.667 77.333 81.334 114 158.001c13.333 29.333 25.666 62.333 36.999 99
h65zM447 1480l179 268h426l-503 -268h-102z" />
    <glyph glyph-name="Ecircumflex" unicode="&#xca;" horiz-adv-x="1193" 
d="M1110 379l-66 -379h-990v76c60 1.33301 101 6.66602 123 15.999c24 10 39 29.667 45 59c3.33301 15.333 5 38 5 68v927c0 47.333 -5 79.666 -15 96.999c-12 22.667 -40 36.667 -84 42c-23.333 2.66699 -48 4 -74 4v76h976l58 -360h-65
c-19.333 89.333 -42.666 153.333 -69.999 192c-24.667 36 -54.667 60.667 -90 74c-30 11.333 -69 17 -117 17h-249v-540h229c37.333 0.666992 63 6.66699 77 18c20 16.667 33 46.334 39 89.001c2 15.333 4 36.333 6 63h76v-418h-76c-2 54.667 -7.33301 93 -16 115
s-22.334 37.333 -41.001 46c-15.333 6.66699 -36.666 10 -63.999 10h-230v-486c0 -42 7.33301 -70.333 22 -85c17.333 -15.333 49.333 -23 96 -23h107c76 0.666992 133.333 15.667 172 45c39.333 28.667 77.333 81.334 114 158.001c13.333 29.333 25.666 62.333 36.999 99
h65zM203 1456l379 324l378 -324h-96l-282 127l-282 -127h-97z" />
    <glyph glyph-name="Edieresis" unicode="&#xcb;" horiz-adv-x="1193" 
d="M1110 379l-66 -379h-990v76c60 1.33301 101 6.66602 123 15.999c24 10 39 29.667 45 59c3.33301 15.333 5 38 5 68v927c0 47.333 -5 79.666 -15 96.999c-12 22.667 -40 36.667 -84 42c-23.333 2.66699 -48 4 -74 4v76h976l58 -360h-65
c-19.333 89.333 -42.666 153.333 -69.999 192c-24.667 36 -54.667 60.667 -90 74c-30 11.333 -69 17 -117 17h-249v-540h229c37.333 0.666992 63 6.66699 77 18c20 16.667 33 46.334 39 89.001c2 15.333 4 36.333 6 63h76v-418h-76c-2 54.667 -7.33301 93 -16 115
s-22.334 37.333 -41.001 46c-15.333 6.66699 -36.666 10 -63.999 10h-230v-486c0 -42 7.33301 -70.333 22 -85c17.333 -15.333 49.333 -23 96 -23h107c76 0.666992 133.333 15.667 172 45c39.333 28.667 77.333 81.334 114 158.001c13.333 29.333 25.666 62.333 36.999 99
h65zM394 1760c38.667 0 72.333 -14.333 101 -43c28.667 -28 43 -62.333 43 -103c0 -40 -14.333 -74.333 -43 -103s-63 -43 -103 -43s-74.333 14.333 -103 43s-43 63 -43 103c0 40.667 14.333 75 43 103c29.333 28.667 64.333 43 105 43zM772.999 1760
c39.333 0 73 -14.333 101 -43c28.667 -28 43 -62.333 43 -103c0 -40 -14.333 -74.333 -43 -103c-28 -28.667 -62.333 -43 -103 -43c-40 0 -74.333 14.333 -103 43s-43 63 -43 103c0 40.667 14.333 75 43 103c29.333 28.667 64.333 43 105 43z" />
    <glyph glyph-name="Igrave" unicode="&#xcc;" horiz-adv-x="724" 
d="M227 212l-0.00195312 940.999c-0.666992 47.333 -5.66699 79.666 -15 96.999c-12 22 -40 35.667 -84 41c-23.333 2.66699 -48 4.33398 -74 5.00098v76c116.667 -10 219.334 -15 308.001 -15s191.334 5 308.001 15v-76c-58.667 -1.33301 -99.667 -6.66602 -123 -15.999
c-24.667 -10 -39.667 -29.667 -45 -59c-3.33301 -14.667 -5 -37.334 -5 -68.001v-941c0 -47.333 5 -79.666 15 -96.999c12 -22 40 -35.667 84 -41c21.333 -2.66699 46 -4.33398 74 -5.00098v-76c-118 10 -220.667 15 -308 15s-190 -5 -308 -15v76
c59.333 2 100.333 7.33301 123 16c24 10.667 39 30.334 45 59.001c3.33301 15.333 5 38 5 68zM489.998 1480h-102l-455 268h398z" />
    <glyph glyph-name="Iacute" unicode="&#xcd;" horiz-adv-x="724" 
d="M227 212l-0.00195312 940.999c0 47.333 -5 79.666 -15 96.999c-12 22 -40 35.667 -84 41c-23.333 2.66699 -48 4.33398 -74 5.00098v76c116.667 -10 219.334 -15 308.001 -15s191.334 5 308.001 15v-76c-58.667 -1.33301 -99.667 -6.66602 -123 -15.999
c-24.667 -10 -39.667 -29.667 -45 -59c-3.33301 -14.667 -5 -37.334 -5 -68.001v-941c0.666992 -47.333 5.66699 -79.666 15 -96.999c12 -22 40 -35.667 84 -41c21.333 -2.66699 46 -4.33398 74 -5.00098v-76c-118 10 -220.667 15 -308 15s-190 -5 -308 -15v76
c59.333 2 100.333 7.33301 123 16c24 10.667 39 30.334 45 59.001c3.33301 15.333 5 38 5 68zM247.998 1480l159 268h398l-455 -268h-102z" />
    <glyph glyph-name="Icircumflex" unicode="&#xce;" horiz-adv-x="724" 
d="M227 212l-0.00195312 940.999c-0.666992 47.333 -5.66699 79.666 -15 96.999c-12 22 -40 35.667 -84 41c-23.333 2.66699 -48 4.33398 -74 5.00098v76c116.667 -10 219.334 -15 308.001 -15s191.334 5 308.001 15v-76c-58.667 -1.33301 -99.667 -6.66602 -123 -15.999
c-24.667 -10 -39.667 -29.667 -45 -59c-3.33301 -14.667 -5 -37.334 -5 -68.001v-941c0 -47.333 5 -79.666 15 -96.999c12 -22 40 -35.667 84 -41c21.333 -2.66699 46 -4.33398 74 -5.00098v-76c-118 10 -220.667 15 -308 15s-190 -5 -308 -15v76
c59.333 2 100.333 7.33301 123 16c24 10.667 39 30.334 45 59.001c3.33301 15.333 5 38 5 68zM9.99805 1456l352 324l351 -324h-97l-254 127l-255 -127h-97z" />
    <glyph glyph-name="Idieresis" unicode="&#xcf;" horiz-adv-x="724" 
d="M227 212l-0.00195312 940.999c0 47.333 -5 79.666 -15 96.999c-12 22 -40 35.667 -84 41c-23.333 2.66699 -48 4.33398 -74 5.00098v76c116.667 -10 219.334 -15 308.001 -15s191.334 5 308.001 15v-76c-58.667 -1.33301 -99.667 -6.66602 -123 -15.999
c-24.667 -10 -39.667 -29.667 -45 -59c-3.33301 -14.667 -5 -37.334 -5 -68.001v-941c0.666992 -47.333 5.66699 -79.666 15 -96.999c12 -22 40 -35.667 84 -41c21.333 -2.66699 46 -4.33398 74 -5.00098v-76c-118 10 -220.667 15 -308 15s-190 -5 -308 -15v76
c59.333 2 100.333 7.33301 123 16c24 10.667 39 30.334 45 59.001c3.33301 15.333 5 38 5 68zM184.998 1754c37.333 0 69.667 -13.667 97 -41s41 -60 41 -98c0 -38.667 -13.667 -71.667 -41 -99s-60 -41 -98 -41c-38.667 0 -71.667 13.667 -99 41s-41 60 -41 98
c0 39.333 13.667 72.333 41 99c28 27.333 61.333 41 100 41zM541.999 1754c37.333 0 69.667 -13.667 97 -41s41 -60 41 -98c0 -38.667 -13.667 -71.667 -41 -99s-60 -41 -98 -41c-38.667 0 -71.667 13.667 -99 41s-41 60 -41 98c0 39.333 13.667 72.333 41 99
c28 27.333 61.333 41 100 41z" />
    <glyph glyph-name="Eth" unicode="&#xd0;" horiz-adv-x="1347" 
d="M226 677l-172.998 0.00195312v79h173v390c0 47.333 -5 79.666 -15 96.999c-12 22.667 -40 36.667 -84 42c-23.333 2.66699 -48 4 -74 4v76h580c95.333 0 176.666 -11.5 243.999 -34.5s127.666 -59.5 180.999 -109.5c62 -60 110.667 -133.667 146 -221
c40 -98.667 60 -202.667 60 -312c0 -148 -35 -282.667 -105 -404c-76 -130.667 -187.667 -216 -335 -256c-69.333 -18.667 -155 -28 -257 -28h-514v76c60 1.33301 101 6.66602 123 15.999c24 10 39 29.667 45 59c3.33301 15.333 5 38 5 68v458zM496.002 1288
l0.000976562 -532h252v-79h-252v-508c0 -40 8 -65.333 24 -76c14.667 -10.667 42 -16 82 -16c137.333 0 232.666 38 285.999 114c70 98.667 105 270 105 514c0 204.667 -32.667 356.667 -98 456c-56 84.667 -148 127 -276 127h-123z" />
    <glyph glyph-name="Ntilde" unicode="&#xd1;" horiz-adv-x="1416" 
d="M1195 -35h-47c-44.667 75.333 -109 170.666 -193 285.999l-49 66l-601 808v-913c0 -47.333 5 -79.666 15 -96.999c12 -22 40 -35.667 84 -41c22 -2.66699 46.667 -4.33398 74 -5.00098v-76c-80.667 5.33301 -151.667 8 -213 8c-60.667 0 -131 -2.66699 -211 -8v76
c59.333 2 100.333 7.33301 123 16c24.667 10.667 39.667 30.334 45 59.001c3.33301 14.667 5 37.334 5 68.001v1005c-28 25.333 -53 43.666 -75 54.999c-26.667 13.333 -60 21.333 -100 24v76c74 -4.66699 139.667 -7 197 -7s123.333 2.33301 198 7l670 -891v672
c-0.666992 48 -5.66699 80.333 -15 97c-16 28.667 -68.667 44 -158 46v76c78 -4.66699 149 -7 213 -7s134.333 2.33301 211 7v-76c-58.667 -1.33301 -99.334 -6.66602 -122.001 -15.999c-25.333 -10 -40.666 -29.667 -45.999 -59c-3.33301 -14.667 -5 -37.334 -5 -68.001
v-1188zM432 1497l-65 18.999c28 70.667 52 119 72 145c40 50.667 89 76 147 76c42.667 0 94.334 -15.333 155.001 -46c65.333 -33.333 111.666 -50 138.999 -50c35.333 0 65 13 89 39c11.333 12 26.666 32.333 45.999 61l66 -15c-26 -79.333 -56.667 -138.333 -92 -177
c-36 -40 -82.667 -60 -140 -60c-29.333 0 -60 6.66699 -92 20c-16 6.66699 -48.333 22.334 -97 47.001c-41.333 20.667 -75.666 31 -102.999 31c-48 0 -89.667 -30 -125 -90z" />
    <glyph glyph-name="Ograve" unicode="&#xd2;" horiz-adv-x="1368" 
d="M693 1398c119.333 0 228.333 -33.3311 327 -99.998c177.333 -119.333 266 -324.333 266 -615c0 -204.667 -47 -370.334 -141 -497.001c-52.667 -70.667 -118.667 -124.834 -198 -162.501s-167.666 -56.5 -264.999 -56.5c-96.667 0 -184.834 19 -264.501 57
s-144.834 92 -195.501 162c-92.667 128.667 -139 292.667 -139 492c0 212.667 49.667 383 149 511c54.667 70.667 124.334 124 209.001 160c77.333 32.667 161.333 49 252 49zM689 1333c-78.667 0 -145.999 -35 -201.999 -105c-82 -102 -123 -279.667 -123 -533
c0 -170 17.667 -315.333 53 -436c20.667 -70.667 55.334 -127.334 104.001 -170.001c43.333 -38 97.666 -57 162.999 -57c93.333 0 166.666 40.333 219.999 121c67.333 102.667 101 281.334 101 536.001c0 184 -18.333 329.667 -55 437c-46.667 138 -133.667 207 -261 207z
M847.001 1480h-102l-503 268h426z" />
    <glyph glyph-name="Oacute" unicode="&#xd3;" horiz-adv-x="1368" 
d="M693 1398c119.333 0 228.333 -33.3311 327 -99.998c177.333 -119.333 266 -324.333 266 -615c0 -204.667 -47 -370.334 -141 -497.001c-52.667 -70.667 -118.667 -124.834 -198 -162.501s-167.666 -56.5 -264.999 -56.5c-96.667 0 -184.834 19 -264.501 57
s-144.834 92 -195.501 162c-92.667 128.667 -139 292.667 -139 492c0 212.667 49.667 383 149 511c54.667 70.667 124.334 124 209.001 160c77.333 32.667 161.333 49 252 49zM689 1333c-78.667 0 -145.999 -35 -201.999 -105c-82 -102 -123 -279.667 -123 -533
c0 -170 17.667 -315.333 53 -436c20.667 -70.667 55.334 -127.334 104.001 -170.001c43.333 -38 97.666 -57 162.999 -57c93.333 0 166.666 40.333 219.999 121c67.333 102.667 101 281.334 101 536.001c0 184 -18.333 329.667 -55 437c-46.667 138 -133.667 207 -261 207z
M564.001 1480l179 268h426l-503 -268h-102z" />
    <glyph glyph-name="Ocircumflex" unicode="&#xd4;" horiz-adv-x="1368" 
d="M693 1398c119.333 0 228.333 -33.3311 327 -99.998c177.333 -119.333 266 -324.333 266 -615c0 -204.667 -47 -370.334 -141 -497.001c-52.667 -70.667 -118.667 -124.834 -198 -162.501s-167.666 -56.5 -264.999 -56.5c-96.667 0 -184.834 19 -264.501 57
s-144.834 92 -195.501 162c-92.667 128.667 -139 292.667 -139 492c0 212.667 49.667 383 149 511c54.667 70.667 124.334 124 209.001 160c77.333 32.667 161.333 49 252 49zM689 1333c-78.667 0 -145.999 -35 -201.999 -105c-82 -102 -123 -279.667 -123 -533
c0 -170 17.667 -315.333 53 -436c20.667 -70.667 55.334 -127.334 104.001 -170.001c43.333 -38 97.666 -57 162.999 -57c93.333 0 166.666 40.333 219.999 121c67.333 102.667 101 281.334 101 536.001c0 184 -18.333 329.667 -55 437c-46.667 138 -133.667 207 -261 207z
M305.001 1456l379 324l378 -324h-96l-282 127l-282 -127h-97z" />
    <glyph glyph-name="Otilde" unicode="&#xd5;" horiz-adv-x="1368" 
d="M693 1398c119.333 0 228.333 -33.3311 327 -99.998c177.333 -119.333 266 -324.333 266 -615c0 -204.667 -47 -370.334 -141 -497.001c-52.667 -70.667 -118.667 -124.834 -198 -162.501s-167.666 -56.5 -264.999 -56.5c-96.667 0 -184.834 19 -264.501 57
s-144.834 92 -195.501 162c-92.667 128.667 -139 292.667 -139 492c0 212.667 49.667 383 149 511c54.667 70.667 124.334 124 209.001 160c77.333 32.667 161.333 49 252 49zM689 1333c-78.667 0 -145.999 -35 -201.999 -105c-82 -102 -123 -279.667 -123 -533
c0 -170 17.667 -315.333 53 -436c20.667 -70.667 55.334 -127.334 104.001 -170.001c43.333 -38 97.666 -57 162.999 -57c93.333 0 166.666 40.333 219.999 121c67.333 102.667 101 281.334 101 536.001c0 184 -18.333 329.667 -55 437c-46.667 138 -133.667 207 -261 207z
M406.001 1497l-65 18.999c28 70.667 52 119 72 145c40 50.667 89 76 147 76c42.667 0 94.334 -15.333 155.001 -46c65.333 -33.333 111.666 -50 138.999 -50c35.333 0 65 13 89 39c11.333 12 26.666 32.333 45.999 61l66 -15c-26 -79.333 -56.667 -138.333 -92 -177
c-36 -40 -82.667 -60 -140 -60c-29.333 0 -60 6.66699 -92 20c-16 6.66699 -48.333 22.334 -97 47.001c-41.333 20.667 -75.666 31 -102.999 31c-48 0 -89.667 -30 -125 -90z" />
    <glyph glyph-name="Odieresis" unicode="&#xd6;" horiz-adv-x="1368" 
d="M693 1398c119.333 0 228.333 -33.3311 327 -99.998c177.333 -119.333 266 -324.333 266 -615c0 -204.667 -47 -370.334 -141 -497.001c-52.667 -70.667 -118.667 -124.834 -198 -162.501s-167.666 -56.5 -264.999 -56.5c-96.667 0 -184.834 19 -264.501 57
s-144.834 92 -195.501 162c-92.667 128.667 -139 292.667 -139 492c0 212.667 49.667 383 149 511c54.667 70.667 124.334 124 209.001 160c77.333 32.667 161.333 49 252 49zM689 1333c-78.667 0 -145.999 -35 -201.999 -105c-82 -102 -123 -279.667 -123 -533
c0 -170 17.667 -315.333 53 -436c20.667 -70.667 55.334 -127.334 104.001 -170.001c43.333 -38 97.666 -57 162.999 -57c93.333 0 166.666 40.333 219.999 121c67.333 102.667 101 281.334 101 536.001c0 184 -18.333 329.667 -55 437c-46.667 138 -133.667 207 -261 207z
M496.001 1760c38.667 0 72.333 -14.333 101 -43c28.667 -28 43 -62.333 43 -103c0 -40 -14.333 -74.333 -43 -103s-63 -43 -103 -43s-74.333 14.333 -103 43s-43 63 -43 103c0 40.667 14.333 75 43 103c29.333 28.667 64.333 43 105 43zM875 1760
c39.333 0 73 -14.333 101 -43c28.667 -28 43 -62.333 43 -103c0 -40 -14.333 -74.333 -43 -103c-28 -28.667 -62.333 -43 -103 -43c-40 0 -74.333 14.333 -103 43s-43 63 -43 103c0 40.667 14.333 75 43 103c29.333 28.667 64.333 43 105 43z" />
    <glyph glyph-name="multiply" unicode="&#xd7;" horiz-adv-x="1108" 
d="M131 988l124 124l302 -302l297 297l118 -119l-297 -296l302 -302l-124 -124l-302 301l-296 -296l-119 118l297 297z" />
    <glyph glyph-name="Oslash" unicode="&#xd8;" horiz-adv-x="1368" 
d="M1210 1365l103.001 0.00292969l-164 -189c90.667 -126.667 136 -290.334 136 -491.001c0 -204 -47.667 -370.667 -143 -500c-58.667 -80.667 -135.334 -139.334 -230.001 -176.001c-70.667 -28 -147 -42 -229 -42c-168.667 0 -307 54.333 -415 163l-111 -130h-99l161 188
c-91.333 132 -137 295 -137 489c0 214 50 385 150 513c54.667 69.333 124.667 122.666 210 159.999c74.667 32 155 48 241 48c164.667 0 303 -54.333 415 -163zM968.001 1089c-47.333 162.667 -138.333 243.999 -273 243.999c-85.333 0 -156.333 -34.333 -213 -103
c-85.333 -103.333 -128 -285.666 -128 -546.999c0 -104.667 9 -208.667 27 -312zM402.001 279.002c46.667 -164.667 139.667 -247 279 -247c96.667 0 172 40 226 120c70.667 104.667 106 287.667 106 549c0 110 -7.66699 208.333 -23 295z" />
    <glyph glyph-name="Ugrave" unicode="&#xd9;" horiz-adv-x="1416" 
d="M1201 1153l-0.00195312 -666.002c0 -100 -10.333 -176.667 -31 -230c-36.667 -96.667 -98.334 -168.667 -185.001 -216c-76.667 -42.667 -169 -64 -277 -64c-169.333 0 -299.666 51.667 -390.999 155c-48.667 56 -79 121 -91 195c-6.66699 42.667 -10 89.334 -10 140.001
v686c0 47.333 -5 79.666 -15 96.999c-12 22 -40 35.667 -84 41c-23.333 2.66699 -48 4.33398 -74 5.00098v76c116.667 -10 219.334 -15 308.001 -15s191.334 5 308.001 15v-76c-58.667 -1.33301 -99.667 -6.66602 -123 -15.999c-24.667 -10 -39.667 -29.667 -45 -59
c-3.33301 -14.667 -5 -37.334 -5 -68.001v-737c0 -98.667 18.667 -173 56 -223c48.667 -64.667 128.667 -97 240 -97c66.667 0 126.334 12.833 179.001 38.5s91.667 61.167 117 106.5c30 54 45 142.333 45 265v647c-0.666992 47.333 -5.66699 79.666 -15 96.999
c-12 22 -40 35.667 -84 41c-23.333 2.66699 -48 4.33398 -74 5.00098v76c78 -4.66699 149 -7 213 -7c63.333 0 133.666 2.33301 210.999 7v-76c-58.667 -1.33301 -99.667 -6.66602 -123 -15.999c-24.667 -10 -39.667 -29.667 -45 -59c-3.33301 -13.333 -5 -36 -5 -68z
M901.998 1480h-102l-503 268h426z" />
    <glyph glyph-name="Uacute" unicode="&#xda;" horiz-adv-x="1416" 
d="M1201 1153l-0.00195312 -666.002c0 -100 -10.333 -176.667 -31 -230c-36.667 -96.667 -98.334 -168.667 -185.001 -216c-76.667 -42.667 -169 -64 -277 -64c-169.333 0 -299.666 51.667 -390.999 155c-48.667 56 -79 121 -91 195c-6.66699 42.667 -10 89.334 -10 140.001
v686c0 47.333 -5 79.666 -15 96.999c-12 22 -40 35.667 -84 41c-23.333 2.66699 -48 4.33398 -74 5.00098v76c116.667 -10 219.334 -15 308.001 -15s191.334 5 308.001 15v-76c-58.667 -1.33301 -99.667 -6.66602 -123 -15.999c-24.667 -10 -39.667 -29.667 -45 -59
c-3.33301 -14.667 -5 -37.334 -5 -68.001v-737c0 -98.667 18.667 -173 56 -223c48.667 -64.667 128.667 -97 240 -97c66.667 0 126.334 12.833 179.001 38.5s91.667 61.167 117 106.5c30 54 45 142.333 45 265v647c-0.666992 47.333 -5.66699 79.666 -15 96.999
c-12 22 -40 35.667 -84 41c-23.333 2.66699 -48 4.33398 -74 5.00098v76c78 -4.66699 149 -7 213 -7c63.333 0 133.666 2.33301 210.999 7v-76c-58.667 -1.33301 -99.667 -6.66602 -123 -15.999c-24.667 -10 -39.667 -29.667 -45 -59c-3.33301 -13.333 -5 -36 -5 -68z
M636.998 1480l179 268h426l-503 -268h-102z" />
    <glyph glyph-name="Ucircumflex" unicode="&#xdb;" horiz-adv-x="1416" 
d="M1201 1153l-0.00195312 -666.002c0 -100 -10.333 -176.667 -31 -230c-36.667 -96.667 -98.334 -168.667 -185.001 -216c-76.667 -42.667 -169 -64 -277 -64c-169.333 0 -299.666 51.667 -390.999 155c-48.667 56 -79 121 -91 195c-6.66699 42.667 -10 89.334 -10 140.001
v686c0 47.333 -5 79.666 -15 96.999c-12 22 -40 35.667 -84 41c-23.333 2.66699 -48 4.33398 -74 5.00098v76c116.667 -10 219.334 -15 308.001 -15s191.334 5 308.001 15v-76c-58.667 -1.33301 -99.667 -6.66602 -123 -15.999c-24.667 -10 -39.667 -29.667 -45 -59
c-3.33301 -14.667 -5 -37.334 -5 -68.001v-737c0 -98.667 18.667 -173 56 -223c48.667 -64.667 128.667 -97 240 -97c66.667 0 126.334 12.833 179.001 38.5s91.667 61.167 117 106.5c30 54 45 142.333 45 265v647c-0.666992 47.333 -5.66699 79.666 -15 96.999
c-12 22 -40 35.667 -84 41c-23.333 2.66699 -48 4.33398 -74 5.00098v76c78 -4.66699 149 -7 213 -7c63.333 0 133.666 2.33301 210.999 7v-76c-58.667 -1.33301 -99.667 -6.66602 -123 -15.999c-24.667 -10 -39.667 -29.667 -45 -59c-3.33301 -13.333 -5 -36 -5 -68z
M389.998 1456l379 324l378 -324h-96l-282 127l-282 -127h-97z" />
    <glyph glyph-name="Udieresis" unicode="&#xdc;" horiz-adv-x="1416" 
d="M1201 1153l-0.00195312 -666.002c0 -100 -10.333 -176.667 -31 -230c-36.667 -96.667 -98.334 -168.667 -185.001 -216c-76.667 -42.667 -169 -64 -277 -64c-169.333 0 -299.666 51.667 -390.999 155c-48.667 56 -79 121 -91 195c-6.66699 42.667 -10 89.334 -10 140.001
v686c0 47.333 -5 79.666 -15 96.999c-12 22 -40 35.667 -84 41c-23.333 2.66699 -48 4.33398 -74 5.00098v76c116.667 -10 219.334 -15 308.001 -15s191.334 5 308.001 15v-76c-58.667 -1.33301 -99.667 -6.66602 -123 -15.999c-24.667 -10 -39.667 -29.667 -45 -59
c-3.33301 -14.667 -5 -37.334 -5 -68.001v-737c0 -98.667 18.667 -173 56 -223c48.667 -64.667 128.667 -97 240 -97c66.667 0 126.334 12.833 179.001 38.5s91.667 61.167 117 106.5c30 54 45 142.333 45 265v647c-0.666992 47.333 -5.66699 79.666 -15 96.999
c-12 22 -40 35.667 -84 41c-23.333 2.66699 -48 4.33398 -74 5.00098v76c78 -4.66699 149 -7 213 -7c63.333 0 133.666 2.33301 210.999 7v-76c-58.667 -1.33301 -99.667 -6.66602 -123 -15.999c-24.667 -10 -39.667 -29.667 -45 -59c-3.33301 -13.333 -5 -36 -5 -68z
M580.998 1760c38.667 0 72.333 -14.333 101 -43c28.667 -28 43 -62.333 43 -103c0 -40 -14.333 -74.333 -43 -103s-63 -43 -103 -43s-74.333 14.333 -103 43s-43 63 -43 103c0 40.667 14.333 75 43 103c29.333 28.667 64.333 43 105 43zM959.997 1760
c39.333 0 73 -14.333 101 -43c28.667 -28 43 -62.333 43 -103c0 -40 -14.333 -74.333 -43 -103c-28 -28.667 -62.333 -43 -103 -43c-40 0 -74.333 14.333 -103 43s-43 63 -43 103c0 40.667 14.333 75 43 103c28.667 28.667 63.667 43 105 43z" />
    <glyph glyph-name="Yacute" unicode="&#xdd;" horiz-adv-x="1281" 
d="M506 588l-267.999 537.997c-33.333 66 -65.333 111 -96 135c-27.333 18.667 -64.333 30.334 -111 35.001v76c99.333 -10 198.666 -15 297.999 -15c98.667 0 198 5 298 15v-76c-32.667 -1.33301 -57.667 -3.66602 -75 -6.99902c-40 -7.33301 -60 -25.333 -60 -54
c0 -18 9.33301 -45.333 28 -82l225 -450l219 435c22.667 45.333 34 79.333 34 102c0 24.667 -15.667 40.667 -47 48c-16 3.33301 -42.667 6 -80 8v76c74.667 -5.33301 139.334 -8 194.001 -8c55.333 0 120.333 2.66699 195 8v-76
c-46.667 -4.66699 -82.334 -13.334 -107.001 -26.001c-29.333 -15.333 -57.333 -49.333 -84 -102l-293 -580v-376c0.666992 -47.333 5.66699 -79.666 15 -96.999c12 -22 40 -35.667 84 -41c21.333 -2.66699 46 -4.33398 74 -5.00098v-76c-119.333 10 -222.333 15 -309 15
s-189 -5 -307 -15v76c59.333 2 100.333 7.33301 123 16c24.667 10.667 39.667 30.334 45 59.001c3.33301 14.667 5 37.334 5 68.001v376zM557.001 1480l179 268h426l-503 -268h-102z" />
    <glyph glyph-name="Thorn" unicode="&#xde;" horiz-adv-x="1207" 
d="M497 335l-0.00195312 -123.001c0.666992 -47.333 5.66699 -79.666 15 -96.999c12 -22 40 -35.667 84 -41c21.333 -2.66699 46 -4.33398 74 -5.00098v-76c-118 10 -220.667 15 -308 15s-190 -5 -308 -15v76c59.333 2 100.333 7.33301 123 16
c24 10.667 39 30.334 45 59.001c3.33301 15.333 5 38 5 68v941c0 47.333 -5 79.666 -15 96.999c-12 22 -40 35.667 -84 41c-23.333 2.66699 -48 4.33398 -74 5.00098v76c116.667 -10 219.334 -15 308.001 -15s191.334 5 308.001 15v-76
c-58.667 -1.33301 -99.667 -6.66602 -123 -15.999c-24.667 -10 -39.667 -29.667 -45 -59c-3.33301 -14.667 -5 -37.334 -5 -68.001v-33h156c78.667 0 142.5 -5 191.5 -15s93.167 -27.333 132.5 -52c52.667 -32.667 95 -79 127 -139c30 -57.333 45 -118.333 45 -183
c0 -90 -27.333 -170.667 -82 -242c-78.667 -102.667 -206.667 -154 -384 -154h-186zM496.998 411.999h89c100 0 172.667 24.333 218 73c50 53.333 75 133 75 239c0 108.667 -23.667 190 -71 244c-44 50 -116 75 -216 75h-95v-631z" />
    <glyph glyph-name="germandbls" unicode="&#xdf;" horiz-adv-x="1109" 
d="M512 698l0.000976562 81.9971c80 8 135 33 165 75c29.333 40.667 44 108.667 44 204c0 76.667 -9 135.334 -27 176.001c-21.333 49.333 -61 74 -119 74s-96 -22.333 -114 -67c-11.333 -27.333 -17 -65.666 -17 -114.999v-1131c-67.333 3.33301 -126.333 5 -177 5
c-66.667 0 -143 -2.66699 -229 -8v58c64 2.66699 104 9.66699 120 21c18 14 27 48.667 27 104v785c0 119.333 22.333 208.666 67 267.999c31.333 42.667 73.666 77 126.999 103c60.667 29.333 125 44 193 44c106.667 0 195.334 -30.333 266.001 -91
c74.667 -63.333 112 -145.333 112 -246c0 -126 -72.333 -221.667 -217 -287c80 -23.333 141.333 -54.666 184 -93.999c39.333 -36 70.166 -81.333 92.499 -136s33.5 -112 33.5 -172c0 -104 -29.667 -190.333 -89 -259c-64.667 -75.333 -147.667 -113 -249 -113
c-53.333 0 -106.666 14.667 -159.999 44v68c33.333 -14 62 -21 86 -21c64 0 107.667 26.333 131 79c20.667 46.667 31 112.334 31 197.001c0 136.667 -31 232.667 -93 288c-38.667 34 -101.334 55.667 -188.001 65z" />
    <glyph glyph-name="agrave" unicode="&#xe0;" horiz-adv-x="1020" 
d="M989 61l0.00292969 -58.9971c-56.667 -14.667 -107.334 -22 -152.001 -22c-68.667 0 -120.334 19.667 -155.001 59c-24 27.333 -39.667 68.666 -47 123.999c-62.667 -123.333 -156.334 -185 -281.001 -185c-82 0 -150.333 22.333 -205 67
c-60.667 49.333 -91 115.333 -91 198c0 189.333 182 308.666 546 357.999v138c0 60.667 -8.33301 103.334 -25 128.001c-26 38.667 -67.667 58 -125 58c-36 0 -68.333 -8.66699 -97 -26c-28 -16.667 -42 -37.334 -42 -62.001c0 -8 1 -17 3 -27c5.33301 -30 8 -51 8 -63
c0 -71.333 -35.667 -107 -107 -107c-64 0 -96 31.667 -96 95c0 68 33.333 126.333 100 175c71.333 52.667 160.333 79 267 79c146 0 251.333 -44.333 316 -133c27.333 -38.667 44.666 -95.334 51.999 -170.001c3.33301 -32.667 5 -79.667 5 -141v-354
c0 -46.667 3 -80 9 -100c8 -26.667 28.333 -40 61 -40c14.667 0 33.334 3.33301 56.001 10zM604.003 544.003c-78 -15.333 -137 -33.999 -177 -55.999c-73.333 -40.667 -110 -110.334 -110 -209.001c0 -58 11.667 -103.667 35 -137c24 -35.333 58.333 -53 103 -53
c32.667 0 61 9.5 85 28.5s40.667 45.5 50 79.5c9.33301 30.667 14 81 14 151v196zM651.003 1123h-90l-425 286h393z" />
    <glyph glyph-name="aacute" unicode="&#xe1;" horiz-adv-x="1020" 
d="M989 61l0.00292969 -58.9971c-56.667 -14.667 -107.334 -22 -152.001 -22c-68.667 0 -120.334 19.667 -155.001 59c-24 27.333 -39.667 68.666 -47 123.999c-62.667 -123.333 -156.334 -185 -281.001 -185c-82 0 -150.333 22.333 -205 67
c-60.667 49.333 -91 115.333 -91 198c0 189.333 182 308.666 546 357.999v138c0 60.667 -8.33301 103.334 -25 128.001c-26 38.667 -67.667 58 -125 58c-36 0 -68.333 -8.66699 -97 -26c-28 -16.667 -42 -37.334 -42 -62.001c0 -8 1 -17 3 -27c5.33301 -30 8 -51 8 -63
c0 -71.333 -35.667 -107 -107 -107c-64 0 -96 31.667 -96 95c0 68 33.333 126.333 100 175c71.333 52.667 160.333 79 267 79c146 0 251.333 -44.333 316 -133c27.333 -38.667 44.666 -95.334 51.999 -170.001c3.33301 -32.667 5 -79.667 5 -141v-354
c0 -46.667 3 -80 9 -100c8 -26.667 28.333 -40 61 -40c14.667 0 33.334 3.33301 56.001 10zM604.003 544.003c-78 -15.333 -137 -33.999 -177 -55.999c-73.333 -40.667 -110 -110.334 -110 -209.001c0 -58 11.667 -103.667 35 -137c24 -35.333 58.333 -53 103 -53
c32.667 0 61 9.5 85 28.5s40.667 45.5 50 79.5c9.33301 30.667 14 81 14 151v196zM379.003 1123l122 286h393l-425 -286h-90z" />
    <glyph glyph-name="acircumflex" unicode="&#xe2;" horiz-adv-x="1020" 
d="M989 61l0.00292969 -58.9971c-56.667 -14.667 -107.334 -22 -152.001 -22c-68.667 0 -120.334 19.667 -155.001 59c-24 27.333 -39.667 68.666 -47 123.999c-62.667 -123.333 -156.334 -185 -281.001 -185c-82 0 -150.333 22.333 -205 67
c-60.667 49.333 -91 115.333 -91 198c0 189.333 182 308.666 546 357.999v138c0 60.667 -8.33301 103.334 -25 128.001c-26 38.667 -67.667 58 -125 58c-36 0 -68.333 -8.66699 -97 -26c-28 -16.667 -42 -37.334 -42 -62.001c0 -8 1 -17 3 -27c5.33301 -30 8 -51 8 -63
c0 -71.333 -35.667 -107 -107 -107c-64 0 -96 31.667 -96 95c0 68 33.333 126.333 100 175c71.333 52.667 160.333 79 267 79c146 0 251.333 -44.333 316 -133c27.333 -38.667 44.666 -95.334 51.999 -170.001c3.33301 -32.667 5 -79.667 5 -141v-354
c0 -46.667 3 -80 9 -100c8 -26.667 28.333 -40 61 -40c14.667 0 33.334 3.33301 56.001 10zM604.003 544.003c-78 -15.333 -137 -33.999 -177 -55.999c-73.333 -40.667 -110 -110.334 -110 -209.001c0 -58 11.667 -103.667 35 -137c24 -35.333 58.333 -53 103 -53
c32.667 0 61 9.5 85 28.5s40.667 45.5 50 79.5c9.33301 30.667 14 81 14 151v196zM158.003 1099l345 343l345 -343h-96l-249 148l-249 -148h-96z" />
    <glyph glyph-name="atilde" unicode="&#xe3;" horiz-adv-x="1020" 
d="M989 61l0.00292969 -58.9971c-56.667 -14.667 -107.334 -22 -152.001 -22c-68.667 0 -120.334 19.667 -155.001 59c-24 27.333 -39.667 68.666 -47 123.999c-62.667 -123.333 -156.334 -185 -281.001 -185c-82 0 -150.333 22.333 -205 67
c-60.667 49.333 -91 115.333 -91 198c0 189.333 182 308.666 546 357.999v138c0 60.667 -8.33301 103.334 -25 128.001c-26 38.667 -67.667 58 -125 58c-36 0 -68.333 -8.66699 -97 -26c-28 -16.667 -42 -37.334 -42 -62.001c0 -8 1 -17 3 -27c5.33301 -30 8 -51 8 -63
c0 -71.333 -35.667 -107 -107 -107c-64 0 -96 31.667 -96 95c0 68 33.333 126.333 100 175c71.333 52.667 160.333 79 267 79c146 0 251.333 -44.333 316 -133c27.333 -38.667 44.666 -95.334 51.999 -170.001c3.33301 -32.667 5 -79.667 5 -141v-354
c0 -46.667 3 -80 9 -100c8 -26.667 28.333 -40 61 -40c14.667 0 33.334 3.33301 56.001 10zM604.003 544.003c-78 -15.333 -137 -33.999 -177 -55.999c-73.333 -40.667 -110 -110.334 -110 -209.001c0 -58 11.667 -103.667 35 -137c24 -35.333 58.333 -53 103 -53
c32.667 0 61 9.5 85 28.5s40.667 45.5 50 79.5c9.33301 30.667 14 81 14 151v196zM226.003 1144l-64.001 17.999c28.667 72 52.667 120.667 72 146c39.333 50.667 88 76 146 76c42.667 0 94 -15.667 154 -47c64.667 -33.333 110.667 -50 138 -50
c35.333 0 64.666 13 87.999 39c10.667 11.333 25.667 32 45 62l66 -16c-25.333 -78.667 -55.666 -137.667 -90.999 -177c-35.333 -40 -81.666 -60 -138.999 -60c-30 0 -60.667 6.66699 -92 20c-14.667 6.66699 -46.667 22.334 -96 47.001c-41.333 21.333 -75.333 32 -102 32
c-48 0 -89.667 -30 -125 -90z" />
    <glyph glyph-name="adieresis" unicode="&#xe4;" horiz-adv-x="1020" 
d="M989 61l0.00292969 -58.9971c-56.667 -14.667 -107.334 -22 -152.001 -22c-68.667 0 -120.334 19.667 -155.001 59c-24 27.333 -39.667 68.666 -47 123.999c-62.667 -123.333 -156.334 -185 -281.001 -185c-82 0 -150.333 22.333 -205 67
c-60.667 49.333 -91 115.333 -91 198c0 189.333 182 308.666 546 357.999v138c0 60.667 -8.33301 103.334 -25 128.001c-26 38.667 -67.667 58 -125 58c-36 0 -68.333 -8.66699 -97 -26c-28 -16.667 -42 -37.334 -42 -62.001c0 -8 1 -17 3 -27c5.33301 -30 8 -51 8 -63
c0 -71.333 -35.667 -107 -107 -107c-64 0 -96 31.667 -96 95c0 68 33.333 126.333 100 175c71.333 52.667 160.333 79 267 79c146 0 251.333 -44.333 316 -133c27.333 -38.667 44.666 -95.334 51.999 -170.001c3.33301 -32.667 5 -79.667 5 -141v-354
c0 -46.667 3 -80 9 -100c8 -26.667 28.333 -40 61 -40c14.667 0 33.334 3.33301 56.001 10zM604.003 544.003c-78 -15.333 -137 -33.999 -177 -55.999c-73.333 -40.667 -110 -110.334 -110 -209.001c0 -58 11.667 -103.667 35 -137c24 -35.333 58.333 -53 103 -53
c32.667 0 61 9.5 85 28.5s40.667 45.5 50 79.5c9.33301 30.667 14 81 14 151v196zM294.003 1416c36 0 67.333 -14.332 94 -42.999c26.667 -28 40 -62.333 40 -103c0 -40 -13.333 -74.333 -40 -103s-58.667 -43 -96 -43s-69.333 14.333 -96 43s-40 63 -40 103
c0 41.333 13.333 75.666 40 102.999c27.333 28.667 60 43 98 43zM715.003 1416c36.667 0 68.332 -14.333 94.999 -43c26.667 -28 40 -62.333 40 -103c0 -40 -13.333 -74.333 -40 -103s-59 -43 -97 -43c-37.333 0 -69.333 14.333 -96 43s-40 63 -40 103s13.333 74.333 40 103
s59.334 43 98.001 43z" />
    <glyph glyph-name="aring" unicode="&#xe5;" horiz-adv-x="1020" 
d="M989 61l0.00292969 -58.9971c-56.667 -14.667 -107.334 -22 -152.001 -22c-68.667 0 -120.334 19.667 -155.001 59c-24 27.333 -39.667 68.666 -47 123.999c-62.667 -123.333 -156.334 -185 -281.001 -185c-82 0 -150.333 22.333 -205 67
c-60.667 49.333 -91 115.333 -91 198c0 189.333 182 308.666 546 357.999v138c0 60.667 -8.33301 103.334 -25 128.001c-26 38.667 -67.667 58 -125 58c-36 0 -68.333 -8.66699 -97 -26c-28 -16.667 -42 -37.334 -42 -62.001c0 -8 1 -17 3 -27c5.33301 -30 8 -51 8 -63
c0 -71.333 -35.667 -107 -107 -107c-64 0 -96 31.667 -96 95c0 68 33.333 126.333 100 175c71.333 52.667 160.333 79 267 79c146 0 251.333 -44.333 316 -133c27.333 -38.667 44.666 -95.334 51.999 -170.001c3.33301 -32.667 5 -79.667 5 -141v-354
c0 -46.667 3 -80 9 -100c8 -26.667 28.333 -40 61 -40c14.667 0 33.334 3.33301 56.001 10zM604.003 544.003c-78 -15.333 -137 -33.999 -177 -55.999c-73.333 -40.667 -110 -110.334 -110 -209.001c0 -58 11.667 -103.667 35 -137c24 -35.333 58.333 -53 103 -53
c32.667 0 61 9.5 85 28.5s40.667 45.5 50 79.5c9.33301 30.667 14 81 14 151v196zM506.003 1465c48.667 0 91 -18 127 -54c35.333 -35.333 53 -78.333 53 -129s-17.667 -93.667 -53 -129c-36 -36 -79.333 -54 -130 -54s-93.667 18 -129 54c-36 35.333 -54 78.333 -54 129
c0 51.333 18 94.333 54 129c36.667 36 80.667 54 132 54zM502.003 1377c-26 0 -47.999 -9.33301 -65.999 -28c-18.667 -18.667 -28 -41 -28 -67s9.33301 -48.333 28 -67c18 -18.667 40.333 -28 67 -28c26 0 48.333 9.33301 67 28s28 41 28 67c0 26.667 -9.33301 49 -28 67
c-18.667 18.667 -41.334 28 -68.001 28z" />
    <glyph glyph-name="ae" unicode="&#xe6;" horiz-adv-x="1544" 
d="M1394 306h85.001c-16 -84.667 -48.333 -153.667 -97 -207c-74 -80.667 -177.667 -121 -311 -121c-189.333 0 -325.666 78.667 -408.999 236c-16.667 -62 -39.667 -109.667 -69 -143c-55.333 -62.667 -134 -94 -236 -94c-84 0 -153.667 22.667 -209 68
c-60 48.667 -90 113.667 -90 195c0 128.667 75.667 221.667 227 279c82.667 31.333 189 50.333 319 57v163c0 60.667 -8.33301 103.334 -25 128.001c-25.333 38.667 -67 58 -125 58c-38 0 -71.667 -9.33301 -101 -28c-26.667 -16.667 -40 -36.334 -40 -59.001
c0 -9.33301 1.33301 -20 4 -32c6 -26.667 9 -46.667 9 -60c0 -70.667 -35.667 -106 -107 -106c-64 0 -96 31.667 -96 95c0 68 33.333 126.333 100 175c71.333 52.667 160.666 79 267.999 79c117.333 0 211 -32.333 281 -97c83.333 64.667 178.666 97 285.999 97
c96.667 0 181.334 -27 254.001 -81c103.333 -76 158.666 -216 165.999 -420h-609c3.33301 -125.333 12 -211.333 26 -258c35.333 -114 113.333 -171 234 -171c92 0 162.667 37 212 111c25.333 38 43 83.333 53 136zM604.001 487c-79.333 -2.66699 -139.667 -12.333 -181 -29
c-71.333 -28 -107 -88.333 -107 -181c0 -56 11.667 -101 35 -135c24 -35.333 58.667 -53 104 -53c32.667 0 61 9.5 85 28.5s41 45.5 51 79.5c8.66699 30 13 80.333 13 151v139zM1211 577.001c-2 72 -8.33301 135 -19 189c-22 111.333 -69.667 167 -143 167
c-110 0 -169.333 -118.667 -178 -356h340z" />
    <glyph glyph-name="ccedilla" unicode="&#xe7;" horiz-adv-x="953" 
d="M548 -26l-47.002 -80c117.333 -2 176 -48.333 176 -139c0 -48.667 -18.333 -88 -55 -118c-33.333 -27.333 -77 -41 -131 -41c-46.667 0 -103.667 12 -171 36v70c48.667 -14 86.667 -21 114 -21c26 0 46.333 7.66699 61 23c14 14 21 32.333 21 55
c0 41.333 -24.333 66.666 -73 75.999c-13.333 2.66699 -36.333 4.33398 -69 5.00098l81 137c-88.667 14 -163 48.667 -223 104c-101.333 94 -152 226.333 -152 397c0 145.333 38.667 266 116 362c85.333 104.667 196 157 332 157c93.333 0 172.666 -31.333 237.999 -94
l63 109h41v-383h-62c-10 68.667 -24.667 124 -44 166s-46.166 75 -80.499 99s-72.166 36 -113.499 36c-150 0 -225 -150 -225 -450c0 -284 73.333 -426 220 -426c80 0 142.667 38 188 114c22 38 37 86 45 144h86c-15.333 -114 -57.666 -200.333 -126.999 -259
c-56 -46 -125.667 -72.333 -209 -79z" />
    <glyph glyph-name="egrave" unicode="&#xe8;" horiz-adv-x="983" 
d="M837 305h80c-14.667 -85.333 -46 -155.333 -94 -210c-71.333 -81.333 -172 -122 -302 -122c-140 0 -251.667 48.333 -335 145c-80 92.667 -120 214.667 -120 366c0 159.333 42 285.333 126 378c81.333 89.333 186 134 314 134c95.333 0 178.333 -27.333 249 -82
c80 -61.333 130 -161.333 150 -300c6 -38 10 -81.667 12 -131h-586v-35c0 -107.333 14.667 -197 44 -269c34 -83.333 102.333 -125 205 -125c90 0 158.667 37.667 206 113c24.667 39.333 41.667 85.333 51 138zM655 558c-2 84 -8.33203 155 -18.999 213
c-20.667 112.667 -65.334 169 -134.001 169c-76 0 -126.667 -65.333 -152 -196c-9.33301 -48.667 -15 -110.667 -17 -186h322zM646.001 1123h-90l-425 286h393z" />
    <glyph glyph-name="eacute" unicode="&#xe9;" horiz-adv-x="983" 
d="M837 305h80c-14.667 -85.333 -46 -155.333 -94 -210c-71.333 -81.333 -172 -122 -302 -122c-140 0 -251.667 48.333 -335 145c-80 92.667 -120 214.667 -120 366c0 159.333 42 285.333 126 378c81.333 89.333 186 134 314 134c95.333 0 178.333 -27.333 249 -82
c80 -61.333 130 -161.333 150 -300c6 -38 10 -81.667 12 -131h-586v-35c0 -107.333 14.667 -197 44 -269c34 -83.333 102.333 -125 205 -125c90 0 158.667 37.667 206 113c24.667 39.333 41.667 85.333 51 138zM655 558c-2 84 -8.33203 155 -18.999 213
c-20.667 112.667 -65.334 169 -134.001 169c-76 0 -126.667 -65.333 -152 -196c-9.33301 -48.667 -15 -110.667 -17 -186h322zM387.001 1123l122 286h393l-425 -286h-90z" />
    <glyph glyph-name="ecircumflex" unicode="&#xea;" horiz-adv-x="983" 
d="M837 305h80c-14.667 -85.333 -46 -155.333 -94 -210c-71.333 -81.333 -172 -122 -302 -122c-140 0 -251.667 48.333 -335 145c-80 92.667 -120 214.667 -120 366c0 159.333 42 285.333 126 378c81.333 89.333 186 134 314 134c95.333 0 178.333 -27.333 249 -82
c80 -61.333 130 -161.333 150 -300c6 -38 10 -81.667 12 -131h-586v-35c0 -107.333 14.667 -197 44 -269c34 -83.333 102.333 -125 205 -125c90 0 158.667 37.667 206 113c24.667 39.333 41.667 85.333 51 138zM655 558c-2 84 -8.33203 155 -18.999 213
c-20.667 112.667 -65.334 169 -134.001 169c-76 0 -126.667 -65.333 -152 -196c-9.33301 -48.667 -15 -110.667 -17 -186h322zM160.001 1099l345 343l345 -343h-96l-249 148l-249 -148h-96z" />
    <glyph glyph-name="edieresis" unicode="&#xeb;" horiz-adv-x="983" 
d="M837 305h80c-14.667 -85.333 -46 -155.333 -94 -210c-71.333 -81.333 -172 -122 -302 -122c-140 0 -251.667 48.333 -335 145c-80 92.667 -120 214.667 -120 366c0 159.333 42 285.333 126 378c81.333 89.333 186 134 314 134c95.333 0 178.333 -27.333 249 -82
c80 -61.333 130 -161.333 150 -300c6 -38 10 -81.667 12 -131h-586v-35c0 -107.333 14.667 -197 44 -269c34 -83.333 102.333 -125 205 -125c90 0 158.667 37.667 206 113c24.667 39.333 41.667 85.333 51 138zM655 558c-2 84 -8.33203 155 -18.999 213
c-20.667 112.667 -65.334 169 -134.001 169c-76 0 -126.667 -65.333 -152 -196c-9.33301 -48.667 -15 -110.667 -17 -186h322zM296.001 1416c36 0 67.333 -14.332 94 -42.999c26.667 -28 40 -62.333 40 -103c0 -40 -13.333 -74.333 -40 -103s-58.667 -43 -96 -43
s-69.333 14.333 -96 43s-40 63 -40 103c0 41.333 13.333 75.666 40 102.999c27.333 28.667 60 43 98 43zM717.001 1416c36.667 0 68.332 -14.333 94.999 -43c26.667 -28 40 -62.333 40 -103c0 -40 -13.333 -74.333 -40 -103s-59 -43 -97 -43
c-37.333 0 -69.333 14.333 -96 43s-40 63 -40 103s13.333 74.333 40 103s59.334 43 98.001 43z" />
    <glyph glyph-name="igrave" unicode="&#xec;" horiz-adv-x="652" 
d="M458 1006l0.000976562 -830c0 -55.333 9 -90 27 -104c16 -11.333 56 -18.333 120 -21v-58c-112 8.66699 -204.333 13 -277 13c-71.333 0 -163.333 -4.33301 -276 -13v58c64 2.66699 104 9.66699 120 21c18 14 27 48.667 27 104v559c0 40.667 -1.5 69.5 -4.5 86.5
s-8.5 29.5 -16.5 37.5c-16 14.667 -57 22 -123 22v53c137.333 10.667 271.666 34.667 402.999 72zM454.001 1123h-90l-398 286h380z" />
    <glyph glyph-name="iacute" unicode="&#xed;" horiz-adv-x="652" 
d="M457 1006l0.000976562 -830c0 -55.333 9 -90 27 -104c16 -11.333 56 -18.333 120 -21v-58c-112 8.66699 -204.333 13 -277 13c-71.333 0 -163.333 -4.33301 -276 -13v58c64 2.66699 104 9.66699 120 21c18 14 27 48.667 27 104v559c0 40.667 -1.5 69.5 -4.5 86.5
s-8.5 29.5 -16.5 37.5c-16 14.667 -57 22 -123 22v53c137.333 10.667 271.666 34.667 402.999 72zM181.001 1123l109 286h365l-384 -286h-90z" />
    <glyph glyph-name="icircumflex" unicode="&#xee;" horiz-adv-x="652" 
d="M8 1099l304 343l304 -343h-89l-215 148l-214 -148h-90zM457 1006l0.000976562 -830c0 -55.333 9 -90 27 -104c16 -11.333 56 -18.333 120 -21v-58c-112 8.66699 -204.333 13 -277 13c-71.333 0 -163.333 -4.33301 -276 -13v58c64 2.66699 104 9.66699 120 21
c18 14 27 48.667 27 104v559c0 40.667 -1.5 69.5 -4.5 86.5s-8.5 29.5 -16.5 37.5c-16 14.667 -57 22 -123 22v53c137.333 10.667 271.666 34.667 402.999 72z" />
    <glyph glyph-name="idieresis" unicode="&#xef;" horiz-adv-x="653" 
d="M458 1006l0.000976562 -830c0 -55.333 9 -90 27 -104c16 -11.333 56 -18.333 120 -21v-58c-112 8.66699 -204.333 13 -277 13c-71.333 0 -163.333 -4.33301 -276 -13v58c64 2.66699 104 9.66699 120 21c18 14 27 48.667 27 104v559c0 40.667 -1.5 69.5 -4.5 86.5
s-8.5 29.5 -16.5 37.5c-16 14.667 -57 22 -123 22v53c137.333 10.667 271.666 34.667 402.999 72zM146.001 1411c35.333 0 65.667 -13.666 91 -40.999c26 -28 39 -61.333 39 -100s-13 -71.667 -39 -99c-25.333 -28 -56.333 -42 -93 -42c-36 0 -67 14 -93 42
c-26 27.333 -39 60.333 -39 99c0 39.333 13 72.666 39 99.999s57.667 41 95 41zM484.002 1411c35.333 0 65.667 -13.667 91 -41c26 -27.333 39 -60.666 39 -99.999s-13 -72.333 -39 -99c-26 -28 -57 -42 -93 -42s-67 14 -93 42c-26 27.333 -39 60.333 -39 99
c0 39.333 13 72.666 39 99.999s57.667 41 95 41z" />
    <glyph glyph-name="eth" unicode="&#xf0;" horiz-adv-x="1027" 
d="M318 1357l59.999 39l119 -136l155 98l43 -69l-142 -91l146 -165c72 -81.333 128.333 -154 169 -218c62 -97.333 93 -207.333 93 -330c0 -128.667 -36.333 -240.667 -109 -336c-88 -114 -199.667 -171 -335 -171c-128 0 -235 47.667 -321 143
c-86.667 95.333 -130 216.333 -130 363c0 130 36.667 242 110 336c88.667 112.667 201.334 169 338.001 169c9.33301 0 21 -0.666992 35 -2l-93 150l-151 -95l-43 67l151 97zM505.999 933c-48 0 -87.666 -24.666 -118.999 -73.999c-38 -60.667 -57 -173.334 -57 -338.001
c0 -114.667 8.66699 -213 26 -295c27.333 -128 82.333 -192 165 -192c82 0 134 51.667 156 155c14 64.667 21 143 21 235c0 130 -9.33301 238 -28 324c-26.667 123.333 -81.334 185 -164.001 185z" />
    <glyph glyph-name="ntilde" unicode="&#xf1;" horiz-adv-x="1218" 
d="M382 992c22.667 -50.667 36.0029 -108.002 40.0029 -172.002c29.333 45.333 59.666 80 90.999 104c58 43.333 128 65 210 65c118.667 0 205.334 -41 260.001 -123c34 -50.667 51 -123.667 51 -219v-471c0 -55.333 9 -90 27 -104c16 -11.333 56 -18.333 120 -21v-58
c-92 8 -176.333 12 -253 12c-80 0 -163.333 -4 -250 -12v55c45.333 1.33301 73.666 11 84.999 29c8 12.667 12.333 41.667 13 87v516c0 64 -8 109.333 -24 136c-26.667 42.667 -69.334 64 -128.001 64c-61.333 0 -107.666 -23.333 -138.999 -70
c-18.667 -28.667 -28 -73.667 -28 -135v-511c0 -45.333 4.33301 -74.333 13 -87c11.333 -18 39.666 -27.667 84.999 -29v-55c-87.333 8 -171 12 -251 12c-76 0 -160 -4 -252 -12v58c63.333 3.33301 103.333 10.333 120 21c18 13.333 27 48 27 104v556
c-0.666992 40 -1.33398 66.333 -2.00098 79c-2 20.667 -7.66699 35.834 -17 45.501s-24.333 15.834 -45 18.501c-19.333 2 -48 3 -86 3v54c134.667 13.333 245.667 33.333 333 60zM319.003 1144l-64.001 17.999c28.667 72 52.667 120.667 72 146c39.333 50.667 88 76 146 76
c42.667 0 94 -15.667 154 -47c64.667 -33.333 110.667 -50 138 -50c35.333 0 64.666 13 87.999 39c10.667 11.333 25.667 32 45 62l66 -16c-25.333 -78.667 -55.666 -137.667 -90.999 -177c-35.333 -40 -81.666 -60 -138.999 -60c-30 0 -60.667 6.66699 -92 20
c-14.667 6.66699 -46.667 22.334 -96 47.001c-41.333 21.333 -75.333 32 -102 32c-48 0 -89.667 -30 -125 -90z" />
    <glyph glyph-name="ograve" unicode="&#xf2;" horiz-adv-x="1027" 
d="M528 996c133.333 0 242 -54.667 326 -164c71.333 -92.667 107 -207.334 107 -344.001c0 -136 -39 -253 -117 -351c-88 -109.333 -198 -164 -330 -164c-133.333 0 -243 51 -329 153c-79.333 94.667 -119 212.334 -119 353.001s39.667 259 119 355
c88.667 108 203 162 343 162zM514 939c-122.667 0 -184 -152.667 -184 -458c0 -125.333 10.667 -229 32 -311c24.667 -93.333 74.667 -140 150 -140c80.667 0 133 50.667 157 152c18.667 77.333 28 172.666 28 285.999c0 146.667 -11.333 259.334 -34 338.001
c-26 88.667 -75.667 133 -149 133zM654 1123h-90l-425 286h393z" />
    <glyph glyph-name="oacute" unicode="&#xf3;" horiz-adv-x="1027" 
d="M528 996c133.333 0 242 -54.667 326 -164c71.333 -92.667 107 -207.334 107 -344.001c0 -136 -39 -253 -117 -351c-88 -109.333 -198 -164 -330 -164c-133.333 0 -243 51 -329 153c-79.333 94.667 -119 212.334 -119 353.001s39.667 259 119 355
c88.667 108 203 162 343 162zM514 939c-122.667 0 -184 -152.667 -184 -458c0 -125.333 10.667 -229 32 -311c24.667 -93.333 74.667 -140 150 -140c80.667 0 133 50.667 157 152c18.667 77.333 28 172.666 28 285.999c0 146.667 -11.333 259.334 -34 338.001
c-26 88.667 -75.667 133 -149 133zM396 1123l122 286h393l-425 -286h-90z" />
    <glyph glyph-name="ocircumflex" unicode="&#xf4;" horiz-adv-x="1027" 
d="M528 996c133.333 0 242 -54.667 326 -164c71.333 -92.667 107 -207.334 107 -344.001c0 -136 -39 -253 -117 -351c-88 -109.333 -198 -164 -330 -164c-133.333 0 -243 51 -329 153c-79.333 94.667 -119 212.334 -119 353.001s39.667 259 119 355
c88.667 108 203 162 343 162zM514 939c-122.667 0 -184 -152.667 -184 -458c0 -125.333 10.667 -229 32 -311c24.667 -93.333 74.667 -140 150 -140c80.667 0 133 50.667 157 152c18.667 77.333 28 172.666 28 285.999c0 146.667 -11.333 259.334 -34 338.001
c-26 88.667 -75.667 133 -149 133zM169 1099l345 343l345 -343h-96l-249 148l-249 -148h-96z" />
    <glyph glyph-name="otilde" unicode="&#xf5;" horiz-adv-x="1027" 
d="M528 996c133.333 0 242 -54.667 326 -164c71.333 -92.667 107 -207.334 107 -344.001c0 -136 -39 -253 -117 -351c-88 -109.333 -198 -164 -330 -164c-133.333 0 -243 51 -329 153c-79.333 94.667 -119 212.334 -119 353.001s39.667 259 119 355
c88.667 108 203 162 343 162zM514 939c-122.667 0 -184 -152.667 -184 -458c0 -125.333 10.667 -229 32 -311c24.667 -93.333 74.667 -140 150 -140c80.667 0 133 50.667 157 152c18.667 77.333 28 172.666 28 285.999c0 146.667 -11.333 259.334 -34 338.001
c-26 88.667 -75.667 133 -149 133zM230 1144l-64.001 17.999c28.667 72 52.667 120.667 72 146c39.333 50.667 88 76 146 76c42.667 0 94 -15.667 154 -47c64.667 -33.333 110.667 -50 138 -50c35.333 0 64.666 13 87.999 39c10.667 11.333 25.667 32 45 62l66 -16
c-25.333 -78.667 -55.666 -137.667 -90.999 -177c-35.333 -40 -81.666 -60 -138.999 -60c-30 0 -60.667 6.66699 -92 20c-14.667 6.66699 -46.667 22.334 -96 47.001c-41.333 21.333 -75.333 32 -102 32c-48 0 -89.667 -30 -125 -90z" />
    <glyph glyph-name="odieresis" unicode="&#xf6;" horiz-adv-x="1027" 
d="M528 996c133.333 0 242 -54.667 326 -164c71.333 -92.667 107 -207.334 107 -344.001c0 -136 -39 -253 -117 -351c-88 -109.333 -198 -164 -330 -164c-133.333 0 -243 51 -329 153c-79.333 94.667 -119 212.334 -119 353.001s39.667 259 119 355
c88.667 108 203 162 343 162zM514 939c-122.667 0 -184 -152.667 -184 -458c0 -125.333 10.667 -229 32 -311c24.667 -93.333 74.667 -140 150 -140c80.667 0 133 50.667 157 152c18.667 77.333 28 172.666 28 285.999c0 146.667 -11.333 259.334 -34 338.001
c-26 88.667 -75.667 133 -149 133zM305 1416c36 0 67.333 -14.332 94 -42.999c26.667 -28 40 -62.333 40 -103c0 -40 -13.333 -74.333 -40 -103s-58.667 -43 -96 -43s-69.333 14.333 -96 43s-40 63 -40 103c0 41.333 13.333 75.666 40 102.999c27.333 28.667 60 43 98 43z
M726 1416c36.667 0 68.332 -14.333 94.999 -43c26.667 -28 40 -62.333 40 -103c0 -40 -13.333 -74.333 -40 -103s-59 -43 -97 -43c-37.333 0 -69.333 14.333 -96 43s-40 63 -40 103s13.333 74.333 40 103s59.334 43 98.001 43z" />
    <glyph glyph-name="divide" unicode="&#xf7;" horiz-adv-x="1108" 
d="M95 607v164h918v-164h-918zM556 493c37.333 0 69.667 -13.667 97 -41c27.333 -26.667 41 -59.667 41 -99c0 -38.667 -13.667 -71.667 -41 -99s-60.333 -41 -99 -41s-71.667 13.667 -99 41s-41 60.333 -41 99c0 39.333 13.667 72.333 41 99c28 27.333 61.667 41 101 41z
M556.001 1165c37.333 0 69.667 -13.667 97 -41s41 -60.333 41 -99s-13.667 -71.667 -41 -99s-60.333 -41 -99 -41s-71.667 13.667 -99 41s-41 60.333 -41 99c0 39.333 13.667 72.333 41 99c28 27.333 61.667 41 101 41z" />
    <glyph glyph-name="oslash" unicode="&#xf8;" horiz-adv-x="1014" 
d="M116 -22h-84l138 162c-26 36 -46.333 68.667 -61 98c-32.667 67.333 -49 146.333 -49 237c0 145.333 39.667 266 119 362c86.667 106.667 197.334 160 332.001 160c96.667 0 177 -25.333 241 -76c12.667 -10 28.334 -23.667 47.001 -41l93 109h81l-130 -155
c26.667 -37.333 47.667 -72.333 63 -105c32.667 -68 49 -147.333 49 -238c0 -141.333 -39 -260.333 -117 -357c-86.667 -108 -197.334 -162 -332.001 -162c-90.667 0 -170.334 25.333 -239.001 76c-14.667 10.667 -32.667 25.667 -54 45zM343 232
c6.66699 -30 13.333 -55.333 20 -76c28 -82.667 75.667 -124 143 -124c83.333 0 137 53.333 161 160c16 73.333 24 166 24 278c0 66 -3 127.667 -9 185zM669.999 742c-8 39.333 -17.001 71.001 -27.001 95.001c-12 30 -30 54.167 -54 72.5s-50 27.5 -78 27.5
c-53.333 0 -95.666 -26.667 -126.999 -80c-40.667 -68 -61 -192.667 -61 -374c0 -54.667 2.66699 -110.334 8 -167.001z" />
    <glyph glyph-name="ugrave" unicode="&#xf9;" horiz-adv-x="1206" 
d="M428 1006l0.00292969 -704.001c0 -74.667 9.33301 -126 28 -154c27.333 -40.667 67.333 -61 120 -61c67.333 0 116 29 146 87c14.667 28.667 22 73.334 22 134.001v427c-0.666992 70 -7.33398 111.667 -20.001 125c-14 14 -55.333 21 -124 21v53
c137.333 10.667 271.666 34.667 402.999 72v-811c0 -39.333 6.66699 -65 20 -77c13.333 -11.333 36 -18 68 -20c32 -1.33301 53.667 -2.33301 65 -3v-57c-136.667 -14 -252.667 -37.333 -348 -70c-13.333 57.333 -22 118.666 -26 183.999
c-28.667 -49.333 -59 -85.666 -91 -108.999c-54.667 -40 -123 -60 -205 -60c-113.333 0 -199.333 39.333 -258 118c-38.667 51.333 -58 124.333 -58 219v415c-0.666992 70 -7.33398 111.667 -20.001 125c-14 14 -55.667 21 -125 21v53c136.667 10.667 271 34.667 403 72z
M731.003 1123h-90l-425 286h393z" />
    <glyph glyph-name="uacute" unicode="&#xfa;" horiz-adv-x="1206" 
d="M428 1006l0.00292969 -704.001c0 -74.667 9.33301 -126 28 -154c27.333 -40.667 67.333 -61 120 -61c67.333 0 116 29 146 87c14.667 28.667 22 73.334 22 134.001v427c-0.666992 70 -7.33398 111.667 -20.001 125c-14 14 -55.333 21 -124 21v53
c137.333 10.667 271.666 34.667 402.999 72v-811c0 -39.333 6.66699 -65 20 -77c13.333 -11.333 36 -18 68 -20c32 -1.33301 53.667 -2.33301 65 -3v-57c-136.667 -14 -252.667 -37.333 -348 -70c-13.333 57.333 -22 118.666 -26 183.999
c-28.667 -49.333 -59 -85.666 -91 -108.999c-54.667 -40 -123 -60 -205 -60c-113.333 0 -199.333 39.333 -258 118c-38.667 51.333 -58 124.333 -58 219v415c-0.666992 70 -7.33398 111.667 -20.001 125c-14 14 -55.667 21 -125 21v53c136.667 10.667 271 34.667 403 72z
M473.003 1123l122 286h393l-425 -286h-90z" />
    <glyph glyph-name="ucircumflex" unicode="&#xfb;" horiz-adv-x="1206" 
d="M428 1006l0.00292969 -704.001c0 -74.667 9.33301 -126 28 -154c27.333 -40.667 67.333 -61 120 -61c67.333 0 116 29 146 87c14.667 28.667 22 73.334 22 134.001v427c-0.666992 70 -7.33398 111.667 -20.001 125c-14 14 -55.333 21 -124 21v53
c137.333 10.667 271.666 34.667 402.999 72v-811c0 -39.333 6.66699 -65 20 -77c13.333 -11.333 36 -18 68 -20c32 -1.33301 53.667 -2.33301 65 -3v-57c-136.667 -14 -252.667 -37.333 -348 -70c-13.333 57.333 -22 118.666 -26 183.999
c-28.667 -49.333 -59 -85.666 -91 -108.999c-54.667 -40 -123 -60 -205 -60c-113.333 0 -199.333 39.333 -258 118c-38.667 51.333 -58 124.333 -58 219v415c-0.666992 70 -7.33398 111.667 -20.001 125c-14 14 -55.667 21 -125 21v53c136.667 10.667 271 34.667 403 72z
M241.003 1099l345 343l345 -343h-96l-249 148l-249 -148h-96z" />
    <glyph glyph-name="udieresis" unicode="&#xfc;" horiz-adv-x="1206" 
d="M428 1006l0.00292969 -704.001c0 -74.667 9.33301 -126 28 -154c27.333 -40.667 67.333 -61 120 -61c67.333 0 116 29 146 87c14.667 28.667 22 73.334 22 134.001v427c-0.666992 70 -7.33398 111.667 -20.001 125c-14 14 -55.333 21 -124 21v53
c137.333 10.667 271.666 34.667 402.999 72v-811c0 -39.333 6.66699 -65 20 -77c13.333 -11.333 36 -18 68 -20c32 -1.33301 53.667 -2.33301 65 -3v-57c-136.667 -14 -252.667 -37.333 -348 -70c-13.333 57.333 -22 118.666 -26 183.999
c-28.667 -49.333 -59 -85.666 -91 -108.999c-54.667 -40 -123 -60 -205 -60c-113.333 0 -199.333 39.333 -258 118c-38.667 51.333 -58 124.333 -58 219v415c-0.666992 70 -7.33398 111.667 -20.001 125c-14 14 -55.667 21 -125 21v53c136.667 10.667 271 34.667 403 72z
M378.003 1416c36 0 67.333 -14.332 94 -42.999c26.667 -28 40 -62.333 40 -103c0 -40 -13.333 -74.333 -40 -103s-58.667 -43 -96 -43s-69.333 14.333 -96 43s-40 63 -40 103c0 41.333 13.333 75.666 40 102.999c27.333 28.667 60 43 98 43zM799.003 1416
c36.667 0 68.332 -14.333 94.999 -43c26.667 -28 40 -62.333 40 -103c0 -40 -13.333 -74.333 -40 -103s-59 -43 -97 -43c-37.333 0 -69.333 14.333 -96 43s-40 63 -40 103s13.333 74.333 40 103s59.334 43 98.001 43z" />
    <glyph glyph-name="yacute" unicode="&#xfd;" horiz-adv-x="1095" 
d="M508 26l-304.001 753c-21.333 51.333 -43.666 86.666 -66.999 105.999c-20.667 16 -54 26.333 -100 31v58c96 -7.33301 182.667 -11 260 -11c78 0 164.667 3.66699 260 11v-58c-26.667 -2 -47.334 -4 -62.001 -6c-30.667 -5.33301 -46 -18 -46 -38
c0 -7.33301 5.66699 -28 17 -62l174 -482l192 466c16.667 39.333 25 65 25 77c0 22 -15 35.333 -45 40c-16.667 2.66699 -38.334 4.33398 -65.001 5.00098v58c64.667 -5.33301 118.334 -8 161.001 -8c43.333 0 98.333 2.66699 165 8v-58c-40.667 -4 -72 -15.667 -94 -35
c-22.667 -20 -46 -58.333 -70 -115l-400 -931c-47.333 -110.667 -107.333 -182.667 -180 -216c-39.333 -18.667 -91.333 -28 -156 -28c-13.333 0 -30.666 1 -51.999 3v116c18 -3.33301 35.333 -5 52 -5c56.667 0 102.667 9 138 27c49.333 26 89 70.333 119 133z
M474.999 1123l122 286h393l-425 -286h-90z" />
    <glyph glyph-name="thorn" unicode="&#xfe;" horiz-adv-x="1129" 
d="M430 896c56.667 62 125.334 93.002 206.001 93.002c118 0 218.333 -47 301 -141c84 -96.667 126 -218.667 126 -366c0 -146 -40 -268.333 -120 -367c-74 -91.333 -171.333 -137 -292 -137c-56.667 0 -105.334 11.333 -146.001 34c-22 12 -47 32 -75 60v-296
c-0.666992 -54 8.33301 -88.333 27 -103c16 -11.333 56 -18.333 120 -21v-58c-114 8.66699 -206 13 -276 13s-162 -4.33301 -276 -13v58c63.333 2.66699 103.333 9.66699 120 21c18 13.333 27 47.666 27 102.999v1355c0 40 -1.5 68.667 -4.5 86s-8.83301 30 -17.5 38
c-15.333 15.333 -56.333 22.666 -123 21.999v54c134 8.66699 268.333 32.667 403 72v-507zM608 932.002c-44 0 -81.333 -20.666 -112 -61.999c-45.333 -61.333 -68 -192 -68 -392c0 -132 12 -237 36 -315c12.667 -40 32.5 -71.333 59.5 -94s58.5 -34 94.5 -34
c71.333 0 120 41.333 146 124c23.333 75.333 35 175.666 35 300.999c0 137.333 -11 246.333 -33 327c-26 96.667 -78.667 145 -158 145z" />
    <glyph glyph-name="ydieresis" unicode="&#xff;" horiz-adv-x="1095" 
d="M508 26l-304.001 753c-21.333 51.333 -43.666 86.666 -66.999 105.999c-20.667 16 -54 26.333 -100 31v58c96 -7.33301 182.667 -11 260 -11c78 0 164.667 3.66699 260 11v-58c-26.667 -2 -47.334 -4 -62.001 -6c-30.667 -5.33301 -46 -18 -46 -38
c0 -7.33301 5.66699 -28 17 -62l174 -482l192 466c16.667 39.333 25 65 25 77c0 22 -15 35.333 -45 40c-16.667 2.66699 -38.334 4.33398 -65.001 5.00098v58c64.667 -5.33301 118.334 -8 161.001 -8c43.333 0 98.333 2.66699 165 8v-58c-40.667 -4 -72 -15.667 -94 -35
c-22.667 -20 -46 -58.333 -70 -115l-400 -931c-47.333 -110.667 -107.333 -182.667 -180 -216c-39.333 -18.667 -91.333 -28 -156 -28c-13.333 0 -30.666 1 -51.999 3v116c18 -3.33301 35.333 -5 52 -5c56.667 0 102.667 9 138 27c49.333 26 89 70.333 119 133z
M381.999 1416c36 0 67.333 -14.332 94 -42.999c26.667 -28 40 -62.333 40 -103c0 -40 -13.333 -74.333 -40 -103s-58.667 -43 -96 -43s-69.333 14.333 -96 43s-40 63 -40 103c0 41.333 13.333 75.666 40 102.999c27.333 28.667 60 43 98 43zM802.999 1416
c36.667 0 68.332 -14.333 94.999 -43c26.667 -28 40 -62.333 40 -103c0 -40 -13.333 -74.333 -40 -103s-59 -43 -97 -43c-37.333 0 -69.333 14.333 -96 43s-40 63 -40 103s13.333 74.333 40 103s59.334 43 98.001 43z" />
    <glyph glyph-name="dotlessi" unicode="&#x131;" horiz-adv-x="652" 
d="M457 1006l0.000976562 -830c0 -55.333 9 -90 27 -104c16 -11.333 56 -18.333 120 -21v-58c-112 8.66699 -204.333 13 -277 13c-71.333 0 -163.333 -4.33301 -276 -13v58c64 2.66699 104 9.66699 120 21c18 14 27 48.667 27 104v559c0 40.667 -1.5 69.5 -4.5 86.5
s-8.5 29.5 -16.5 37.5c-16 14.667 -57 22 -123 22v53c137.333 10.667 271.666 34.667 402.999 72z" />
    <glyph glyph-name="Lslash" unicode="&#x141;" horiz-adv-x="1130" 
d="M227 599l-173.001 -101.999v95l173 103v458c0 47.333 -5 79.666 -15 96.999c-12 22 -40 35.667 -84 41c-23.333 2.66699 -48 4.33398 -74 5.00098v76c116.667 -10 219.334 -15 308.001 -15s191.334 5 308.001 15v-76c-58.667 -1.33301 -99.667 -6.66602 -123 -15.999
c-24.667 -10 -39.667 -29.667 -45 -59c-3.33301 -14.667 -5 -37.334 -5 -68.001v-341l281 160v-95l-281 -161v-530c0 -44 7 -72.667 21 -86c16 -14.667 48.333 -22 97 -22h107c76 0.666992 133.333 15.667 172 45c39.333 28.667 77.333 81 114 157
c13.333 29.333 25.666 62.333 36.999 99h65l-66 -379h-990v76c60 1.33301 101 6.66602 123 15.999c24 10 39 29.667 45 59c3.33301 15.333 5 38 5 68v380z" />
    <glyph glyph-name="lslash" unicode="&#x142;" horiz-adv-x="657" 
d="M459 1403v-574.999l146 85v-96l-146 -86v-555c0 -55.333 9 -90 27 -104c16 -11.333 56 -18.333 120 -21v-58c-112.667 8.66699 -204.667 13 -276 13c-72 0 -164.333 -4.33301 -277 -13v58c64 2.66699 104 9.66699 120 21c18 14 27 48.667 27 104v440l-145 -84v96l145 85
v418c0 40.667 -1.5 69.5 -4.5 86.5s-8.5 29.5 -16.5 37.5c-16 15.333 -57 22.666 -123 21.999v54c132.667 9.33301 267 33.333 403 72z" />
    <glyph glyph-name="OE" unicode="&#x152;" horiz-adv-x="1974" 
d="M1009 1153l0.00195312 211.999h803l58 -360h-65c-20 90 -43.333 154 -70 192c-24.667 35.333 -54.667 60 -90 74c-29.333 11.333 -68.333 17 -117 17h-271v-540h251c37.333 0.666992 63 6.66699 77 18c20 16.667 33 46.334 39 89.001c2 15.333 4 36.333 6 63h76v-418h-76
c-2 55.333 -7.33301 93.666 -16 114.999c-8.66699 22 -22.334 37.333 -41.001 46c-15.333 6.66699 -36.666 10 -63.999 10h-252v-486c0 -44 7 -72.667 21 -86c16 -14.667 49 -22 99 -22h127c76 0.666992 133.333 15.667 172 45c39.333 29.333 77.333 82 114 158
c13.333 29.333 25.666 62.333 36.999 99h65l-66 -379h-817v218c-29.333 -60.667 -60 -107.334 -92 -140.001c-66 -67.333 -154 -101 -264 -101c-110.667 0 -212 30.667 -304 92c-96.667 64.667 -167.334 158.334 -212.001 281.001c-36 98.667 -54 210.334 -54 335.001
c0 204.667 49.667 371 149 499c53.333 69.333 119.666 122 198.999 158c67.333 30.667 139.333 46 216 46c176.667 0 297.334 -78.333 362.001 -235zM682.002 1323c-85.333 0 -156.999 -38.001 -214.999 -114.001c-75.333 -98 -113 -273.333 -113 -526
c0 -186 19 -333 57 -441c20.667 -59.333 54.334 -107.666 101.001 -144.999c47.333 -37.333 103.666 -56 168.999 -56c110 0 192.167 53.667 246.5 161s81.5 270 81.5 488c0 176.667 -16.333 314.667 -49 414c-22 67.333 -57 121 -105 161
c-46.667 38.667 -104.334 58 -173.001 58z" />
    <glyph glyph-name="oe" unicode="&#x153;" horiz-adv-x="1637" 
d="M1487 306h84.001c-16.667 -86 -49 -155 -97 -207c-73.333 -80.667 -177 -121 -311 -121c-138.667 0 -252 46.667 -340 140c-90 -93.333 -193.333 -140 -310 -140c-132.667 0 -242 50.333 -328 151c-79.333 93.333 -119 210 -119 350c0 137.333 39.667 254 119 350
c88 106.667 200.667 160 338 160c118 0 219.333 -44 304 -132c89.333 88 196.333 132 321 132c98.667 0 184.334 -27 257.001 -81c107.333 -79.333 162.666 -227.333 165.999 -444h-609c2 -103.333 11 -181.333 27 -234c33.333 -114 110 -171 230 -171
c93.333 0 164.666 37 213.999 111c26 38.667 44 84 54 136zM514.001 933c-122.667 0 -184 -150.998 -184 -452.998c0 -124.667 10.667 -227.334 32 -308.001c24.667 -92 75 -138 151 -138c80 0 132 50 156 150c18.667 76.667 28 171 28 283
c0 145.333 -11.333 256.666 -34 333.999c-26 88 -75.667 132 -149 132zM1305 553.002c-3.33301 88 -10.333 158.999 -21 212.999c-22 111.333 -69.333 167 -142 167c-81.333 0 -135 -64.333 -161 -193c-8 -41.333 -14.333 -103.666 -19 -186.999h343z" />
    <glyph glyph-name="Scaron" unicode="&#x160;" horiz-adv-x="1134" 
d="M115 447l71 -0.000976562c14 -94 39 -169.667 75 -227c33.333 -52.667 79.666 -93.667 138.999 -123c47.333 -24 96 -36 146 -36c80 0 145.667 25.667 197 77c43.333 44 65 96 65 156c0 76 -35 141 -105 195c-33.333 25.333 -97.333 64 -192 116
c-142.667 78.667 -234.667 139.334 -276 182.001c-65.333 66.667 -98 147.334 -98 242.001c0 117.333 45.667 208 137 272c82 57.333 181 86 297 86c89.333 0 166.333 -20.333 231 -61c21.333 -13.333 45.333 -32 72 -56l69 131h44v-422h-71c-13.333 80 -36.333 146 -69 198
c-56 88.667 -135.667 133 -239 133c-72 0 -129.667 -21.333 -173 -64c-41.333 -40.667 -62 -91 -62 -151c0 -54.667 22.667 -100.667 68 -138c22.667 -18.667 66.667 -45.667 132 -81c121.333 -66.667 210.333 -117.667 267 -153c66.667 -42 115 -85.333 145 -130
c38.667 -58 58 -126.333 58 -205c0 -118.667 -41.333 -217.334 -124 -296.001c-79.333 -76.667 -182.333 -115 -309 -115c-105.333 0 -201 25.667 -287 77c-23.333 14 -50.666 33 -81.999 57l-82 -156h-44v492zM952 1775l-378 -324l-379 324h97l282 -127l282 127h96z" />
    <glyph glyph-name="scaron" unicode="&#x161;" horiz-adv-x="924" 
d="M122 -35l0.000976562 370.003h60c7.33301 -54.667 19.666 -101.334 36.999 -140.001c19.333 -44 47.666 -78.833 84.999 -104.5s78.333 -38.5 123 -38.5c50 0 92.333 15.667 127 47c34 30.667 51 67 51 109c0 42.667 -21.333 79.667 -64 111
c-24.667 17.333 -73.667 46.333 -147 87c-115.333 63.333 -187 111 -215 143c-39.333 44.667 -59 99.667 -59 165c0 84.667 32.333 151.667 97 201c66 49.333 147 74 243 74c85.333 0 162 -27 230 -81l50 108h39v-340h-60c-7.33301 53.333 -18.666 96.666 -33.999 129.999
c-33.333 72 -93 108 -179 108c-50 0 -92.667 -14.667 -128 -44c-32 -26.667 -48 -58.334 -48 -95.001c0 -32.667 15.333 -61.667 46 -87c16 -13.333 50.333 -33.333 103 -60c87.333 -44 151 -79 191 -105c49.333 -31.333 84 -59 104 -83c34 -39.333 51 -91.333 51 -156
c0 -87.333 -31.667 -160.333 -95 -219c-63.333 -58 -147.333 -87 -252 -87c-78.667 0 -146.667 19.333 -204 58c-16 10 -35 24.667 -57 44l-56 -115h-39zM807.001 1436l-345 -343l-345 343h96l249 -148l249 148h96z" />
    <glyph glyph-name="Ydieresis" unicode="&#x178;" horiz-adv-x="1281" 
d="M506 588l-267.999 537.997c-33.333 66 -65.333 111 -96 135c-27.333 18.667 -64.333 30.334 -111 35.001v76c99.333 -10 198.666 -15 297.999 -15c98.667 0 198 5 298 15v-76c-32.667 -1.33301 -57.667 -3.66602 -75 -6.99902c-40 -7.33301 -60 -25.333 -60 -54
c0 -18 9.33301 -45.333 28 -82l225 -450l219 435c22.667 45.333 34 79.333 34 102c0 24.667 -15.667 40.667 -47 48c-16 3.33301 -42.667 6 -80 8v76c74.667 -5.33301 139.334 -8 194.001 -8c55.333 0 120.333 2.66699 195 8v-76
c-46.667 -4.66699 -82.334 -13.334 -107.001 -26.001c-29.333 -15.333 -57.333 -49.333 -84 -102l-293 -580v-376c0.666992 -47.333 5.66699 -79.666 15 -96.999c12 -22 40 -35.667 84 -41c21.333 -2.66699 46 -4.33398 74 -5.00098v-76c-119.333 10 -222.333 15 -309 15
s-189 -5 -307 -15v76c59.333 2 100.333 7.33301 123 16c24.667 10.667 39.667 30.334 45 59.001c3.33301 14.667 5 37.334 5 68.001v376zM511.001 1760c38.667 0 72.333 -14.333 101 -43c28.667 -28 43 -62.333 43 -103c0 -40 -14.333 -74.333 -43 -103s-63 -43 -103 -43
s-74.333 14.333 -103 43s-43 63 -43 103c0 40.667 14.333 75 43 103c29.333 28.667 64.333 43 105 43zM890 1760c39.333 0 73 -14.333 101 -43c28.667 -28 43 -62.333 43 -103c0 -40 -14.333 -74.333 -43 -103c-28 -28.667 -62.333 -43 -103 -43
c-40 0 -74.333 14.333 -103 43s-43 63 -43 103c0 40.667 14.333 75 43 103c29.333 28.667 64.333 43 105 43z" />
    <glyph glyph-name="Zcaron" unicode="&#x17d;" horiz-adv-x="1177" 
d="M49 0l695.001 1288h-199c-67.333 0 -120 -8.66699 -158 -26c-76 -32 -138.333 -116.333 -187 -253h-71l61 356h893l-694 -1288h313c72 0.666992 125.667 10.334 161 29.001c54 29.333 102.333 87 145 173c17.333 35.333 33.666 77 48.999 125h71l-69 -404h-1010z
M1014 1775l-378 -324l-379 324h97l282 -127l282 127h96z" />
    <glyph glyph-name="zcaron" unicode="&#x17e;" horiz-adv-x="948" 
d="M54 0l499.999 900.998h-130c-58.667 -0.666992 -102 -9 -130 -25c-45.333 -25.333 -91 -96.666 -137 -213.999h-62l52 305h736l-503 -901h150c61.333 0.666992 107.333 10.334 138 29.001c32.667 20 68 70.333 106 151c12.667 28 24.334 58.333 35.001 91h63l-60 -337
h-758zM862.999 1436l-345 -384l-345 384h96l249 -148l249 148h96z" />
    <glyph glyph-name="florin" unicode="&#x192;" horiz-adv-x="1107" 
d="M968 963l-14.0029 -83.001h-230l-90 -509c-42 -236.667 -89 -395.334 -141 -476.001c-68.667 -106 -166.667 -159 -294 -159c-65.333 0 -118.666 15 -159.999 45c-42.667 31.333 -64 74.666 -64 129.999c0 35.333 9.66699 63.333 29 84c20.667 22 47.334 33 80.001 33
c24.667 0 45 -6 61 -18c17.333 -13.333 26 -31.666 26 -54.999c0 -12 -3.33301 -27.667 -10 -47c-8.66699 -26 -13 -44 -13 -54c0 -25.333 15.333 -38 46 -38c35.333 0 64 27.333 86 82c14.667 34.667 28.667 91 42 169l144 813h-148l13 82h27
c62.667 -0.666992 102.667 10.333 120 33c15.333 18 33.333 66.333 54 145c16.667 62.667 32.334 108 47.001 136c58.667 112.667 160 169 304 169c76 0 134.667 -17.333 176 -52c34.667 -29.333 52 -68.666 52 -117.999c0 -35.333 -9 -63.333 -27 -84
c-18.667 -22 -44 -33 -76 -33c-26.667 0 -49 7 -67 21c-16.667 12 -25 29 -25 51c0 12.667 4 30 12 52c7.33301 20.667 11 36.334 11 47.001c0 24.667 -14.333 37 -43 37c-56.667 0 -94.667 -54.333 -114 -163l-43 -240h229z" />
    <glyph glyph-name="circumflex" unicode="&#x2c6;" 
d="M167 1099l345 343l345 -343h-96l-249 148l-249 -148h-96z" />
    <glyph glyph-name="caron" unicode="&#x2c7;" 
d="M857 1436l-345 -343l-345 343h96l249 -148l249 148h96z" />
    <glyph glyph-name="breve" unicode="&#x2d8;" 
d="M727 1419l80.0039 0.00195312c-8.66699 -59.333 -22.334 -109.333 -41.001 -150c-22.667 -46.667 -56.334 -84.334 -101.001 -113.001c-45.333 -28.667 -96.333 -43 -153 -43c-80 0 -147 27 -201 81c-48.667 48 -80.334 123 -95.001 225h80c28 -44 53.667 -76.333 77 -97
c41.333 -36 87.666 -54 138.999 -54c50.667 0 96.667 18 138 54c24 21.333 49.667 53.666 77 96.999z" />
    <glyph glyph-name="dotaccent" unicode="&#x2d9;" 
d="M514 1416c36 0 67.332 -14.333 93.999 -43c26.667 -28 40 -62.333 40 -103c0 -40 -13.333 -74.333 -40 -103s-58.667 -43 -96 -43s-69.333 14.333 -96 43s-40 63 -40 103c0 40.667 13.333 75 40 103c26.667 28.667 59.334 43 98.001 43z" />
    <glyph glyph-name="ring" unicode="&#x2da;" 
d="M515 1465c48.667 0 91 -18 127 -54c35.333 -35.333 53 -78.333 53 -129s-17.667 -93.667 -53 -129c-36 -36 -79.333 -54 -130 -54s-93.667 18 -129 54c-36 35.333 -54 78.333 -54 129c0 51.333 18 94.333 54 129c36.667 36 80.667 54 132 54zM511 1377
c-26 0 -47.999 -9.33301 -65.999 -28c-18.667 -18.667 -28 -41 -28 -67s9.33301 -48.333 28 -67s41 -28 67 -28s48.333 9.33301 67 28s28 41 28 67c0 26.667 -9.33301 49 -28 67c-18.667 18.667 -41.334 28 -68.001 28z" />
    <glyph glyph-name="ogonek" unicode="&#x2db;" 
d="M633 27l87.001 -15.999c-40.667 -21.333 -76.334 -43 -107.001 -65c-46 -32.667 -69 -67 -69 -103c0 -26 10 -47 30 -63c16.667 -13.333 39 -20 67 -20c22 0 48.333 4.33301 79 13v-70c-53.333 -18.667 -103.333 -28 -150 -28c-56.667 0 -102 13.333 -136 40
c-36 29.333 -54 65.333 -54 108c0 39.333 17.667 74 53 104c40 33.333 106.667 66.666 200 99.999z" />
    <glyph glyph-name="tilde" unicode="&#x2dc;" 
d="M222 1144l-64.001 17.999c28.667 72 52.667 120.667 72 146c39.333 50.667 88 76 146 76c42.667 0 94 -15.667 154 -47c64.667 -33.333 110.667 -50 138 -50c35.333 0 64.666 13 87.999 39c10.667 11.333 25.667 32 45 62l66 -16
c-25.333 -78.667 -55.666 -137.667 -90.999 -177c-35.333 -40 -81.666 -60 -138.999 -60c-30 0 -60.667 6.66699 -92 20c-14.667 6.66699 -46.667 22.334 -96 47.001c-41.333 21.333 -75.333 32 -102 32c-48 0 -89.667 -30 -125 -90z" />
    <glyph glyph-name="hungarumlaut" unicode="&#x2dd;" 
d="M315 1123l173 286h249l-322 -286h-100zM634 1123l183 286h249l-332 -286h-100z" />
    <glyph glyph-name="pi" unicode="&#x3c0;" 
d="M1139 964l-0.00195312 -134h-285c-20 -50.667 -32.667 -85 -38 -103c-14.667 -46.667 -21.667 -89.334 -21 -128.001v-325c0 -63.333 2.66699 -104.333 8 -123c10.667 -40.667 37 -61 79 -61c8 0 22.667 2.33301 44 7c18.667 4.66699 35 8.33398 49 11.001v-39l-259 -89
c-12.667 -4.66699 -21 -7 -25 -7c-10.667 0 -24 7.83301 -40 23.5s-29.333 34.167 -40 55.5c-16 31.333 -24 73.666 -24 126.999v314c0 48.667 8.66699 97 26 145c6.66699 15.333 29.334 51.666 68.001 108.999c24 39.333 43 67 57 83h-343l-5 -228
c-3.33301 -142 -20.666 -302 -51.999 -480c-10 -58 -23 -98.333 -39 -121c-20.667 -28 -45.667 -42 -75 -42c-28 0 -51.333 11 -70 33c-15.333 18.667 -23 39.334 -23 62.001c0 32 15.333 79 46 141c41.333 96 69.333 196 84 300c18.667 132 28.334 243.333 29.001 334
c-74.667 -1.33301 -134.334 -13.666 -179.001 -36.999c-43.333 -25.333 -89 -69 -137 -131l-29 30l133 189c22.667 32.667 51 55.667 85 69c24.667 10 62 15 112 15h864z" />
    <glyph glyph-name="endash" unicode="&#x2013;" horiz-adv-x="1107" 
d="M131 469v94h845v-94h-845z" />
    <glyph glyph-name="emdash" unicode="&#x2014;" horiz-adv-x="1348" 
d="M0 469v94h1348v-94h-1348z" />
    <glyph glyph-name="quoteleft" unicode="&#x2018;" horiz-adv-x="489" 
d="M284 1377l88.999 0.000976562c-64.667 -68.667 -102.667 -141.334 -114 -218.001c34 -2 61.333 -11.333 82 -28c28.667 -23.333 43 -56.666 43 -99.999c0 -41.333 -13.667 -75 -41 -101c-25.333 -23.333 -57.666 -35 -96.999 -35c-44 0 -78.667 14.333 -104 43
c-25.333 27.333 -38 64.666 -38 111.999c0 104.667 60 213.667 180 327z" />
    <glyph glyph-name="quoteright" unicode="&#x2019;" horiz-adv-x="489" 
d="M206 907l-88.999 0.00195312c64 66.667 102 139 114 217c-34 2 -61.667 11.333 -83 28c-28.667 23.333 -43 56.666 -43 99.999c0 42 13.667 75.667 41 101c25.333 23.333 57.666 35 96.999 35c44 0 78.667 -14.333 104 -43c25.333 -28 38 -65.333 38 -112
c0 -106.667 -59.667 -215.334 -179 -326.001z" />
    <glyph glyph-name="quotesinglbase" unicode="&#x201a;" horiz-adv-x="489" 
d="M206 -219l-88.999 0.000976562c64 66 102 138.667 114 218c-33.333 1.33301 -61 10.666 -83 27.999c-28.667 22.667 -43 55.667 -43 99c0 42 13.667 75.667 41 101c25.333 24 57.666 36 96.999 36c44 0 78.667 -14.333 104 -43c25.333 -28 38 -65.333 38 -112
c0 -107.333 -59.667 -216.333 -179 -327z" />
    <glyph glyph-name="quotedblleft" unicode="&#x201c;" horiz-adv-x="830" 
d="M624 1377l89.999 0.00195312c-65.333 -68.667 -103.333 -141.334 -114 -218.001c34 -2 61.333 -11.333 82 -28c28.667 -23.333 43 -56.333 43 -99s-13.667 -76.667 -41 -102c-25.333 -23.333 -57.666 -35 -96.999 -35c-43.333 0 -78 14.333 -104 43
c-25.333 27.333 -38 64.666 -38 111.999c0 104.667 59.667 213.667 179 327zM283.999 1377l88.999 0.000976562c-64.667 -68.667 -102.667 -141.334 -114 -218.001c34 -2 61.333 -11.333 82 -28c28.667 -23.333 43 -56.666 43 -99.999c0 -41.333 -13.667 -75 -41 -101
c-25.333 -23.333 -57.666 -35 -96.999 -35c-44 0 -78.667 14.333 -104 43c-25.333 27.333 -38 64.666 -38 111.999c0 104.667 60 213.667 180 327z" />
    <glyph glyph-name="quotedblright" unicode="&#x201d;" horiz-adv-x="830" 
d="M206 907l-88.999 0.00195312c64 66.667 102 139 114 217c-34 2 -61.667 11.333 -83 28c-28.667 23.333 -43 56.666 -43 99.999c0 42 13.667 75.667 41 101c25.333 23.333 57.666 35 96.999 35c44 0 78.667 -14.333 104 -43c25.333 -28 38 -65.333 38 -112
c0 -106.667 -59.667 -215.334 -179 -326.001zM547.001 907.002l-88.999 0.00195312c64 66.667 102 139 114 217c-34 2 -61.667 11.333 -83 28c-28.667 23.333 -43 56.666 -43 99.999c0 42 13.667 75.667 41 101c25.333 23.333 57.666 35 96.999 35
c44 0 78.667 -14.333 104 -43c25.333 -28 38 -65.333 38 -112c0 -106.667 -59.667 -215.334 -179 -326.001z" />
    <glyph glyph-name="quotedblbase" unicode="&#x201e;" horiz-adv-x="830" 
d="M206 -224l-88.999 0.000976562c64 66 102 138.667 114 218c-33.333 1.33301 -61 10.666 -83 27.999c-28.667 22.667 -43 55.667 -43 99c0 42 13.667 75.667 41 101c25.333 24 57.666 36 96.999 36c44 0 78.667 -14.333 104 -43c25.333 -28 38 -65.333 38 -112
c0 -108 -59.667 -217 -179 -327zM547.001 -223.999l-88.999 0.000976562c64 66.667 102 139.334 114 218.001c-33.333 1.33301 -61 10.666 -83 27.999c-28.667 22.667 -43 56 -43 100c0 41.333 13.667 74.666 41 99.999c25.333 24 57.666 36 96.999 36
c44 0 78.667 -14.333 104 -43c25.333 -28 38 -65.333 38 -112c0 -108 -59.667 -217 -179 -327z" />
    <glyph glyph-name="dagger" unicode="&#x2020;" horiz-adv-x="1108" 
d="M440 -254l14 1048l-309 -22v201l309 -22l-14 380h228l-14 -380l309 22v-201l-309 22l14 -1048h-228z" />
    <glyph glyph-name="daggerdbl" unicode="&#x2021;" horiz-adv-x="1108" 
d="M459 842l-308 -22v191l308 -23l-13 343h216l-13 -343l308 23v-191l-308 22v-590l308 23v-191l-308 22l13 -360h-216l13 360l-308 -22v191l308 -23v590z" />
    <glyph glyph-name="bullet" unicode="&#x2022;" horiz-adv-x="1365" 
d="M689 978c75.333 0 140.666 -27.667 195.999 -83c56 -55.333 84 -122.333 84 -201s-27.667 -145.667 -83 -201s-122.333 -83 -201 -83c-77.333 0 -143.666 27.333 -198.999 82c-56.667 56 -85 123.333 -85 202c0 80.667 28 148 84 202c57.333 54.667 125.333 82 204 82z
" />
    <glyph glyph-name="ellipsis" unicode="&#x2026;" horiz-adv-x="1611" 
d="M271 300c42.667 0 79.999 -15.667 111.999 -47c31.333 -31.333 47 -69.333 47 -114s-15.667 -82.667 -47 -114c-32 -31.333 -70 -47 -114 -47s-82 15.667 -114 47c-31.333 32 -47 70 -47 114c0 45.333 15.667 83.333 47 114c32.667 31.333 71.334 47 116.001 47z
M807.999 300c42.667 0 79.999 -15.667 111.999 -47c31.333 -31.333 47 -69.333 47 -114c0 -44 -15.667 -82 -47 -114c-32 -31.333 -70 -47 -114 -47s-82 15.667 -114 47c-31.333 32 -47 70 -47 114c0 45.333 15.667 83.333 47 114c32.667 31.333 71.334 47 116.001 47z
M1345 300c42.667 0 79.999 -15.667 111.999 -47c31.333 -31.333 47 -69.333 47 -114s-15.667 -82.667 -47 -114c-32 -31.333 -70 -47 -114 -47s-82 15.667 -114 47c-31.333 32 -47 70 -47 114c0 45.333 15.667 83.333 47 114c32.667 31.333 71.334 47 116.001 47z" />
    <glyph glyph-name="perthousand" unicode="&#x2030;" horiz-adv-x="2050" 
d="M369 1376c84.667 0 154.998 -31.998 210.998 -95.998c54 -62 81 -138.667 81 -230c0 -89.333 -27 -166 -81 -230c-57.333 -68 -130 -102 -218 -102c-95.333 0 -171.666 36 -228.999 108c-48 59.333 -72 131.666 -72 216.999c0 89.333 26 164.666 78 225.999
c60.667 71.333 137.334 107 230.001 107zM360.998 1313c-41.333 0 -71.833 -21.834 -91.5 -65.501s-29.5 -111.5 -29.5 -203.5c0 -82 8.33301 -145.333 25 -190c18 -48.667 51 -73 99 -73s80.333 26 97 78c14 44.667 21 107.334 21 188.001c0 84.667 -8 148.667 -24 192
c-18 49.333 -50.333 74 -97 74zM234.998 0.000976562l792 1365h107l-793 -1365h-106zM1015 647.001c84.667 0 155 -31.998 211 -95.998c54 -61.333 81 -138 81 -230c0 -89.333 -27 -166 -81 -230c-57.333 -68 -130 -102 -218 -102c-94.667 0 -171 36 -229 108
c-48 59.333 -72 131.666 -72 216.999c0 89.333 26 164.666 78 225.999c60 71.333 136.667 107 230 107zM1007 585.003c-80.667 0 -121 -89.334 -121 -268.001c0 -82.667 8.33301 -146.667 25 -192c18 -48.667 50.667 -73 98 -73c48.667 0 81.334 26 98.001 78
c14 44.667 21 107.667 21 189c0 84.667 -7.66699 148.334 -23 191.001c-18.667 50 -51.334 75 -98.001 75zM1696 648.002c85.333 0 155.665 -31.998 210.998 -95.998c54 -62 81 -139 81 -231c0 -88.667 -27 -165.334 -81 -230.001c-57.333 -68 -129.666 -102 -216.999 -102
c-95.333 0 -172 36 -230 108c-48 59.333 -72 131.666 -72 216.999c0 89.333 26 165 78 227c60.667 71.333 137.334 107 230.001 107zM1688 585.004c-80.667 0 -121.001 -89.667 -121.001 -269c0 -82.667 8.33301 -146.667 25 -192c18 -48.667 50.667 -73 98 -73
c48.667 0 81.334 26.333 98.001 79c14 44.667 21 107.667 21 189c0 84 -8 147.667 -24 191c-18 50 -50.333 75 -97 75z" />
    <glyph glyph-name="guilsinglleft" unicode="&#x2039;" horiz-adv-x="566" 
d="M384 967h66l-150 -478l150 -489h-66l-299 489z" />
    <glyph glyph-name="guilsinglright" unicode="&#x203a;" horiz-adv-x="566" 
d="M182 967l300 -478l-300 -489h-66l151 489l-151 478h66z" />
    <glyph glyph-name="glyph270" unicode="&#x20ac;" horiz-adv-x="1107" 
d="M422 830l514.999 -0.000976562l-41 -90h-479c-1.33301 -47.333 -1.66602 -82 -0.999023 -104h433l-41 -90h-388c3.33301 -82 18 -160 44 -234c24 -67.333 52 -116.666 84 -147.999c43.333 -42.667 102 -64 176 -64c132.667 0 245.334 62 338.001 186v-163
c-98.667 -99.333 -222.334 -149 -371.001 -149c-234 0 -395.667 107 -485 321c-32 75.333 -51 159 -57 251h-174l55 90h115c0 28.667 1 63.334 3 104.001h-160l55 90h114c18 125.333 54.667 230.666 110 315.999c106 164 248.333 246 427 246
c114.667 0 206.667 -36.333 276 -109l44 104h52v-403h-63c-14.667 72 -32 128.333 -52 169c-48.667 96 -121 144 -217 144c-124 0 -213.667 -80 -269 -240c-24 -69.333 -38.333 -145 -43 -227z" />
    <glyph glyph-name="trademark" unicode="&#x2122;" horiz-adv-x="1932" 
d="M475 1310l0.000976562 -633.002c0 -27.333 3 -45.666 9 -54.999c8.66699 -15.333 41.667 -23.666 99 -24.999v-55c-68.667 6.66699 -134 10 -196 10s-127 -3.33301 -195 -10v55c38.667 0.666992 65 3.66699 79 9s22.333 16 25 32c2 8.66699 3 21.667 3 39v633h-33
c-56.667 0 -100 -19 -130 -57c-19.333 -25.333 -35.333 -65.333 -48 -120h-53l42 232h622l42 -232h-53c-13.333 60 -32 103.333 -56 130c-28.667 31.333 -69.334 47 -122.001 47h-35zM998.001 1246l-11.9961 -568.996c-0.666992 -34.667 5.66602 -56.667 18.999 -66
c13.333 -8.66699 42.666 -13.667 87.999 -15v-54c-54.667 3.33301 -98.334 5 -131.001 5c-28 0 -75.333 -1.66699 -142 -5v54c39.333 1.33301 65.666 4.66602 78.999 9.99902s21.666 15.666 24.999 30.999c2 6.66699 3 20 3 40l13 557c0 34.667 -6.33301 56.667 -19 66
c-13.333 8.66699 -42.666 13.334 -87.999 14.001v56c50.667 -4 100 -6 148 -6c48.667 0 98.667 2 150 6l227 -526l229 526c49.333 -4 97.333 -6 144 -6s94.667 2 144 6v-55c-49.333 -2 -80 -8 -92 -18c-10.667 -10.667 -15.667 -31.334 -15 -62.001l11 -558
c0.666992 -28 3.66699 -46.333 9 -55c9.33301 -16 42 -24.667 98 -26v-54c-76 6 -141.333 9 -196 9c-54 0 -119 -3 -195 -9v54c50 1.33301 80.667 7.33301 92 18c10 10 15 31 15 63l-10 562l-223 -520c-16.667 -38.667 -35 -88.334 -55 -149.001h-33
c-15.333 45.333 -36.333 100.666 -63 165.999z" />
    <glyph glyph-name="uni2126" unicode="&#x2126;" horiz-adv-x="1365" 
d="M1426 275l-77.9971 -275.001h-583v121c60.667 32.667 107 61.834 139 87.501s62.667 57.5 92 95.5c90 119.333 135 264.333 135 435c0 159.333 -38 295 -114 407c-78 116.667 -189.333 175 -334 175c-157.333 0 -276.333 -70.333 -357 -211
c-60.667 -106 -91 -227.667 -91 -365c0 -91.333 15 -179.333 45 -264s71.667 -157.334 125 -218.001c43.333 -49.333 108.666 -96.666 195.999 -141.999v-121h-585l-77 275h41c18.667 -57.333 46.667 -96.666 84 -117.999c30 -17.333 68.333 -27 115 -29l65 -2l224 -10v13
c-68.667 25.333 -122.334 48.666 -161.001 69.999s-76.334 48 -113.001 80c-69.333 61.333 -123 132.666 -161 213.999s-57 165.333 -57 252c0 116 33.667 226.667 101 332c132 206.667 334.333 310 607 310c231.333 0 412 -73.333 542 -220
c108.667 -123.333 163 -262 163 -416c0 -145.333 -46.333 -275.333 -139 -390c-66 -81.333 -147 -143.666 -243 -186.999c-31.333 -14 -67.666 -29 -108.999 -45v-13l242 11c52 2 88.667 5 110 9c51.333 12.667 89 42 113 88c5.33301 9.33301 12.666 26.333 21.999 51h41z
" />
    <glyph glyph-name="partialdiff" unicode="&#x2202;" 
d="M290 1379l19.999 37.001c130.667 -50.667 243.334 -121 338.001 -211c86 -80.667 160 -192.334 222 -335.001c64.667 -148.667 97 -282.667 97 -402c0 -140 -41.333 -256.333 -124 -349c-89.333 -100 -200.333 -150 -333 -150c-115.333 0 -214 37 -296 111
c-104 94.667 -156 217.667 -156 369c0 113.333 30.333 213 91 299c48 68 113 117.667 195 149c54.667 20.667 107 31 157 31c34.667 0 69.834 -5.16699 105.501 -15.5s63.167 -23.5 82.5 -39.5c4.66699 -4 19.667 -18.333 45 -43l21 -20c-36 102 -73 182.333 -111 241
c-34.667 54 -68.834 99.167 -102.501 135.5s-75.167 72.5 -124.5 108.5c-52 38.667 -94.333 66.667 -127 84zM513.999 874.001c-56.667 0 -105.667 -22.333 -147 -67c-26.667 -28.667 -50.334 -74.667 -71.001 -138c-24 -74 -36 -147 -36 -219
c0 -87.333 16.667 -175.333 50 -264c22.667 -60.667 57.334 -106 104.001 -136c28 -18 59.667 -27 95 -27c50.667 0 99.334 24 146.001 72c29.333 30 53.666 75 72.999 135c24 72.667 36 150 36 232c0 96 -16 182 -48 258c-44 102.667 -111.333 154 -202 154z" />
    <glyph glyph-name="uni2206" unicode="&#x2206;" horiz-adv-x="1365" 
d="M739 1395l629 -1395h-1371l626 1395h116zM615 1166l-394 -880.999c-18 -40.667 -27 -71.334 -27 -92.001c0 -22 8 -38 24 -48c12 -8 36.667 -12 74 -12h774z" />
    <glyph glyph-name="product" unicode="&#x220f;" horiz-adv-x="1365" 
d="M-9 1365h1383v-39h-46c-59.333 0 -98 -12.333 -116 -37c-12.667 -18.667 -19.334 -60.667 -20.001 -126v-1438c0 -64.667 6.66699 -106.667 20 -126c16.667 -24.667 54 -37 112 -37h49v-40h-592v40h44c60.667 0 99.334 12.333 116.001 37c13.333 19.333 20 61.333 20 126
v1438c0 65.333 -6.66699 107.333 -20 126c-17.333 24.667 -56 37 -116 37h-280c-60 0 -98.667 -12.333 -116 -37c-13.333 -19.333 -20 -61.333 -20 -126v-1438c0 -65.333 6.66699 -107.333 20 -126c16.667 -24.667 54 -37 112 -37h49v-40h-593v40h44
c60.667 0 99.334 12.333 116.001 37c13.333 19.333 20 61.333 20 126v1438c0 65.333 -6.66699 107.333 -20 126c-17.333 24.667 -56 37 -116 37h-50v39z" />
    <glyph glyph-name="summation" unicode="&#x2211;" horiz-adv-x="1365" 
d="M101 1365l1089 0.000976562v-341h-40c-9.33301 90 -36 158 -80 204c-30 31.333 -69 52.666 -117 63.999c-34.667 8 -80.334 12 -137.001 12h-449l409 -757l-497 -898h537c78 0 138 7 180 21c123.333 40.667 202.666 139.667 237.999 297h40l-68 -445h-1105l509 919z" />
    <glyph glyph-name="minus" unicode="&#x2212;" horiz-adv-x="1108" 
d="M95 604v170h918v-170h-918z" />
    <glyph glyph-name="uni2215" unicode="&#x2215;" horiz-adv-x="134" 
d="M-373 0l773 1332h106l-773 -1332h-106z" />
    <glyph glyph-name="uni2219" unicode="&#x2219;" horiz-adv-x="537" 
d="M271 662c42.667 0 79.999 -15.667 111.999 -47c31.333 -31.333 47 -69.333 47 -114s-15.667 -82.667 -47 -114c-32 -31.333 -70 -47 -114 -47s-82 15.667 -114 47c-31.333 32 -47 70 -47 114c0 45.333 15.667 83.333 47 114c32.667 31.333 71.334 47 116.001 47z" />
    <glyph glyph-name="radical" unicode="&#x221a;" horiz-adv-x="1365" 
d="M1331 1686v-65h-236l-379 -1621h-212l-175 728h-295v65h468l161 -690l372 1583h296z" />
    <glyph glyph-name="infinity" unicode="&#x221e;" horiz-adv-x="1365" 
d="M625 558c-36 -55.333 -69.002 -98.667 -99.002 -130c-60 -62.667 -129 -94 -207 -94c-86 0 -159.333 31.667 -220 95c-60.667 64.667 -91 145.667 -91 243c0 113.333 36.333 207 109 281c64.667 66 143 99 235 99c131.333 0 247.666 -82 348.999 -246l22 35
c51.333 82 95 135.333 131 160c50.667 35.333 107.334 53 170.001 53c96 0 176.333 -36 241 -108c61.333 -68 92 -152.333 92 -253c0 -113.333 -37 -206 -111 -278c-33.333 -32 -72.666 -57.333 -117.999 -76s-90.666 -28 -135.999 -28c-91.333 0 -177.333 37.333 -258 112
c-40.667 37.333 -77 82.333 -109 135zM735.998 755.999c54 -87.333 102.001 -150 144.001 -188c71.333 -64 144.333 -96 219 -96c52 0 96.333 17 133 51c46 42.667 69 97.667 69 165c0 64.667 -22.667 115 -68 151c-51.333 40.667 -121.666 61 -210.999 61
c-70.667 0 -131.334 -13.667 -182.001 -41c-28.667 -15.333 -53.334 -35.333 -74.001 -60c-21.333 -26 -31.333 -40.333 -30 -43zM582.999 618.999c-46 72.667 -84.667 126.998 -116 162.998c-61.333 71.333 -133.666 107 -216.999 107c-52 0 -94.333 -17.333 -127 -52
c-40 -42.667 -60 -94.667 -60 -156s22 -108.666 66 -141.999c48 -36.667 112.333 -55 193 -55c60.667 0 113 11.667 157 35c27.333 14.667 50.666 33.334 69.999 56.001c24 28 35.333 42.667 34 44z" />
    <glyph glyph-name="integral" unicode="&#x222b;" horiz-adv-x="1025" 
d="M628 1027l0.00195312 -1015c0 -108 -3.66699 -183.667 -11 -227c-18.667 -113.333 -65 -197.666 -139 -252.999c-58.667 -43.333 -129.667 -65 -213 -65c-88.667 0 -160 22 -214 66c-54.667 43.333 -82 97.333 -82 162c0 38 13 70 39 96c24.667 24.667 55 37 91 37
c34 0 63.333 -12 88 -36c24 -22.667 36 -49.334 36 -80.001c0 -20.667 -6 -40.334 -18 -59.001c-12.667 -20 -19 -36.667 -19 -50c0 -12 4 -23.333 12 -34c12.667 -17.333 31.667 -26 57 -26c43.333 0 77.666 26.333 102.999 79c26 53.333 39 127 39 221v1067
c0 112.667 3.33301 190 10 232c18.667 114 65.334 198.667 140.001 254c58.667 42.667 129.667 64 213 64c89.333 0 161 -21.667 215 -65c54 -44 81 -98.333 81 -163c0 -37.333 -13 -69.333 -39 -96c-24.667 -24.667 -54.667 -37 -90 -37c-34.667 0 -64.334 12 -89.001 36
c-24 22.667 -36 49.334 -36 80.001c0 21.333 5.66699 41 17 59c13.333 20 20 36.333 20 49c0 16 -5.33301 29.667 -16 41c-12.667 13.333 -30.334 20 -53.001 20c-94.667 0 -142 -119 -142 -357z" />
    <glyph glyph-name="approxequal" unicode="&#x2248;" 
d="M931 1004l41.999 -22c-31.333 -51.333 -72 -97.333 -122 -138c-57.333 -47.333 -117.666 -71 -180.999 -71c-28.667 0 -63.334 5.66699 -104.001 17c-8 2.66699 -37.667 12 -89 28c-87.333 26.667 -152.666 40 -195.999 40c-50 0 -92 -15.333 -126 -46l-62 -63l-41 23
c95.333 140 197 210 305 210c40.667 0 105.667 -14.333 195 -43c80 -25.333 140.667 -38 182 -38c49.333 0 100.333 20.333 153 61c16 12.667 30.667 26.667 44 42zM930.999 677l41.998 -22.999c-31.333 -50.667 -72 -96.334 -122 -137.001
c-57.333 -47.333 -117.666 -71 -180.999 -71c-28.667 0 -63.334 5.66699 -104.001 17c-8 2.66699 -37.667 11.667 -89 27c-87.333 26.667 -152.666 40 -195.999 40c-50 0 -92 -15.333 -126 -46c-2 -2.66699 -22.667 -23.667 -62 -63l-41 23
c94.667 140 196.334 210 305.001 210c40.667 0 105.667 -14 195 -42c80 -25.333 140.667 -38 182 -38c71.333 0 137 34.333 197 103z" />
    <glyph glyph-name="notequal" unicode="&#x2260;" 
d="M553 933l119 257l103 -47l-98 -210h311v-111h-362l-87 -186h450v-111h-502l-127 -271l-102 48l104 223h-327v111h379l87 186h-467v111h519z" />
    <glyph glyph-name="lessequal" unicode="&#x2264;" 
d="M939 1278v-98l-589 -380l589 -396v-260l-854 576v15zM85 89h854v-89h-854v89z" />
    <glyph glyph-name="greaterequal" unicode="&#x2265;" 
d="M85 89h854v-89h-854v89zM85 144v98l589 380l-589 395v261l854 -582v-14z" />
    <glyph glyph-name="lozenge" unicode="&#x25ca;" horiz-adv-x="1365" 
d="M683 1419l531 -736l-531 -736l-532 736zM683 1238l-404 -555l404 -554l403 554z" />
    <glyph glyph-name="uniF001" unicode="&#xf001;" horiz-adv-x="1323" 
d="M444 967l233 0.000976562v-79h-233v-712c0 -55.333 9 -90 27 -104c16.667 -11.333 56.667 -18.333 120 -21v-58c-112 8.66699 -204 13 -276 13s-164 -4.33301 -276 -13v58c64 2.66699 104 9.66699 120 21c18 14 27 48.667 27 104v712h-146v76
c60.667 0.666992 101.667 6.33398 123 17.001c17.333 9.33301 29.333 27.666 36 54.999c2 9.33301 4.66699 30.666 8 63.999c7.33301 66 16 112.333 26 139c20 56 57 99 111 129c48 26.667 103.333 40 166 40c77.333 0 141 -18.667 191 -56c42 -31.333 63 -74.333 63 -129
c0 -63.333 -31.333 -95 -94 -95c-63.333 0 -95 23 -95 69c0 10 2.33301 28 7 54c2.66699 14 4 26.667 4 38c0 16.667 -4.66699 30.667 -14 42c-10 13.333 -23.333 20 -40 20c-58.667 0 -88 -63 -88 -189v-195zM1127 1006l0.000976562 -830.001c0 -55.333 9 -90 27 -104
c16 -10.667 56 -17.667 120 -21v-58c-112 8.66699 -204.333 13 -277 13c-71.333 0 -163.333 -4.33301 -276 -13v58c64 2.66699 104 9.66699 120 21c18.667 14.667 27.667 49.334 27 104.001v559c0 40.667 -1.5 69.5 -4.5 86.5s-8.5 29.5 -16.5 37.5
c-16 14.667 -57 22 -123 22v53c137.333 10.667 271.666 34.667 402.999 72zM988.001 1414c39.333 0 73.001 -15.333 101.001 -46s42 -68 42 -112c0 -44.667 -13.667 -82 -41 -112c-26.667 -30 -60.334 -45 -101.001 -45s-75 15.333 -103 46s-42 68 -42 112
c0 44.667 13.667 82 41 112c26.667 30 61 45 103 45z" />
    <glyph glyph-name="uniF002" unicode="&#xf002;" horiz-adv-x="1300" 
d="M723 1332c131.333 9.33301 262 33.002 392 71.002v-1227c0 -55.333 9 -90 27 -104c16.667 -11.333 56.667 -18.333 120 -21v-58c-112 8.66699 -204 13 -276 13s-164 -4.33301 -276 -13v58c63.333 3.33301 103.333 10.333 120 21c18 14 27 48.667 27 104v955
c0 40.667 -1.33301 69.167 -4 85.5s-8 28.833 -16 37.5c-12.667 14 -40 21.333 -82 22c6 -18.667 9 -36.667 9 -54c0 -62.667 -31.333 -94 -94 -94c-63.333 0 -95 22.667 -95 68c0 12 1.66699 26.667 5 44s5 31.666 5 42.999c0 15.333 -4 29.333 -12 42
c-8.66699 14 -22 21 -40 21c-59.333 0 -89 -61.333 -89 -184v-195h233v-79h-233v-712c0 -55.333 9 -90 27 -104c16.667 -11.333 56.667 -18.333 120 -21v-58c-112 8.66699 -204 13 -276 13s-164 -4.33301 -276 -13v58c64 2.66699 104 9.66699 120 21c18 14 27 48.667 27 104
v712h-146v76c60.667 0.666992 101.667 6.33398 123 17.001c17.333 9.33301 29 27.666 35 54.999c2.66699 9.33301 5.66699 30.666 9 63.999c7.33301 66 16 112.333 26 139c20 56 57 99 111 129c48 26.667 103.333 40 166 40c94 0 165 -25.333 213 -76z" />
    <glyph glyph-name="glyph1" horiz-adv-x="0" 
 />
    <glyph glyph-name="glyph2" horiz-adv-x="512" 
 />
    <glyph glyph-name="glyph172" horiz-adv-x="1107" 
 />
    <glyph glyph-name="glyph210" horiz-adv-x="1365" 
d="M984 1416v-20c0 -108 -42.333 -196.667 -127 -266c-53.333 -43.333 -102 -66 -146 -68c-8.66699 -0.666992 -19 -1 -31 -1c0 94 27.333 173.667 82 239c60.667 69.333 134.667 108 222 116zM1277 935c-43.333 -32.667 -76.0039 -63.333 -98.0039 -92
c-44.667 -56 -67 -120 -67 -192c0 -100 37 -183.333 111 -250c22.667 -20.667 53.334 -39.334 92.001 -56.001c-43.333 -107.333 -89.666 -192.666 -138.999 -255.999c-73.333 -95.333 -142.666 -143 -207.999 -143c-26 0 -53.333 6 -82 18l-83 34
c-11.333 4.66699 -36.333 7 -75 7c-48.667 0 -81.334 -3.33301 -98.001 -10l-87 -35c-27.333 -11.333 -53.666 -17 -78.999 -17c-36 0 -73.833 14.5 -113.5 43.5s-77.167 70.167 -112.5 123.5c-114.667 170.667 -172 346 -172 526c0 117.333 33.333 219.333 100 306
c68.667 90 162.334 135 281.001 135c44.667 0 98 -12 160 -36c45.333 -17.333 79 -26 101 -26c20.667 0 49 7 85 21c47.333 18 81 29.667 101 35c24 6.66699 53 10 87 10c126 0 224.667 -48.667 296 -146z" />
    <glyph glyph-name="glyph247" horiz-adv-x="512" 
 />
    <glyph glyph-name="glyph248" horiz-adv-x="512" 
 />
    <glyph glyph-name="glyph249" horiz-adv-x="512" 
 />
    <glyph glyph-name="glyph250" horiz-adv-x="512" 
 />
    <glyph glyph-name="glyph251" horiz-adv-x="512" 
 />
    <glyph glyph-name="glyph252" horiz-adv-x="512" 
 />
    <glyph glyph-name="glyph253" horiz-adv-x="512" 
 />
    <glyph glyph-name="glyph254" horiz-adv-x="512" 
 />
    <glyph glyph-name="glyph255" horiz-adv-x="512" 
 />
    <glyph glyph-name="glyph256" horiz-adv-x="512" 
 />
    <glyph glyph-name="glyph257" horiz-adv-x="512" 
 />
    <glyph glyph-name="glyph261" 
d="M652 1480h-102l-503 268h426z" />
    <glyph glyph-name="glyph262" 
d="M345 1411c35.333 0 65.667 -13.666 91 -40.999c26 -28 39 -61.333 39 -100s-13 -71.667 -39 -99c-25.333 -28 -56.333 -42 -93 -42c-36 0 -67 14 -93 42c-26 27.333 -39 60.333 -39 99c0 39.333 13 72.666 39 99.999s57.667 41 95 41zM683.001 1411
c35.333 0 65.667 -13.667 91 -41c26 -27.333 39 -60.666 39 -99.999s-13 -72.333 -39 -99c-26 -28 -57 -42 -93 -42s-67 14 -93 42c-26 27.333 -39 60.333 -39 99c0 39.333 13 72.666 39 99.999s57.667 41 95 41z" />
    <glyph glyph-name="glyph263" 
d="M335 1754c37.333 0 69.667 -13.667 97 -41s41 -60 41 -98c0 -38.667 -13.667 -71.667 -41 -99s-60 -41 -98 -41c-38.667 0 -71.667 13.667 -99 41s-41 60 -41 98c0 39.333 13.667 72.333 41 99c28 27.333 61.333 41 100 41zM692.001 1754c37.333 0 69.667 -13.667 97 -41
s41 -60 41 -98c0 -38.667 -13.667 -71.667 -41 -99s-60 -41 -98 -41c-38.667 0 -71.667 13.667 -99 41s-41 60 -41 98c0 39.333 13.667 72.333 41 99c28 27.333 61.333 41 100 41z" />
    <glyph glyph-name="glyph264" 
d="M890 1775l-378 -324l-379 324h97l282 -127l282 127h96z" />
    <glyph glyph-name="glyph265" 
d="M133 1456l379 324l378 -324h-96l-282 127l-282 -127h-97z" />
    <glyph glyph-name="glyph266" 
d="M220 1497l-65 18.999c28 70.667 52 119 72 145c40 50.667 89 76 147 76c42.667 0 94.334 -15.333 155.001 -46c65.333 -33.333 111.666 -50 138.999 -50c35.333 0 65 13 89 39c11.333 12 26.666 32.333 45.999 61l66 -15c-26 -79.333 -56.667 -138.333 -92 -177
c-36 -40 -82.667 -60 -140 -60c-29.333 0 -60 6.66699 -92 20c-16 6.66699 -48.333 22.334 -97 47.001c-41.333 20.667 -75.666 31 -102.999 31c-48 0 -89.667 -30 -125 -90z" />
    <glyph glyph-name="glyph267" 
d="M324 1760c38.667 0 72.333 -14.333 101 -43c28.667 -28 43 -62.333 43 -103c0 -40 -14.333 -74.333 -43 -103s-63 -43 -103 -43s-74.333 14.333 -103 43s-43 63 -43 103c0 40.667 14.333 75 43 103c29.333 28.667 64.333 43 105 43zM702.999 1760
c39.333 0 73 -14.333 101 -43c28.667 -28 43 -62.333 43 -103c0 -40 -14.333 -74.333 -43 -103c-28 -28.667 -62.333 -43 -103 -43c-40 0 -74.333 14.333 -103 43s-43 63 -43 103c0 40.667 14.333 75 43 103c29.333 28.667 64.333 43 105 43z" />
    <glyph glyph-name="glyph268" 
d="M460 1480l179 268h426l-503 -268h-102z" />
    <glyph glyph-name="glyph269" 
d="M525 1812c48.667 0 91 -18 127 -54c35.333 -35.333 53 -78.333 53 -129s-17.667 -93.667 -53 -129c-36 -36 -79.333 -54 -130 -54s-93.667 18 -129 54c-36 35.333 -54 78.333 -54 129c0 51.333 18 94.333 54 129c36.667 36 80.667 54 132 54zM521 1723
c-26 0 -47.999 -9.33301 -65.999 -28c-18.667 -18 -28 -40 -28 -66c0 -26.667 9.33301 -49 28 -67c18.667 -18.667 41 -28 67 -28s48.333 9.33301 67 28c18.667 18 28 40 28 66c0 26.667 -9.33301 49 -28 67c-18.667 18.667 -41.334 28 -68.001 28z" />
    <glyph glyph-name="glyph272" horiz-adv-x="512" 
 />
    </font>
</defs>
</svg>
